<svg width="1920" height="721" viewBox="0 0 1920 721" fill="none" xmlns="http://www.w3.org/2000/svg">
<rect width="1918.64" height="720.085" transform="matrix(-1 0 0 1 1919.6 0)" fill="#303030"/>
<path d="M357.047 472.223L357.047 441.571L326.396 441.571L326.396 472.223L357.047 472.223Z" fill="#EE1313"/>
<path d="M326.492 441.56L326.492 410.908L295.841 410.908L295.841 441.56L326.492 441.56Z" fill="#EE1313"/>
<path d="M295.828 472.223L295.828 441.571L265.177 441.571L265.177 472.223L295.828 472.223Z" fill="#EE1313"/>
<path d="M479.551 472.223L479.551 441.571L448.899 441.571L448.899 472.223L479.551 472.223Z" fill="white"/>
<path d="M418.35 472.223L418.35 441.571L387.698 441.571L387.698 472.223L418.35 472.223Z" fill="white"/>
<path d="M418.35 441.56L418.35 410.908L387.698 410.908L387.698 441.56L418.35 441.56Z" fill="white"/>
<path d="M448.895 472.223L448.895 441.571L418.243 441.571L418.243 472.223L448.895 472.223Z" fill="white"/>
<path d="M326.492 319.068L326.492 288.417L295.841 288.417L295.841 319.068L326.492 319.068Z" fill="white"/>
<path d="M357.047 349.712L357.047 319.061L326.396 319.061L326.396 349.712L357.047 349.712Z" fill="white"/>
<path d="M326.492 349.712L326.492 319.061L295.841 319.061L295.841 349.712L326.492 349.712Z" fill="white"/>
<path d="M295.828 349.712L295.828 319.061L265.177 319.061L265.177 349.712L295.828 349.712Z" fill="white"/>
<path d="M357.047 410.917L357.047 380.266L326.396 380.266L326.396 410.917L357.047 410.917Z" fill="white"/>
<path d="M387.689 410.917L387.689 380.266L357.038 380.266L357.038 410.917L387.689 410.917Z" fill="white"/>
<path d="M357.047 380.348L357.047 349.696L326.396 349.696L326.396 380.348L357.047 380.348Z" fill="white"/>
<path d="M295.828 410.917L295.828 380.266L265.177 380.266L265.177 410.917L295.828 410.917Z" fill="white"/>
<path d="M265.186 410.917L265.186 380.266L234.534 380.266L234.534 410.917L265.186 410.917Z" fill="white"/>
<path d="M295.828 380.348L295.828 349.696L265.177 349.696L265.177 380.348L295.828 380.348Z" fill="white"/>
<path d="M173.326 472.223L173.326 441.571L142.675 441.571L142.675 472.223L173.326 472.223Z" fill="white"/>
<path d="M234.631 472.223L234.631 441.571L203.98 441.571L203.98 472.223L234.631 472.223Z" fill="white"/>
<path d="M234.631 441.56L234.631 410.908L203.98 410.908L203.98 441.56L234.631 441.56Z" fill="white"/>
<path d="M203.984 472.223L203.984 441.571L173.333 441.571L173.333 472.223L203.984 472.223Z" fill="white"/>
<path d="M509.875 503.001L509.875 472.35L479.224 472.35L479.224 503.001L509.875 503.001Z" fill="white"/>
<path d="M387.354 503.001L387.354 472.35L356.702 472.35L356.702 503.001L387.354 503.001Z" fill="#EE1313"/>
<path d="M356.713 533.657L356.713 503.006L326.062 503.006L326.062 533.657L356.713 533.657Z" fill="#EE1313"/>
<path d="M326.051 564.208L326.051 533.557L295.4 533.557L295.4 564.208L326.051 564.208Z" fill="#EE1313"/>
<path d="M295.492 533.657L295.492 503.006L264.841 503.006L264.841 533.657L295.492 533.657Z" fill="#EE1313"/>
<path d="M264.852 503.001L264.852 472.35L234.2 472.35L234.2 503.001L264.852 503.001Z" fill="#EE1313"/>
<path d="M479.217 503.001L479.217 472.35L448.565 472.35L448.565 503.001L479.217 503.001Z" fill="white"/>
<path d="M479.217 533.657L479.217 503.006L448.565 503.006L448.565 533.657L479.217 533.657Z" fill="white"/>
<path d="M417.914 533.657L417.914 503.006L387.263 503.006L387.263 533.657L417.914 533.657Z" fill="white"/>
<path d="M417.914 564.208L417.914 533.557L387.263 533.557L387.263 564.208L417.914 564.208Z" fill="white"/>
<path d="M448.559 533.657L448.559 503.006L417.907 503.006L417.907 533.657L448.559 533.657Z" fill="white"/>
<path d="M326.051 686.726L326.051 656.074L295.4 656.074L295.4 686.726L326.051 686.726Z" fill="white"/>
<path d="M356.713 656.062L356.713 625.411L326.062 625.411L326.062 656.062L356.713 656.062Z" fill="white"/>
<path d="M326.051 656.062L326.051 625.411L295.4 625.411L295.4 656.062L326.051 656.062Z" fill="white"/>
<path d="M295.492 656.062L295.492 625.411L264.841 625.411L264.841 656.062L295.492 656.062Z" fill="white"/>
<path d="M356.713 594.851L356.713 564.199L326.062 564.199L326.062 594.851L356.713 594.851Z" fill="white"/>
<path d="M387.354 594.851L387.354 564.199L356.702 564.199L356.702 594.851L387.354 594.851Z" fill="white"/>
<path d="M356.713 625.509L356.713 594.857L326.062 594.857L326.062 625.509L356.713 625.509Z" fill="white"/>
<path d="M295.492 594.851L295.492 564.199L264.841 564.199L264.841 594.851L295.492 594.851Z" fill="white"/>
<path d="M264.852 594.851L264.852 564.199L234.2 564.199L234.2 594.851L264.852 594.851Z" fill="white"/>
<path d="M295.492 625.509L295.492 594.857L264.841 594.857L264.841 625.509L295.492 625.509Z" fill="white"/>
<path d="M142.332 503.001L142.332 472.35L111.681 472.35L111.681 503.001L142.332 503.001Z" fill="white"/>
<path d="M172.992 503.001L172.992 472.35L142.341 472.35L142.341 503.001L172.992 503.001Z" fill="white"/>
<path d="M172.992 533.657L172.992 503.006L142.341 503.006L142.341 533.657L172.992 533.657Z" fill="white"/>
<path d="M234.197 533.657L234.197 503.006L203.546 503.006L203.546 533.657L234.197 533.657Z" fill="white"/>
<path d="M234.197 564.208L234.197 533.557L203.546 533.557L203.546 564.208L234.197 564.208Z" fill="white"/>
<path d="M203.646 533.657L203.646 503.006L172.995 503.006L172.995 533.657L203.646 533.657Z" fill="white"/>
<path d="M462.539 123.007L462.539 113.746L453.277 113.746L453.277 123.007L462.539 123.007Z" fill="#EE1313"/>
<path d="M453.307 113.742L453.307 104.48L444.045 104.48L444.045 113.742L453.307 113.742Z" fill="#EE1313"/>
<path d="M444.041 123.007L444.041 113.746L434.779 113.746L434.779 123.007L444.041 123.007Z" fill="#EE1313"/>
<path d="M499.555 123.007L499.555 113.746L490.293 113.746L490.293 123.007L499.555 123.007Z" fill="white"/>
<path d="M481.062 123.007L481.062 113.746L471.801 113.746L471.801 123.007L481.062 123.007Z" fill="white"/>
<path d="M481.062 113.742L481.062 104.48L471.801 104.48L471.801 113.742L481.062 113.742Z" fill="white"/>
<path d="M490.291 123.007L490.291 113.746L481.029 113.746L481.029 123.007L490.291 123.007Z" fill="white"/>
<path d="M453.307 76.7294L453.307 67.4678L444.045 67.4678L444.045 76.7294L453.307 76.7294Z" fill="white"/>
<path d="M462.539 85.9893L462.539 76.7275L453.277 76.7275L453.277 85.9893L462.539 85.9893Z" fill="white"/>
<path d="M453.307 85.9893L453.307 76.7275L444.045 76.7275L444.045 85.9893L453.307 85.9893Z" fill="white"/>
<path d="M444.041 85.9893L444.041 76.7275L434.779 76.7275L434.779 85.9893L444.041 85.9893Z" fill="white"/>
<path d="M462.539 104.483L462.539 95.2212L453.277 95.2212L453.277 104.483L462.539 104.483Z" fill="white"/>
<path d="M471.799 104.483L471.799 95.2212L462.537 95.2212L462.537 104.483L471.799 104.483Z" fill="white"/>
<path d="M462.539 95.2461L462.539 85.9844L453.277 85.9844L453.277 95.2461L462.539 95.2461Z" fill="white"/>
<path d="M444.041 104.483L444.041 95.2212L434.779 95.2212L434.779 104.483L444.041 104.483Z" fill="white"/>
<path d="M434.781 104.483L434.781 95.2212L425.52 95.2212L425.52 104.483L434.781 104.483Z" fill="white"/>
<path d="M444.041 95.2461L444.041 85.9844L434.779 85.9844L434.779 95.2461L444.041 95.2461Z" fill="white"/>
<path d="M407.025 123.007L407.025 113.746L397.764 113.746L397.764 123.007L407.025 123.007Z" fill="white"/>
<path d="M425.549 123.007L425.549 113.746L416.287 113.746L416.287 123.007L425.549 123.007Z" fill="white"/>
<path d="M425.549 113.742L425.549 104.48L416.287 104.48L416.287 113.742L425.549 113.742Z" fill="white"/>
<path d="M416.289 123.007L416.289 113.746L407.027 113.746L407.027 123.007L416.289 123.007Z" fill="white"/>
<path d="M508.719 132.308L508.719 123.046L499.457 123.046L499.457 132.308L508.719 132.308Z" fill="white"/>
<path d="M471.695 132.308L471.695 123.046L462.434 123.046L462.434 132.308L471.695 132.308Z" fill="#EE1313"/>
<path d="M462.437 141.57L462.438 132.309L453.176 132.309L453.176 141.57L462.437 141.57Z" fill="#EE1313"/>
<path d="M453.172 150.802L453.172 141.541L443.91 141.541L443.91 150.802L453.172 150.802Z" fill="#EE1313"/>
<path d="M443.939 141.57L443.939 132.309L434.678 132.309L434.678 141.57L443.939 141.57Z" fill="#EE1313"/>
<path d="M434.682 132.308L434.682 123.046L425.42 123.046L425.42 132.308L434.682 132.308Z" fill="#EE1313"/>
<path d="M499.453 132.308L499.453 123.046L490.191 123.046L490.191 132.308L499.453 132.308Z" fill="white"/>
<path d="M499.453 141.57L499.453 132.309L490.191 132.309L490.191 141.57L499.453 141.57Z" fill="white"/>
<path d="M480.932 141.57L480.932 132.309L471.67 132.309L471.67 141.57L480.932 141.57Z" fill="white"/>
<path d="M480.932 150.802L480.932 141.541L471.67 141.541L471.67 150.802L480.932 150.802Z" fill="white"/>
<path d="M490.191 141.57L490.191 132.309L480.93 132.309L480.93 141.57L490.191 141.57Z" fill="white"/>
<path d="M453.172 187.822L453.172 178.56L443.91 178.56L443.91 187.822L453.172 187.822Z" fill="white"/>
<path d="M462.437 178.557L462.438 169.295L453.176 169.295L453.176 178.557L462.437 178.557Z" fill="white"/>
<path d="M453.172 178.557L453.172 169.295L443.91 169.295L443.91 178.557L453.172 178.557Z" fill="white"/>
<path d="M443.939 178.557L443.939 169.295L434.678 169.295L434.678 178.557L443.939 178.557Z" fill="white"/>
<path d="M462.437 160.061L462.438 150.799L453.176 150.799L453.176 160.061L462.437 160.061Z" fill="white"/>
<path d="M471.695 160.061L471.695 150.799L462.434 150.799L462.434 160.061L471.695 160.061Z" fill="white"/>
<path d="M462.437 169.324L462.438 160.062L453.176 160.062L453.176 169.324L462.437 169.324Z" fill="white"/>
<path d="M443.939 160.061L443.939 150.799L434.678 150.799L434.678 160.061L443.939 160.061Z" fill="white"/>
<path d="M434.682 160.061L434.682 150.799L425.42 150.799L425.42 160.061L434.682 160.061Z" fill="white"/>
<path d="M443.939 169.324L443.939 160.062L434.678 160.062L434.678 169.324L443.939 169.324Z" fill="white"/>
<path d="M397.66 132.308L397.66 123.046L388.398 123.046L388.398 132.308L397.66 132.308Z" fill="white"/>
<path d="M406.924 132.308L406.924 123.046L397.662 123.046L397.662 132.308L406.924 132.308Z" fill="white"/>
<path d="M406.924 141.57L406.924 132.309L397.662 132.309L397.662 141.57L406.924 141.57Z" fill="white"/>
<path d="M425.418 141.57L425.418 132.309L416.156 132.309L416.156 141.57L425.418 141.57Z" fill="white"/>
<path d="M425.418 150.802L425.418 141.541L416.156 141.541L416.156 150.802L425.418 150.802Z" fill="white"/>
<path d="M416.187 141.57L416.188 132.309L406.926 132.309L406.926 141.57L416.187 141.57Z" fill="white"/>
<path d="M188.143 164.203L188.143 149.58L173.52 149.58L173.52 164.203L188.143 164.203Z" fill="#EE1313"/>
<path d="M158.937 164.203L158.938 149.58L144.315 149.58L144.315 164.203L158.937 164.203Z" fill="#EE1313"/>
<path d="M144.318 164.203L144.318 149.58L129.696 149.58L129.696 164.203L144.318 164.203Z" fill="#EE1313"/>
<path d="M115.119 149.573L115.119 134.95L100.497 134.95L100.497 149.573L115.119 149.573Z" fill="#EE1313"/>
<path d="M129.699 134.956L129.699 120.333L115.077 120.333L115.077 134.956L129.699 134.956Z" fill="#EE1313"/>
<path d="M144.318 134.956L144.318 120.333L129.696 120.333L129.696 134.956L144.318 134.956Z" fill="#EE1313"/>
<path d="M144.318 120.371L144.318 105.749L129.696 105.749L129.696 120.371L144.318 120.371Z" fill="#EE1313"/>
<path d="M144.318 105.757L144.318 91.1343L129.696 91.1343L129.696 105.757L144.318 105.757Z" fill="#EE1313"/>
<path d="M158.937 120.371L158.938 105.749L144.315 105.749L144.315 120.371L158.937 120.371Z" fill="#EE1313"/>
<path d="M158.937 105.757L158.938 91.1343L144.315 91.1343L144.315 105.757L158.937 105.757Z" fill="#EE1313"/>
<path d="M173.51 120.371L173.51 105.749L158.887 105.749L158.887 120.371L173.51 120.371Z" fill="#EE1313"/>
<path d="M173.51 105.757L173.51 91.1343L158.887 91.1343L158.887 105.757L173.51 105.757Z" fill="#EE1313"/>
<path d="M158.937 91.1375L158.938 76.5151L144.315 76.5151L144.315 91.1375L158.937 91.1375Z" fill="#EE1313"/>
<path d="M173.51 91.1375L173.51 76.5151L158.887 76.5151L158.887 91.1375L173.51 91.1375Z" fill="#EE1313"/>
<path d="M188.143 91.1375L188.143 76.5151L173.52 76.5151L173.52 91.1375L188.143 91.1375Z" fill="#EE1313"/>
<path d="M188.143 76.5595L188.143 61.937L173.52 61.937L173.52 76.5595L188.143 76.5595Z" fill="#EE1313"/>
<path d="M188.143 61.9321L188.143 47.3096L173.52 47.3096L173.52 61.9321L188.143 61.9321Z" fill="#EE1313"/>
<path d="M173.51 61.9321L173.51 47.3096L158.887 47.3096L158.887 61.9321L173.51 61.9321Z" fill="#EE1313"/>
<path d="M100.496 149.573L100.496 134.95L85.8736 134.95L85.8736 149.573L100.496 149.573Z" fill="#EE1313"/>
<path d="M71.2969 164.203L71.2969 149.58L56.6744 149.58L56.6744 164.203L71.2969 164.203Z" fill="#EE1313"/>
<path d="M56.6777 149.573L56.6777 134.95L42.0552 134.95L42.0552 149.573L56.6777 149.573Z" fill="#EE1313"/>
<path d="M56.6777 134.956L56.6777 120.333L42.0552 120.333L42.0552 134.956L56.6777 134.956Z" fill="#EE1313"/>
<path d="M56.6777 120.371L56.6777 105.749L42.0552 105.749L42.0552 120.371L56.6777 120.371Z" fill="#EE1313"/>
<path d="M71.2969 134.956L71.2969 120.333L56.6744 120.333L56.6744 134.956L71.2969 134.956Z" fill="#EE1313"/>
<path d="M71.2969 120.371L71.2969 105.749L56.6744 105.749L56.6744 120.371L71.2969 120.371Z" fill="#EE1313"/>
<path d="M71.2969 105.757L71.2969 91.1343L56.6744 91.1343L56.6744 105.757L71.2969 105.757Z" fill="#EE1313"/>
<path d="M85.873 120.371L85.873 105.749L71.2505 105.749L71.2505 120.371L85.873 120.371Z" fill="#EE1313"/>
<path d="M85.873 105.757L85.873 91.1343L71.2505 91.1343L71.2505 105.757L85.873 105.757Z" fill="#EE1313"/>
<path d="M85.873 91.1375L85.873 76.5151L71.2505 76.5151L71.2505 91.1375L85.873 91.1375Z" fill="#EE1313"/>
<path d="M100.496 105.757L100.496 91.1343L85.8736 91.1343L85.8736 105.757L100.496 105.757Z" fill="#EE1313"/>
<path d="M100.496 91.1375L100.496 76.5151L85.8736 76.5151L85.8736 91.1375L100.496 91.1375Z" fill="#EE1313"/>
<path d="M115.119 91.1375L115.119 76.5151L100.497 76.5151L100.497 91.1375L115.119 91.1375Z" fill="#EE1313"/>
<path d="M115.119 76.5595L115.119 61.937L100.497 61.937L100.497 76.5595L115.119 76.5595Z" fill="#EE1313"/>
<path d="M115.119 61.9321L115.119 47.3096L100.497 47.3096L100.497 61.9321L115.119 61.9321Z" fill="#EE1313"/>
<path d="M85.873 149.573L85.873 134.95L71.2505 134.95L71.2505 149.573L85.873 149.573Z" fill="#EE1313"/>
<path d="M129.699 164.203L129.699 149.58L115.077 149.58L115.077 164.203L129.699 164.203Z" fill="#EE1313"/>
<path d="M202.557 178.884L202.557 164.262L187.934 164.262L187.934 178.884L202.557 178.884Z" fill="#EE1313"/>
<path d="M187.984 193.51L187.984 178.888L173.362 178.888L173.362 193.51L187.984 193.51Z" fill="#EE1313"/>
<path d="M173.35 178.884L173.35 164.262L158.727 164.262L158.727 178.884L173.35 178.884Z" fill="#EE1313"/>
<path d="M158.734 178.884L158.734 164.262L144.112 164.262L144.112 178.884L158.734 178.884Z" fill="#EE1313"/>
<path d="M158.734 193.51L158.734 178.888L144.112 178.888L144.112 193.51L158.734 193.51Z" fill="#EE1313"/>
<path d="M144.158 193.51L144.158 178.888L129.536 178.888L129.536 193.51L144.158 193.51Z" fill="#EE1313"/>
<path d="M114.916 178.884L114.916 164.262L100.294 164.262L100.294 178.884L114.916 178.884Z" fill="#EE1313"/>
<path d="M114.916 208.087L114.916 193.464L100.294 193.464L100.294 208.087L114.916 208.087Z" fill="#EE1313"/>
<path d="M129.539 222.702L129.539 208.079L114.917 208.079L114.917 222.702L129.539 222.702Z" fill="#EE1313"/>
<path d="M144.158 222.702L144.158 208.079L129.536 208.079L129.536 222.702L144.158 222.702Z" fill="#EE1313"/>
<path d="M144.158 237.329L144.158 222.706L129.536 222.706L129.536 237.329L144.158 237.329Z" fill="#EE1313"/>
<path d="M144.158 251.906L144.158 237.283L129.536 237.283L129.536 251.906L144.158 251.906Z" fill="#EE1313"/>
<path d="M158.734 237.329L158.734 222.706L144.112 222.706L144.112 237.329L158.734 237.329Z" fill="#EE1313"/>
<path d="M158.734 251.906L158.734 237.283L144.112 237.283L144.112 251.906L158.734 251.906Z" fill="#EE1313"/>
<path d="M173.35 237.329L173.35 222.706L158.727 222.706L158.727 237.329L173.35 237.329Z" fill="#EE1313"/>
<path d="M173.35 251.906L173.35 237.283L158.727 237.283L158.727 251.906L173.35 251.906Z" fill="#EE1313"/>
<path d="M158.734 266.532L158.734 251.909L144.112 251.909L144.112 266.532L158.734 266.532Z" fill="#EE1313"/>
<path d="M173.35 266.532L173.35 251.909L158.727 251.909L158.727 266.532L173.35 266.532Z" fill="#EE1313"/>
<path d="M187.984 266.532L187.984 251.909L173.362 251.909L173.362 266.532L187.984 266.532Z" fill="#EE1313"/>
<path d="M187.984 281.145L187.984 266.522L173.362 266.522L173.362 281.145L187.984 281.145Z" fill="#EE1313"/>
<path d="M187.984 295.728L187.984 281.105L173.362 281.105L173.362 295.728L187.984 295.728Z" fill="#EE1313"/>
<path d="M173.35 295.728L173.35 281.105L158.727 281.105L158.727 295.728L173.35 295.728Z" fill="#EE1313"/>
<path d="M100.336 178.884L100.336 164.262L85.7134 164.262L85.7134 178.884L100.336 178.884Z" fill="#EE1313"/>
<path d="M100.336 208.087L100.336 193.464L85.7134 193.464L85.7134 208.087L100.336 208.087Z" fill="#EE1313"/>
<path d="M85.7129 178.884L85.7129 164.262L71.0904 164.262L71.0904 178.884L85.7129 178.884Z" fill="#EE1313"/>
<path d="M71.0898 193.51L71.0898 178.888L56.4673 178.888L56.4673 193.51L71.0898 193.51Z" fill="#EE1313"/>
<path d="M56.5215 208.087L56.5215 193.464L41.899 193.464L41.899 208.087L56.5215 208.087Z" fill="#EE1313"/>
<path d="M56.5215 222.702L56.5215 208.079L41.899 208.079L41.899 222.702L56.5215 222.702Z" fill="#EE1313"/>
<path d="M56.5215 237.329L56.5215 222.706L41.899 222.706L41.899 237.329L56.5215 237.329Z" fill="#EE1313"/>
<path d="M71.0898 222.702L71.0898 208.079L56.4673 208.079L56.4673 222.702L71.0898 222.702Z" fill="#EE1313"/>
<path d="M71.0898 237.329L71.0898 222.706L56.4673 222.706L56.4673 237.329L71.0898 237.329Z" fill="#EE1313"/>
<path d="M71.0898 251.906L71.0898 237.283L56.4673 237.283L56.4673 251.906L71.0898 251.906Z" fill="#EE1313"/>
<path d="M85.7129 237.329L85.7129 222.706L71.0904 222.706L71.0904 237.329L85.7129 237.329Z" fill="#EE1313"/>
<path d="M85.7129 251.906L85.7129 237.283L71.0904 237.283L71.0904 251.906L85.7129 251.906Z" fill="#EE1313"/>
<path d="M85.7129 266.532L85.7129 251.909L71.0904 251.909L71.0904 266.532L85.7129 266.532Z" fill="#EE1313"/>
<path d="M100.336 251.906L100.336 237.283L85.7134 237.283L85.7134 251.906L100.336 251.906Z" fill="#EE1313"/>
<path d="M100.336 266.532L100.336 251.909L85.7134 251.909L85.7134 266.532L100.336 266.532Z" fill="#EE1313"/>
<path d="M114.916 266.532L114.916 251.909L100.294 251.909L100.294 266.532L114.916 266.532Z" fill="#EE1313"/>
<path d="M114.916 281.145L114.916 266.522L100.294 266.522L100.294 281.145L114.916 281.145Z" fill="#EE1313"/>
<path d="M114.916 295.728L114.916 281.105L100.294 281.105L100.294 295.728L114.916 295.728Z" fill="#EE1313"/>
<path d="M85.7129 208.087L85.7129 193.464L71.0904 193.464L71.0904 208.087L85.7129 208.087Z" fill="#EE1313"/>
<path d="M129.539 193.51L129.539 178.888L114.917 178.888L114.917 193.51L129.539 193.51Z" fill="#EE1313"/>
</svg>
