<svg width="574" height="574" viewBox="0 0 574 574" fill="none" xmlns="http://www.w3.org/2000/svg">
<rect x="0.895142" y="0.687012" width="573.018" height="573.018" fill="white"/>
<path d="M225.104 150.156H200.192V175.068H225.104V150.156Z" fill="#303030"/>
<path d="M250.017 175.074H225.105V199.986H250.017V175.074Z" fill="#303030"/>
<path d="M274.929 199.984H250.016V224.896H274.929V199.984Z" fill="#303030"/>
<path d="M225.104 125.25H200.192V150.162H225.104V125.25Z" fill="#303030"/>
<path d="M250.017 150.156H225.105V175.068H250.017V150.156Z" fill="#303030"/>
<path d="M274.929 175.074H250.016V199.986H274.929V175.074Z" fill="#303030"/>
<path d="M225.104 100.335H200.192V125.248H225.104V100.335Z" fill="#303030"/>
<path d="M250.017 125.25H225.105V150.162H250.017V125.25Z" fill="#303030"/>
<path d="M274.929 150.156H250.016V175.068H274.929V150.156Z" fill="#303030"/>
<path d="M225.104 75.4253H200.192V100.338H225.104V75.4253Z" fill="#303030"/>
<path d="M250.017 100.335H225.105V125.248H250.017V100.335Z" fill="#303030"/>
<path d="M274.929 125.25H250.016V150.162H274.929V125.25Z" fill="#303030"/>
<path d="M225.104 175.074H200.192V199.986H225.104V175.074Z" fill="#303030"/>
<path d="M250.017 199.984H225.105V224.896H250.017V199.984Z" fill="#303030"/>
<path d="M274.929 224.898H250.016V249.81H274.929V224.898Z" fill="#303030"/>
<path d="M374.596 150.156H349.684V175.068H374.596V150.156Z" fill="#303030"/>
<path d="M349.665 175.074H324.753V199.986H349.665V175.074Z" fill="#303030"/>
<path d="M324.754 199.984H299.841V224.896H324.754V199.984Z" fill="#303030"/>
<path d="M374.597 125.25H349.685V150.162H374.597V125.25Z" fill="#303030"/>
<path d="M349.665 150.156H324.753V175.068H349.665V150.156Z" fill="#303030"/>
<path d="M324.753 175.074H299.841V199.986H324.753V175.074Z" fill="#303030"/>
<path d="M374.597 100.335H349.685V125.248H374.597V100.335Z" fill="#303030"/>
<path d="M349.665 125.25H324.753V150.162H349.665V125.25Z" fill="#303030"/>
<path d="M324.754 150.156H299.841V175.068H324.754V150.156Z" fill="#303030"/>
<path d="M374.597 75.4253H349.685V100.338H374.597V75.4253Z" fill="#303030"/>
<path d="M349.665 100.335H324.753V125.248H349.665V100.335Z" fill="#303030"/>
<path d="M324.753 125.25H299.841V150.162H324.753V125.25Z" fill="#303030"/>
<path d="M374.597 175.074H349.685V199.986H374.597V175.074Z" fill="#303030"/>
<path d="M349.665 199.984H324.753V224.896H349.665V199.984Z" fill="#303030"/>
<path d="M324.754 224.898H299.841V249.81H324.754V224.898Z" fill="#303030"/>
<path d="M175.28 349.48H150.367V374.392H175.28V349.48Z" fill="#303030"/>
<path d="M200.192 324.562H175.28V349.474H200.192V324.562Z" fill="#303030"/>
<path d="M225.104 299.656H200.192V324.568H225.104V299.656Z" fill="#303030"/>
<path d="M150.348 349.48H125.436V374.392H150.348V349.48Z" fill="#303030"/>
<path d="M175.279 324.562H150.367V349.474H175.279V324.562Z" fill="#303030"/>
<path d="M200.192 299.656H175.28V324.568H200.192V299.656Z" fill="#303030"/>
<path d="M125.437 349.48H100.525V374.392H125.437V349.48Z" fill="#303030"/>
<path d="M150.348 324.562H125.436V349.474H150.348V324.562Z" fill="#303030"/>
<path d="M175.279 299.656H150.367V324.568H175.279V299.656Z" fill="#303030"/>
<path d="M100.524 349.48H75.6119V374.392H100.524V349.48Z" fill="#303030"/>
<path d="M125.437 324.562H100.525V349.474H125.437V324.562Z" fill="#303030"/>
<path d="M150.348 299.656H125.436V324.568H150.348V299.656Z" fill="#303030"/>
<path d="M200.192 349.48H175.279V374.392H200.192V349.48Z" fill="#303030"/>
<path d="M225.104 324.562H200.192V349.474H225.104V324.562Z" fill="#303030"/>
<path d="M250.017 299.656H225.105V324.568H250.017V299.656Z" fill="#303030"/>
<path d="M424.422 349.48H399.51V374.392H424.422V349.48Z" fill="#303030"/>
<path d="M399.51 324.562H374.597V349.474H399.51V324.562Z" fill="#303030"/>
<path d="M374.578 299.656H349.666V324.568H374.578V299.656Z" fill="#303030"/>
<path d="M449.333 349.48H424.421V374.392H449.333V349.48Z" fill="#303030"/>
<path d="M424.422 324.562H399.509V349.474H424.422V324.562Z" fill="#303030"/>
<path d="M399.51 299.656H374.597V324.568H399.51V299.656Z" fill="#303030"/>
<path d="M474.246 349.48H449.334V374.392H474.246V349.48Z" fill="#303030"/>
<path d="M449.333 324.562H424.421V349.474H449.333V324.562Z" fill="#303030"/>
<path d="M424.422 299.656H399.51V324.568H424.422V299.656Z" fill="#303030"/>
<path d="M499.159 349.48H474.246V374.392H499.159V349.48Z" fill="#303030"/>
<path d="M474.246 324.562H449.334V349.474H474.246V324.562Z" fill="#303030"/>
<path d="M449.333 299.656H424.421V324.568H449.333V299.656Z" fill="#303030"/>
<path d="M399.51 349.48H374.597V374.392H399.51V349.48Z" fill="#303030"/>
<path d="M374.578 324.562H349.666V349.474H374.578V324.562Z" fill="#303030"/>
<path d="M349.665 299.656H324.753V324.568H349.665V299.656Z" fill="#303030"/>
<path d="M175.28 249.824H150.367V274.736H175.28V249.824Z" fill="#303030"/>
<path d="M150.368 224.917H125.455V249.83H150.368V224.917Z" fill="#303030"/>
<path d="M125.437 199.984H100.525V224.896H125.437V199.984Z" fill="#303030"/>
<path d="M200.192 249.824H175.279V274.736H200.192V249.824Z" fill="#303030"/>
<path d="M175.279 224.917H150.367V249.83H175.279V224.917Z" fill="#303030"/>
<path d="M150.368 199.984H125.455V224.896H150.368V199.984Z" fill="#303030"/>
<path d="M225.104 249.824H200.192V274.736H225.104V249.824Z" fill="#303030"/>
<path d="M200.192 224.917H175.28V249.83H200.192V224.917Z" fill="#303030"/>
<path d="M175.279 199.984H150.367V224.896H175.279V199.984Z" fill="#303030"/>
<path d="M250.017 249.824H225.105V274.736H250.017V249.824Z" fill="#303030"/>
<path d="M225.104 224.917H200.192V249.83H225.104V224.917Z" fill="#303030"/>
<path d="M200.192 199.984H175.28V224.896H200.192V199.984Z" fill="#303030"/>
<path d="M150.368 249.824H125.455V274.736H150.368V249.824Z" fill="#303030"/>
<path d="M125.437 224.917H100.525V249.83H125.437V224.917Z" fill="#303030"/>
<path d="M100.543 199.984H75.6302V224.896H100.543V199.984Z" fill="#303030"/>
<path d="M424.422 249.824H399.51V274.736H424.422V249.824Z" fill="#303030"/>
<path d="M449.333 224.917H424.421V249.83H449.333V224.917Z" fill="#303030"/>
<path d="M474.246 199.984H449.334V224.896H474.246V199.984Z" fill="#303030"/>
<path d="M399.51 249.824H374.597V274.736H399.51V249.824Z" fill="#303030"/>
<path d="M424.422 224.917H399.509V249.83H424.422V224.917Z" fill="#303030"/>
<path d="M449.333 199.984H424.421V224.896H449.333V199.984Z" fill="#303030"/>
<path d="M374.597 249.824H349.685V274.736H374.597V249.824Z" fill="#303030"/>
<path d="M399.51 224.917H374.597V249.83H399.51V224.917Z" fill="#303030"/>
<path d="M424.422 199.984H399.509V224.896H424.422V199.984Z" fill="#303030"/>
<path d="M349.665 249.824H324.753V274.736H349.665V249.824Z" fill="#303030"/>
<path d="M374.596 224.917H349.684V249.83H374.596V224.917Z" fill="#303030"/>
<path d="M399.51 199.984H374.597V224.896H399.51V199.984Z" fill="#303030"/>
<path d="M449.333 249.824H424.421V274.736H449.333V249.824Z" fill="#303030"/>
<path d="M474.246 224.917H449.334V249.83H474.246V224.917Z" fill="#303030"/>
<path d="M499.159 199.984H474.247V224.896H499.159V199.984Z" fill="#303030"/>
<path d="M274.929 399.3H250.016V424.213H274.929V399.3Z" fill="#303030"/>
<path d="M250.017 424.234H225.105V449.146H250.017V424.234Z" fill="#303030"/>
<path d="M225.104 449.144H200.192V474.056H225.104V449.144Z" fill="#303030"/>
<path d="M274.929 374.39H250.016V399.302H274.929V374.39Z" fill="#303030"/>
<path d="M250.017 399.3H225.105V424.213H250.017V399.3Z" fill="#303030"/>
<path d="M225.104 424.234H200.192V449.146H225.104V424.234Z" fill="#303030"/>
<path d="M274.929 349.48H250.016V374.392H274.929V349.48Z" fill="#303030"/>
<path d="M250.017 374.39H225.105V399.302H250.017V374.39Z" fill="#303030"/>
<path d="M225.104 399.3H200.192V424.213H225.104V399.3Z" fill="#303030"/>
<path d="M274.929 324.562H250.016V349.474H274.929V324.562Z" fill="#303030"/>
<path d="M250.017 349.48H225.105V374.392H250.017V349.48Z" fill="#303030"/>
<path d="M225.104 374.39H200.192V399.302H225.104V374.39Z" fill="#303030"/>
<path d="M274.929 424.234H250.016V449.146H274.929V424.234Z" fill="#303030"/>
<path d="M250.017 449.144H225.105V474.056H250.017V449.144Z" fill="#303030"/>
<path d="M225.104 474.058H200.192V498.97H225.104V474.058Z" fill="#303030"/>
<path d="M324.771 399.3H299.859V424.213H324.771V399.3Z" fill="#303030"/>
<path d="M349.684 424.234H324.772V449.146H349.684V424.234Z" fill="#303030"/>
<path d="M374.596 449.144H349.684V474.056H374.596V449.144Z" fill="#303030"/>
<path d="M324.771 374.39H299.859V399.302H324.771V374.39Z" fill="#303030"/>
<path d="M349.684 399.3H324.772V424.213H349.684V399.3Z" fill="#303030"/>
<path d="M374.596 424.234H349.684V449.146H374.596V424.234Z" fill="#303030"/>
<path d="M324.772 349.48H299.859V374.392H324.772V349.48Z" fill="#303030"/>
<path d="M349.684 374.39H324.772V399.302H349.684V374.39Z" fill="#303030"/>
<path d="M374.596 399.3H349.684V424.213H374.596V399.3Z" fill="#303030"/>
<path d="M324.771 324.562H299.859V349.474H324.771V324.562Z" fill="#303030"/>
<path d="M349.684 349.48H324.772V374.392H349.684V349.48Z" fill="#303030"/>
<path d="M374.596 374.39H349.684V399.302H374.596V374.39Z" fill="#303030"/>
<path d="M324.771 424.234H299.859V449.146H324.771V424.234Z" fill="#303030"/>
<path d="M349.684 449.144H324.772V474.056H349.684V449.144Z" fill="#303030"/>
<path d="M374.596 474.058H349.684V498.97H374.596V474.058Z" fill="#303030"/>
</svg>
