<svg width="277" height="87" viewBox="0 0 277 87" fill="none" xmlns="http://www.w3.org/2000/svg">
<path d="M276.717 17.762V69.362H259.467V86.562H17.9668V69.362H0.716797V17.762H17.9668V0.562012H259.467V17.762H276.717Z" fill="white"/>
<path d="M58.7026 53.562V32.412H77.0926V53.562H73.2526V35.622H62.5426V53.562H58.7026ZM88.2406 53.862C86.7206 53.862 85.4006 53.552 84.2806 52.932C83.1606 52.312 82.2906 51.432 81.6706 50.292C81.0506 49.132 80.7406 47.772 80.7406 46.212C80.7406 44.652 81.0506 43.302 81.6706 42.162C82.2906 41.022 83.1606 40.142 84.2806 39.522C85.4006 38.902 86.7206 38.592 88.2406 38.592C89.7606 38.592 91.0806 38.902 92.2006 39.522C93.3206 40.142 94.1906 41.022 94.8106 42.162C95.4306 43.302 95.7406 44.652 95.7406 46.212C95.7406 47.772 95.4306 49.132 94.8106 50.292C94.1906 51.432 93.3206 52.312 92.2006 52.932C91.0806 53.552 89.7606 53.862 88.2406 53.862ZM88.2406 51.012C89.3606 51.012 90.2606 50.612 90.9406 49.812C91.6206 48.992 91.9606 47.792 91.9606 46.212C91.9606 44.612 91.6206 43.422 90.9406 42.642C90.2606 41.842 89.3606 41.442 88.2406 41.442C87.1206 41.442 86.2206 41.842 85.5406 42.642C84.8606 43.422 84.5206 44.612 84.5206 46.212C84.5206 47.792 84.8606 48.992 85.5406 49.812C86.2206 50.612 87.1206 51.012 88.2406 51.012ZM97.8659 57.462V50.622H99.5459C99.9459 50.002 100.256 49.342 100.476 48.642C100.716 47.922 100.886 47.112 100.986 46.212C101.106 45.292 101.166 44.242 101.166 43.062V38.892H112.596V50.622H114.996V57.462H111.816V53.562H101.046V57.462H97.8659ZM102.936 50.622H109.086V41.772H104.376V43.932C104.376 45.192 104.246 46.412 103.986 47.592C103.746 48.772 103.396 49.782 102.936 50.622ZM117.791 58.962V38.892H121.451V41.982H121.151C121.451 40.962 122.061 40.142 122.981 39.522C123.921 38.902 125.011 38.592 126.251 38.592C127.531 38.592 128.651 38.902 129.611 39.522C130.591 40.142 131.351 41.022 131.891 42.162C132.431 43.282 132.701 44.632 132.701 46.212C132.701 47.772 132.431 49.132 131.891 50.292C131.351 51.432 130.601 52.312 129.641 52.932C128.681 53.552 127.551 53.862 126.251 53.862C125.031 53.862 123.961 53.562 123.041 52.962C122.121 52.342 121.501 51.542 121.181 50.562H121.541V58.962H117.791ZM125.201 51.012C126.321 51.012 127.221 50.612 127.901 49.812C128.581 48.992 128.921 47.792 128.921 46.212C128.921 44.612 128.581 43.422 127.901 42.642C127.221 41.842 126.321 41.442 125.201 41.442C124.081 41.442 123.181 41.842 122.501 42.642C121.821 43.422 121.481 44.612 121.481 46.212C121.481 47.792 121.821 48.992 122.501 49.812C123.181 50.612 124.081 51.012 125.201 51.012ZM142.909 53.862C141.389 53.862 140.069 53.552 138.949 52.932C137.829 52.312 136.959 51.432 136.339 50.292C135.719 49.132 135.409 47.772 135.409 46.212C135.409 44.652 135.719 43.302 136.339 42.162C136.959 41.022 137.829 40.142 138.949 39.522C140.069 38.902 141.389 38.592 142.909 38.592C144.429 38.592 145.749 38.902 146.869 39.522C147.989 40.142 148.859 41.022 149.479 42.162C150.099 43.302 150.409 44.652 150.409 46.212C150.409 47.772 150.099 49.132 149.479 50.292C148.859 51.432 147.989 52.312 146.869 52.932C145.749 53.552 144.429 53.862 142.909 53.862ZM142.909 51.012C144.029 51.012 144.929 50.612 145.609 49.812C146.289 48.992 146.629 47.792 146.629 46.212C146.629 44.612 146.289 43.422 145.609 42.642C144.929 41.842 144.029 41.442 142.909 41.442C141.789 41.442 140.889 41.842 140.209 42.642C139.529 43.422 139.189 44.612 139.189 46.212C139.189 47.792 139.529 48.992 140.209 49.812C140.889 50.612 141.789 51.012 142.909 51.012ZM160.754 53.862C159.194 53.862 157.834 53.542 156.674 52.902C155.534 52.262 154.654 51.312 154.034 50.052C153.414 48.772 153.104 47.202 153.104 45.342V43.152C153.104 41.972 153.204 40.912 153.404 39.972C153.624 39.012 153.944 38.172 154.364 37.452C154.804 36.712 155.334 36.062 155.954 35.502C156.594 34.942 157.324 34.472 158.144 34.092C158.984 33.712 159.924 33.392 160.964 33.132L166.094 31.872L167.204 34.842L161.234 36.252C159.734 36.612 158.594 37.282 157.814 38.262C157.034 39.222 156.644 40.442 156.644 41.922V43.542H156.134C156.334 42.682 156.674 41.912 157.154 41.232C157.654 40.552 158.294 40.022 159.074 39.642C159.854 39.242 160.764 39.042 161.804 39.042C162.724 39.042 163.564 39.212 164.324 39.552C165.104 39.892 165.774 40.382 166.334 41.022C166.894 41.642 167.324 42.402 167.624 43.302C167.944 44.182 168.104 45.182 168.104 46.302C168.104 47.842 167.794 49.182 167.174 50.322C166.574 51.442 165.724 52.312 164.624 52.932C163.524 53.552 162.234 53.862 160.754 53.862ZM160.604 51.012C161.784 51.012 162.694 50.622 163.334 49.842C163.994 49.062 164.324 47.932 164.324 46.452C164.324 44.992 163.994 43.872 163.334 43.092C162.694 42.292 161.784 41.892 160.604 41.892C159.444 41.892 158.534 42.282 157.874 43.062C157.214 43.842 156.884 44.922 156.884 46.302C156.884 47.842 157.204 49.012 157.844 49.812C158.504 50.612 159.424 51.012 160.604 51.012ZM171.579 53.562V38.892H175.329V44.562H181.809V38.892H185.559V53.562H181.809V47.502H175.329V53.562H171.579ZM197.091 53.862C195.431 53.862 194.001 53.552 192.801 52.932C191.601 52.312 190.671 51.432 190.011 50.292C189.371 49.152 189.051 47.802 189.051 46.242C189.051 44.722 189.361 43.392 189.981 42.252C190.621 41.112 191.491 40.222 192.591 39.582C193.711 38.922 194.981 38.592 196.401 38.592C197.801 38.592 199.001 38.892 200.001 39.492C201.001 40.092 201.771 40.942 202.311 42.042C202.871 43.142 203.151 44.452 203.151 45.972V47.082H192.081V44.922H200.511L200.031 45.372C200.031 44.012 199.731 42.972 199.131 42.252C198.531 41.512 197.671 41.142 196.551 41.142C195.711 41.142 194.991 41.342 194.391 41.742C193.811 42.122 193.361 42.672 193.041 43.392C192.741 44.092 192.591 44.932 192.591 45.912V46.122C192.591 47.222 192.761 48.132 193.101 48.852C193.441 49.572 193.951 50.112 194.631 50.472C195.311 50.832 196.151 51.012 197.151 51.012C197.971 51.012 198.791 50.892 199.611 50.652C200.431 50.392 201.181 49.992 201.861 49.452L202.911 51.972C202.211 52.552 201.331 53.012 200.271 53.352C199.211 53.692 198.151 53.862 197.091 53.862ZM213.761 53.862C212.101 53.862 210.671 53.552 209.471 52.932C208.271 52.312 207.341 51.432 206.681 50.292C206.041 49.152 205.721 47.802 205.721 46.242C205.721 44.722 206.031 43.392 206.651 42.252C207.291 41.112 208.161 40.222 209.261 39.582C210.381 38.922 211.651 38.592 213.071 38.592C214.471 38.592 215.671 38.892 216.671 39.492C217.671 40.092 218.441 40.942 218.981 42.042C219.541 43.142 219.821 44.452 219.821 45.972V47.082H208.751V44.922H217.181L216.701 45.372C216.701 44.012 216.401 42.972 215.801 42.252C215.201 41.512 214.341 41.142 213.221 41.142C212.381 41.142 211.661 41.342 211.061 41.742C210.481 42.122 210.031 42.672 209.711 43.392C209.411 44.092 209.261 44.932 209.261 45.912V46.122C209.261 47.222 209.431 48.132 209.771 48.852C210.111 49.572 210.621 50.112 211.301 50.472C211.981 50.832 212.821 51.012 213.821 51.012C214.641 51.012 215.461 50.892 216.281 50.652C217.101 50.392 217.851 49.992 218.531 49.452L219.581 51.972C218.881 52.552 218.001 53.012 216.941 53.352C215.881 53.692 214.821 53.862 213.761 53.862Z" fill="#EE1313"/>
</svg>
