<svg width="1019" height="604" viewBox="0 0 1019 604" fill="none" xmlns="http://www.w3.org/2000/svg">
<rect x="0.672241" y="0.738037" width="573" height="566.916" fill="#EE1313"/>
<rect x="573.672" y="0.738037" width="445" height="283.757" fill="#FBD20E"/>
<rect x="573.672" y="283.898" width="445" height="283.757" fill="#249005"/>
<path d="M586.273 559.031L587.173 554.481H584.948V553.006H587.448L588.573 547.231H585.448V545.756H588.823L589.698 541.406H591.273L590.423 545.756H594.398L595.248 541.406H596.848L595.998 545.756H598.198V547.231H595.698L594.573 553.006H597.698V554.481H594.323L593.423 559.031H591.823L592.698 554.481H588.748L587.873 559.031H586.273ZM589.023 553.006H592.973L594.123 547.231H590.148L589.023 553.006ZM601.313 559.031V557.481L607.338 550.981C607.905 550.364 608.363 549.789 608.713 549.256C609.063 548.706 609.321 548.173 609.488 547.656C609.655 547.139 609.738 546.614 609.738 546.081C609.738 545.081 609.43 544.323 608.813 543.806C608.213 543.273 607.33 543.006 606.163 543.006C605.263 543.006 604.421 543.173 603.638 543.506C602.871 543.823 602.138 544.323 601.438 545.006L600.663 543.406C601.313 542.739 602.138 542.206 603.138 541.806C604.155 541.389 605.221 541.181 606.338 541.181C607.521 541.181 608.521 541.364 609.338 541.731C610.155 542.098 610.771 542.639 611.188 543.356C611.605 544.056 611.813 544.914 611.813 545.931C611.813 546.464 611.746 546.989 611.613 547.506C611.496 548.006 611.305 548.514 611.038 549.031C610.788 549.531 610.463 550.048 610.063 550.581C609.68 551.114 609.213 551.664 608.663 552.231L603.363 557.856V557.281H612.538V559.031H601.313ZM623.478 559.031V555.256H615.353V553.706L623.828 541.406H625.553V553.506H628.178V555.256H625.553V559.031H623.478ZM623.478 553.506V543.881H624.078L617.103 554.056V553.506H623.478ZM635.343 559.256C634.743 559.256 634.135 559.173 633.518 559.006C632.902 558.823 632.318 558.573 631.768 558.256C631.235 557.939 630.768 557.564 630.368 557.131L631.143 555.506C631.743 556.156 632.41 556.639 633.143 556.956C633.877 557.273 634.618 557.431 635.368 557.431C636.185 557.431 636.91 557.281 637.543 556.981C638.177 556.681 638.71 556.231 639.143 555.631C639.577 555.014 639.902 554.256 640.118 553.356C640.352 552.439 640.468 551.381 640.468 550.181V547.856H640.668C640.568 548.789 640.285 549.606 639.818 550.306C639.368 551.006 638.785 551.539 638.068 551.906C637.352 552.273 636.543 552.456 635.643 552.456C634.61 552.456 633.693 552.223 632.893 551.756C632.11 551.289 631.485 550.631 631.018 549.781C630.568 548.931 630.343 547.973 630.343 546.906C630.343 545.789 630.577 544.806 631.043 543.956C631.527 543.089 632.185 542.414 633.018 541.931C633.868 541.431 634.843 541.181 635.943 541.181C637.327 541.181 638.502 541.523 639.468 542.206C640.452 542.873 641.193 543.848 641.693 545.131C642.193 546.414 642.443 547.964 642.443 549.781C642.443 551.798 642.16 553.514 641.593 554.931C641.043 556.348 640.235 557.423 639.168 558.156C638.118 558.889 636.843 559.256 635.343 559.256ZM636.093 550.731C636.827 550.731 637.477 550.564 638.043 550.231C638.61 549.898 639.052 549.439 639.368 548.856C639.685 548.273 639.843 547.598 639.843 546.831C639.843 546.048 639.685 545.364 639.368 544.781C639.052 544.198 638.61 543.739 638.043 543.406C637.477 543.073 636.827 542.906 636.093 542.906C635.343 542.906 634.685 543.073 634.118 543.406C633.568 543.739 633.127 544.198 632.793 544.781C632.477 545.364 632.318 546.048 632.318 546.831C632.318 547.598 632.477 548.273 632.793 548.856C633.127 549.439 633.568 549.898 634.118 550.231C634.685 550.564 635.343 550.731 636.093 550.731ZM651.534 559.256C650.2 559.256 649.067 558.914 648.134 558.231C647.217 557.531 646.525 556.506 646.059 555.156C645.592 553.806 645.359 552.156 645.359 550.206C645.359 548.239 645.592 546.589 646.059 545.256C646.525 543.906 647.217 542.889 648.134 542.206C649.067 541.523 650.2 541.181 651.534 541.181C652.884 541.181 654.017 541.523 654.934 542.206C655.85 542.889 656.542 543.898 657.009 545.231C657.475 546.564 657.709 548.214 657.709 550.181C657.709 552.148 657.475 553.806 657.009 555.156C656.542 556.506 655.85 557.531 654.934 558.231C654.017 558.914 652.884 559.256 651.534 559.256ZM651.534 557.481C652.934 557.481 653.967 556.889 654.634 555.706C655.317 554.523 655.659 552.681 655.659 550.181C655.659 547.681 655.325 545.856 654.659 544.706C653.992 543.539 652.95 542.956 651.534 542.956C650.15 542.956 649.117 543.539 648.434 544.706C647.75 545.873 647.409 547.698 647.409 550.181C647.409 552.681 647.742 554.523 648.409 555.706C649.092 556.889 650.134 557.481 651.534 557.481ZM666.524 559.256C665.191 559.256 664.057 558.914 663.124 558.231C662.207 557.531 661.516 556.506 661.049 555.156C660.582 553.806 660.349 552.156 660.349 550.206C660.349 548.239 660.582 546.589 661.049 545.256C661.516 543.906 662.207 542.889 663.124 542.206C664.057 541.523 665.191 541.181 666.524 541.181C667.874 541.181 669.007 541.523 669.924 542.206C670.841 542.889 671.532 543.898 671.999 545.231C672.466 546.564 672.699 548.214 672.699 550.181C672.699 552.148 672.466 553.806 671.999 555.156C671.532 556.506 670.841 557.531 669.924 558.231C669.007 558.914 667.874 559.256 666.524 559.256ZM666.524 557.481C667.924 557.481 668.957 556.889 669.624 555.706C670.307 554.523 670.649 552.681 670.649 550.181C670.649 547.681 670.316 545.856 669.649 544.706C668.982 543.539 667.941 542.956 666.524 542.956C665.141 542.956 664.107 543.539 663.424 544.706C662.741 545.873 662.399 547.698 662.399 550.181C662.399 552.681 662.732 554.523 663.399 555.706C664.082 556.889 665.124 557.481 666.524 557.481ZM681.889 559.256C681.139 559.256 680.406 559.173 679.689 559.006C678.972 558.839 678.297 558.598 677.664 558.281C677.047 557.964 676.497 557.589 676.014 557.156L676.789 555.531C677.589 556.181 678.397 556.664 679.214 556.981C680.047 557.281 680.931 557.431 681.864 557.431C683.097 557.431 684.056 557.089 684.739 556.406C685.439 555.723 685.789 554.823 685.789 553.706C685.789 552.556 685.456 551.614 684.789 550.881C684.122 550.148 683.206 549.781 682.039 549.781C681.189 549.781 680.439 549.956 679.789 550.306C679.156 550.639 678.581 551.164 678.064 551.881H676.564V541.406H686.789V543.156H678.589V550.181H678.039C678.472 549.481 679.072 548.948 679.839 548.581C680.606 548.198 681.464 548.006 682.414 548.006C683.531 548.006 684.489 548.239 685.289 548.706C686.106 549.173 686.731 549.831 687.164 550.681C687.614 551.514 687.839 552.489 687.839 553.606C687.839 554.706 687.597 555.681 687.114 556.531C686.631 557.381 685.947 558.048 685.064 558.531C684.181 559.014 683.122 559.256 681.889 559.256Z" fill="white"/>
<path d="M582.513 275.273L583.413 270.723H581.188V269.248H583.688L584.813 263.473H581.688V261.998H585.063L585.938 257.648H587.513L586.663 261.998H590.638L591.488 257.648H593.088L592.238 261.998H594.438V263.473H591.938L590.813 269.248H593.938V270.723H590.563L589.663 275.273H588.063L588.938 270.723H584.988L584.113 275.273H582.513ZM585.263 269.248H589.213L590.363 263.473H586.388L585.263 269.248ZM597.478 275.273V257.648H608.378V259.373H599.528V265.523H607.878V267.248H599.528V275.273H597.478ZM611.175 275.273V257.648H618.225C620.025 257.648 621.425 258.048 622.425 258.848C623.425 259.648 623.925 260.782 623.925 262.248C623.925 263.348 623.6 264.265 622.95 264.998C622.316 265.732 621.45 266.215 620.35 266.448V266.098C621.183 266.198 621.9 266.44 622.5 266.823C623.1 267.19 623.558 267.682 623.875 268.298C624.191 268.898 624.35 269.607 624.35 270.423C624.35 271.473 624.116 272.365 623.65 273.098C623.2 273.815 622.541 274.357 621.675 274.723C620.808 275.09 619.758 275.273 618.525 275.273H611.175ZM613.175 273.623H618.325C618.858 273.623 619.333 273.582 619.75 273.498C620.183 273.415 620.558 273.29 620.875 273.123C621.191 272.94 621.458 272.723 621.675 272.473C621.891 272.223 622.05 271.923 622.15 271.573C622.266 271.223 622.325 270.832 622.325 270.398C622.325 269.948 622.266 269.557 622.15 269.223C622.05 268.873 621.891 268.573 621.675 268.323C621.458 268.057 621.191 267.84 620.875 267.673C620.558 267.507 620.183 267.382 619.75 267.298C619.333 267.215 618.858 267.173 618.325 267.173H613.175V273.623ZM613.175 265.523H617.925C619.225 265.523 620.208 265.257 620.875 264.723C621.558 264.19 621.9 263.423 621.9 262.423C621.9 261.39 621.558 260.615 620.875 260.098C620.208 259.565 619.225 259.298 617.925 259.298H613.175V265.523ZM628.069 275.273V257.648H634.019C635.936 257.648 637.552 257.99 638.869 258.673C640.202 259.34 641.211 260.332 641.894 261.648C642.594 262.948 642.944 264.548 642.944 266.448C642.944 268.348 642.594 269.957 641.894 271.273C641.211 272.59 640.202 273.59 638.869 274.273C637.552 274.94 635.936 275.273 634.019 275.273H628.069ZM630.119 273.523H633.869C636.186 273.523 637.911 272.932 639.044 271.748C640.194 270.565 640.769 268.798 640.769 266.448C640.769 264.098 640.194 262.34 639.044 261.173C637.894 259.99 636.169 259.398 633.869 259.398H630.119V273.523ZM646.699 275.273V273.723L652.724 267.223C653.29 266.607 653.749 266.032 654.099 265.498C654.449 264.948 654.707 264.415 654.874 263.898C655.04 263.382 655.124 262.857 655.124 262.323C655.124 261.323 654.815 260.565 654.199 260.048C653.599 259.515 652.715 259.248 651.549 259.248C650.649 259.248 649.807 259.415 649.024 259.748C648.257 260.065 647.524 260.565 646.824 261.248L646.049 259.648C646.699 258.982 647.524 258.448 648.524 258.048C649.54 257.632 650.607 257.423 651.724 257.423C652.907 257.423 653.907 257.607 654.724 257.973C655.54 258.34 656.157 258.882 656.574 259.598C656.99 260.298 657.199 261.157 657.199 262.173C657.199 262.707 657.132 263.232 656.999 263.748C656.882 264.248 656.69 264.757 656.424 265.273C656.174 265.773 655.849 266.29 655.449 266.823C655.065 267.357 654.599 267.907 654.049 268.473L648.749 274.098V273.523H657.924V275.273H646.699ZM666.939 275.498C665.606 275.498 664.472 275.157 663.539 274.473C662.622 273.773 661.931 272.748 661.464 271.398C660.997 270.048 660.764 268.398 660.764 266.448C660.764 264.482 660.997 262.832 661.464 261.498C661.931 260.148 662.622 259.132 663.539 258.448C664.472 257.765 665.606 257.423 666.939 257.423C668.289 257.423 669.422 257.765 670.339 258.448C671.256 259.132 671.947 260.14 672.414 261.473C672.881 262.807 673.114 264.457 673.114 266.423C673.114 268.39 672.881 270.048 672.414 271.398C671.947 272.748 671.256 273.773 670.339 274.473C669.422 275.157 668.289 275.498 666.939 275.498ZM666.939 273.723C668.339 273.723 669.372 273.132 670.039 271.948C670.722 270.765 671.064 268.923 671.064 266.423C671.064 263.923 670.731 262.098 670.064 260.948C669.397 259.782 668.356 259.198 666.939 259.198C665.556 259.198 664.522 259.782 663.839 260.948C663.156 262.115 662.814 263.94 662.814 266.423C662.814 268.923 663.147 270.765 663.814 271.948C664.497 273.132 665.539 273.723 666.939 273.723ZM676.604 275.273V257.648H687.729V259.373H678.604V265.473H687.204V267.198H678.604V273.548H687.729V275.273H676.604Z" fill="white"/>
<rect x="0.672241" y="567.656" width="1018" height="36" fill="#303030"/>
<path d="M13.2726 595.75L14.1726 591.2H11.9476V589.725H14.4476L15.5726 583.95H12.4476V582.475H15.8226L16.6976 578.125H18.2726L17.4226 582.475H21.3976L22.2476 578.125H23.8476L22.9976 582.475H25.1976V583.95H22.6976L21.5726 589.725H24.6976V591.2H21.3226L20.4226 595.75H18.8226L19.6976 591.2H15.7476L14.8726 595.75H13.2726ZM16.0226 589.725H19.9726L21.1226 583.95H17.1476L16.0226 589.725ZM33.3629 595.975C32.5795 595.975 31.8212 595.891 31.0879 595.725C30.3712 595.558 29.6962 595.325 29.0629 595.025C28.4295 594.708 27.8712 594.325 27.3879 593.875L28.1379 592.25C28.9545 592.916 29.7795 593.4 30.6129 593.7C31.4462 594 32.3462 594.15 33.3129 594.15C34.1629 594.15 34.8795 594.025 35.4629 593.775C36.0462 593.525 36.4879 593.158 36.7879 592.675C37.0879 592.175 37.2379 591.566 37.2379 590.85C37.2379 589.816 36.8962 589.033 36.2129 588.5C35.5295 587.966 34.5379 587.7 33.2379 587.7H30.6379V585.925H33.0629C33.8295 585.925 34.4795 585.791 35.0129 585.525C35.5629 585.258 35.9879 584.883 36.2879 584.4C36.5879 583.9 36.7379 583.3 36.7379 582.6C36.7379 581.666 36.4379 580.958 35.8379 580.475C35.2379 579.975 34.3712 579.725 33.2379 579.725C32.3045 579.725 31.4462 579.891 30.6629 580.225C29.8795 580.541 29.1379 581.041 28.4379 581.725L27.6879 580.125C28.3545 579.425 29.1879 578.883 30.1879 578.5C31.2045 578.1 32.2629 577.9 33.3629 577.9C34.4962 577.9 35.4629 578.083 36.2629 578.45C37.0795 578.8 37.7045 579.316 38.1379 580C38.5712 580.666 38.7879 581.475 38.7879 582.425C38.7879 583.508 38.4879 584.441 37.8879 585.225C37.2879 585.991 36.4712 586.516 35.4379 586.8V586.525C36.2545 586.658 36.9462 586.925 37.5129 587.325C38.0962 587.725 38.5379 588.241 38.8379 588.875C39.1379 589.491 39.2879 590.2 39.2879 591C39.2879 592.016 39.0462 592.9 38.5629 593.65C38.0962 594.383 37.4212 594.958 36.5379 595.375C35.6545 595.775 34.5962 595.975 33.3629 595.975ZM48.5531 595.975C47.2198 595.975 46.0864 595.633 45.1531 594.95C44.2364 594.25 43.5448 593.225 43.0781 591.875C42.6114 590.525 42.3781 588.875 42.3781 586.925C42.3781 584.958 42.6114 583.308 43.0781 581.975C43.5448 580.625 44.2364 579.608 45.1531 578.925C46.0864 578.241 47.2198 577.9 48.5531 577.9C49.9031 577.9 51.0364 578.241 51.9531 578.925C52.8698 579.608 53.5614 580.616 54.0281 581.95C54.4948 583.283 54.7281 584.933 54.7281 586.9C54.7281 588.866 54.4948 590.525 54.0281 591.875C53.5614 593.225 52.8698 594.25 51.9531 594.95C51.0364 595.633 49.9031 595.975 48.5531 595.975ZM48.5531 594.2C49.9531 594.2 50.9864 593.608 51.6531 592.425C52.3364 591.241 52.6781 589.4 52.6781 586.9C52.6781 584.4 52.3448 582.575 51.6781 581.425C51.0114 580.258 49.9698 579.675 48.5531 579.675C47.1698 579.675 46.1364 580.258 45.4531 581.425C44.7698 582.591 44.4281 584.416 44.4281 586.9C44.4281 589.4 44.7614 591.241 45.4281 592.425C46.1114 593.608 47.1531 594.2 48.5531 594.2ZM63.3433 595.975C62.56 595.975 61.8017 595.891 61.0683 595.725C60.3517 595.558 59.6767 595.325 59.0433 595.025C58.41 594.708 57.8517 594.325 57.3683 593.875L58.1183 592.25C58.935 592.916 59.76 593.4 60.5933 593.7C61.4267 594 62.3267 594.15 63.2933 594.15C64.1433 594.15 64.86 594.025 65.4433 593.775C66.0267 593.525 66.4683 593.158 66.7683 592.675C67.0683 592.175 67.2183 591.566 67.2183 590.85C67.2183 589.816 66.8767 589.033 66.1933 588.5C65.51 587.966 64.5183 587.7 63.2183 587.7H60.6183V585.925H63.0433C63.81 585.925 64.46 585.791 64.9933 585.525C65.5433 585.258 65.9683 584.883 66.2683 584.4C66.5683 583.9 66.7183 583.3 66.7183 582.6C66.7183 581.666 66.4183 580.958 65.8183 580.475C65.2183 579.975 64.3517 579.725 63.2183 579.725C62.285 579.725 61.4267 579.891 60.6433 580.225C59.86 580.541 59.1183 581.041 58.4183 581.725L57.6683 580.125C58.335 579.425 59.1683 578.883 60.1683 578.5C61.185 578.1 62.2433 577.9 63.3433 577.9C64.4767 577.9 65.4433 578.083 66.2433 578.45C67.06 578.8 67.685 579.316 68.1183 580C68.5517 580.666 68.7683 581.475 68.7683 582.425C68.7683 583.508 68.4683 584.441 67.8683 585.225C67.2683 585.991 66.4517 586.516 65.4183 586.8V586.525C66.235 586.658 66.9267 586.925 67.4933 587.325C68.0767 587.725 68.5183 588.241 68.8183 588.875C69.1183 589.491 69.2683 590.2 69.2683 591C69.2683 592.016 69.0267 592.9 68.5433 593.65C68.0767 594.383 67.4017 594.958 66.5183 595.375C65.635 595.775 64.5767 595.975 63.3433 595.975ZM78.5336 595.975C77.2002 595.975 76.0669 595.633 75.1336 594.95C74.2169 594.25 73.5252 593.225 73.0586 591.875C72.5919 590.525 72.3586 588.875 72.3586 586.925C72.3586 584.958 72.5919 583.308 73.0586 581.975C73.5252 580.625 74.2169 579.608 75.1336 578.925C76.0669 578.241 77.2002 577.9 78.5336 577.9C79.8836 577.9 81.0169 578.241 81.9336 578.925C82.8502 579.608 83.5419 580.616 84.0086 581.95C84.4752 583.283 84.7086 584.933 84.7086 586.9C84.7086 588.866 84.4752 590.525 84.0086 591.875C83.5419 593.225 82.8502 594.25 81.9336 594.95C81.0169 595.633 79.8836 595.975 78.5336 595.975ZM78.5336 594.2C79.9336 594.2 80.9669 593.608 81.6336 592.425C82.3169 591.241 82.6586 589.4 82.6586 586.9C82.6586 584.4 82.3252 582.575 81.6586 581.425C80.9919 580.258 79.9502 579.675 78.5336 579.675C77.1502 579.675 76.1169 580.258 75.4336 581.425C74.7502 582.591 74.4086 584.416 74.4086 586.9C74.4086 589.4 74.7419 591.241 75.4086 592.425C76.0919 593.608 77.1336 594.2 78.5336 594.2ZM93.3238 595.975C92.5405 595.975 91.7821 595.891 91.0488 595.725C90.3321 595.558 89.6571 595.325 89.0238 595.025C88.3905 594.708 87.8321 594.325 87.3488 593.875L88.0988 592.25C88.9155 592.916 89.7405 593.4 90.5738 593.7C91.4071 594 92.3071 594.15 93.2738 594.15C94.1238 594.15 94.8405 594.025 95.4238 593.775C96.0071 593.525 96.4488 593.158 96.7488 592.675C97.0488 592.175 97.1988 591.566 97.1988 590.85C97.1988 589.816 96.8571 589.033 96.1738 588.5C95.4905 587.966 94.4988 587.7 93.1988 587.7H90.5988V585.925H93.0238C93.7905 585.925 94.4405 585.791 94.9738 585.525C95.5238 585.258 95.9488 584.883 96.2488 584.4C96.5488 583.9 96.6988 583.3 96.6988 582.6C96.6988 581.666 96.3988 580.958 95.7988 580.475C95.1988 579.975 94.3321 579.725 93.1988 579.725C92.2655 579.725 91.4071 579.891 90.6238 580.225C89.8405 580.541 89.0988 581.041 88.3988 581.725L87.6488 580.125C88.3155 579.425 89.1488 578.883 90.1488 578.5C91.1655 578.1 92.2238 577.9 93.3238 577.9C94.4571 577.9 95.4238 578.083 96.2238 578.45C97.0405 578.8 97.6655 579.316 98.0988 580C98.5321 580.666 98.7488 581.475 98.7488 582.425C98.7488 583.508 98.4488 584.441 97.8488 585.225C97.2488 585.991 96.4321 586.516 95.3988 586.8V586.525C96.2155 586.658 96.9071 586.925 97.4738 587.325C98.0571 587.725 98.4988 588.241 98.7988 588.875C99.0988 589.491 99.2488 590.2 99.2488 591C99.2488 592.016 99.0071 592.9 98.5238 593.65C98.0571 594.383 97.3821 594.958 96.4988 595.375C95.6155 595.775 94.5571 595.975 93.3238 595.975ZM108.514 595.975C107.181 595.975 106.047 595.633 105.114 594.95C104.197 594.25 103.506 593.225 103.039 591.875C102.572 590.525 102.339 588.875 102.339 586.925C102.339 584.958 102.572 583.308 103.039 581.975C103.506 580.625 104.197 579.608 105.114 578.925C106.047 578.241 107.181 577.9 108.514 577.9C109.864 577.9 110.997 578.241 111.914 578.925C112.831 579.608 113.522 580.616 113.989 581.95C114.456 583.283 114.689 584.933 114.689 586.9C114.689 588.866 114.456 590.525 113.989 591.875C113.522 593.225 112.831 594.25 111.914 594.95C110.997 595.633 109.864 595.975 108.514 595.975ZM108.514 594.2C109.914 594.2 110.947 593.608 111.614 592.425C112.297 591.241 112.639 589.4 112.639 586.9C112.639 584.4 112.306 582.575 111.639 581.425C110.972 580.258 109.931 579.675 108.514 579.675C107.131 579.675 106.097 580.258 105.414 581.425C104.731 582.591 104.389 584.416 104.389 586.9C104.389 589.4 104.722 591.241 105.389 592.425C106.072 593.608 107.114 594.2 108.514 594.2Z" fill="white"/>
</svg>
