<svg width="1019" height="321" viewBox="0 0 1019 321" fill="none" xmlns="http://www.w3.org/2000/svg">
<path d="M113.581 56.5674H94.7428V75.4051H113.581V56.5674Z" fill="#EE1313"/>
<path d="M132.418 75.4072H113.58V94.245H132.418V75.4072Z" fill="#EE1313"/>
<path d="M151.256 94.2432H132.419V113.081H151.256V94.2432Z" fill="#EE1313"/>
<path d="M113.581 37.7275H94.7428V56.5653H113.581V37.7275Z" fill="#EE1313"/>
<path d="M132.418 56.5674H113.58V75.4051H132.418V56.5674Z" fill="#EE1313"/>
<path d="M151.256 75.4072H132.419V94.245H151.256V75.4072Z" fill="#EE1313"/>
<path d="M113.581 18.8955H94.7428V37.7332H113.581V18.8955Z" fill="#EE1313"/>
<path d="M132.418 37.7275H113.58V56.5653H132.418V37.7275Z" fill="#EE1313"/>
<path d="M151.256 56.5674H132.419V75.4051H151.256V56.5674Z" fill="#EE1313"/>
<path d="M113.581 0.0556641H94.7428V18.8934H113.581V0.0556641Z" fill="#EE1313"/>
<path d="M132.418 18.8955H113.58V37.7332H132.418V18.8955Z" fill="#EE1313"/>
<path d="M151.256 37.7275H132.419V56.5653H151.256V37.7275Z" fill="#EE1313"/>
<path d="M113.581 75.4072H94.7428V94.245H113.581V75.4072Z" fill="#EE1313"/>
<path d="M132.418 94.2432H113.58V113.081H132.418V94.2432Z" fill="#EE1313"/>
<path d="M151.256 113.079H132.418V131.917H151.256V113.079Z" fill="#EE1313"/>
<path d="M226.621 56.5674H207.783V75.4051H226.621V56.5674Z" fill="#EE1313"/>
<path d="M207.769 75.4072H188.931V94.245H207.769V75.4072Z" fill="#EE1313"/>
<path d="M188.931 94.2432H170.093V113.081H188.931V94.2432Z" fill="#EE1313"/>
<path d="M226.621 37.7275H207.783V56.5653H226.621V37.7275Z" fill="#EE1313"/>
<path d="M207.769 56.5674H188.931V75.4051H207.769V56.5674Z" fill="#EE1313"/>
<path d="M188.931 75.4072H170.093V94.245H188.931V75.4072Z" fill="#EE1313"/>
<path d="M226.621 18.8955H207.784V37.7332H226.621V18.8955Z" fill="#EE1313"/>
<path d="M207.769 37.7275H188.931V56.5653H207.769V37.7275Z" fill="#EE1313"/>
<path d="M188.931 56.5674H170.093V75.4051H188.931V56.5674Z" fill="#EE1313"/>
<path d="M226.621 0.0556641H207.784V18.8934H226.621V0.0556641Z" fill="#EE1313"/>
<path d="M207.769 18.8955H188.932V37.7332H207.769V18.8955Z" fill="#EE1313"/>
<path d="M188.931 37.7275H170.093V56.5653H188.931V37.7275Z" fill="#EE1313"/>
<path d="M226.621 75.4072H207.783V94.245H226.621V75.4072Z" fill="#EE1313"/>
<path d="M207.769 94.2432H188.931V113.081H207.769V94.2432Z" fill="#EE1313"/>
<path d="M188.931 113.079H170.093V131.917H188.931V113.079Z" fill="#EE1313"/>
<path d="M75.9047 207.286H57.067V226.124H75.9047V207.286Z" fill="#EE1313"/>
<path d="M94.7431 188.446H75.9054V207.284H94.7431V188.446Z" fill="#EE1313"/>
<path d="M113.581 169.61H94.7428V188.448H113.581V169.61Z" fill="#EE1313"/>
<path d="M57.0527 207.286H38.215V226.124H57.0527V207.286Z" fill="#EE1313"/>
<path d="M75.9045 188.446H57.0668V207.284H75.9045V188.446Z" fill="#EE1313"/>
<path d="M94.743 169.61H75.9053V188.448H94.743V169.61Z" fill="#EE1313"/>
<path d="M38.2153 207.286H19.3776V226.124H38.2153V207.286Z" fill="#EE1313"/>
<path d="M57.0524 188.446H38.2147V207.284H57.0524V188.446Z" fill="#EE1313"/>
<path d="M75.9045 169.61H57.0668V188.448H75.9045V169.61Z" fill="#EE1313"/>
<path d="M19.3774 207.286H0.539673V226.124H19.3774V207.286Z" fill="#EE1313"/>
<path d="M38.2153 188.446H19.3776V207.284H38.2153V188.446Z" fill="#EE1313"/>
<path d="M57.0524 169.61H38.2147V188.448H57.0524V169.61Z" fill="#EE1313"/>
<path d="M94.7431 207.286H75.9054V226.124H94.7431V207.286Z" fill="#EE1313"/>
<path d="M113.581 188.446H94.7428V207.284H113.581V188.446Z" fill="#EE1313"/>
<path d="M132.418 169.61H113.58V188.448H132.418V169.61Z" fill="#EE1313"/>
<path d="M264.296 207.286H245.459V226.124H264.296V207.286Z" fill="#EE1313"/>
<path d="M245.458 188.446H226.62V207.284H245.458V188.446Z" fill="#EE1313"/>
<path d="M226.607 169.61H207.769V188.448H226.607V169.61Z" fill="#EE1313"/>
<path d="M283.134 207.286H264.297V226.124H283.134V207.286Z" fill="#EE1313"/>
<path d="M264.296 188.446H245.459V207.284H264.296V188.446Z" fill="#EE1313"/>
<path d="M245.458 169.61H226.621V188.448H245.458V169.61Z" fill="#EE1313"/>
<path d="M301.973 207.286H283.135V226.124H301.973V207.286Z" fill="#EE1313"/>
<path d="M283.134 188.446H264.297V207.284H283.134V188.446Z" fill="#EE1313"/>
<path d="M264.296 169.61H245.459V188.448H264.296V169.61Z" fill="#EE1313"/>
<path d="M320.81 207.286H301.972V226.124H320.81V207.286Z" fill="#EE1313"/>
<path d="M301.973 188.446H283.135V207.284H301.973V188.446Z" fill="#EE1313"/>
<path d="M283.134 169.61H264.297V188.448H283.134V169.61Z" fill="#EE1313"/>
<path d="M245.458 207.286H226.621V226.124H245.458V207.286Z" fill="#EE1313"/>
<path d="M226.607 188.446H207.769V207.284H226.607V188.446Z" fill="#EE1313"/>
<path d="M207.769 169.61H188.931V188.448H207.769V169.61Z" fill="#EE1313"/>
<path d="M75.9045 131.935H57.0668V150.772H75.9045V131.935Z" fill="#EE1313"/>
<path d="M57.0664 113.095H38.2286V131.932H57.0664V113.095Z" fill="#EE1313"/>
<path d="M38.2153 94.2432H19.3776V113.081H38.2153V94.2432Z" fill="#EE1313"/>
<path d="M94.743 131.935H75.9053V150.772H94.743V131.935Z" fill="#EE1313"/>
<path d="M75.9047 113.095H57.067V131.932H75.9047V113.095Z" fill="#EE1313"/>
<path d="M57.0664 94.2432H38.2286V113.081H57.0664V94.2432Z" fill="#EE1313"/>
<path d="M113.581 131.935H94.7428V150.772H113.581V131.935Z" fill="#EE1313"/>
<path d="M94.7431 113.095H75.9054V131.932H94.7431V113.095Z" fill="#EE1313"/>
<path d="M75.9047 94.2432H57.067V113.081H75.9047V94.2432Z" fill="#EE1313"/>
<path d="M132.418 131.935H113.58V150.772H132.418V131.935Z" fill="#EE1313"/>
<path d="M113.581 113.095H94.7428V131.932H113.581V113.095Z" fill="#EE1313"/>
<path d="M94.7431 94.2432H75.9054V113.081H94.7431V94.2432Z" fill="#EE1313"/>
<path d="M57.0665 131.935H38.2288V150.772H57.0665V131.935Z" fill="#EE1313"/>
<path d="M38.2153 113.095H19.3776V131.932H38.2153V113.095Z" fill="#EE1313"/>
<path d="M19.392 94.2432H0.554321V113.081H19.392V94.2432Z" fill="#EE1313"/>
<path d="M264.296 131.935H245.459V150.772H264.296V131.935Z" fill="#EE1313"/>
<path d="M283.134 113.095H264.297V131.932H283.134V113.095Z" fill="#EE1313"/>
<path d="M301.973 94.2432H283.135V113.081H301.973V94.2432Z" fill="#EE1313"/>
<path d="M245.458 131.935H226.621V150.772H245.458V131.935Z" fill="#EE1313"/>
<path d="M264.296 113.095H245.459V131.932H264.296V113.095Z" fill="#EE1313"/>
<path d="M283.134 94.2432H264.297V113.081H283.134V94.2432Z" fill="#EE1313"/>
<path d="M226.621 131.935H207.784V150.772H226.621V131.935Z" fill="#EE1313"/>
<path d="M245.458 113.095H226.621V131.932H245.458V113.095Z" fill="#EE1313"/>
<path d="M264.296 94.2432H245.459V113.081H264.296V94.2432Z" fill="#EE1313"/>
<path d="M207.769 131.935H188.931V150.772H207.769V131.935Z" fill="#EE1313"/>
<path d="M226.621 113.095H207.783V131.932H226.621V113.095Z" fill="#EE1313"/>
<path d="M245.458 94.2432H226.621V113.081H245.458V94.2432Z" fill="#EE1313"/>
<path d="M283.134 131.935H264.297V150.772H283.134V131.935Z" fill="#EE1313"/>
<path d="M301.973 113.095H283.135V131.932H301.973V113.095Z" fill="#EE1313"/>
<path d="M320.81 94.2432H301.972V113.081H320.81V94.2432Z" fill="#EE1313"/>
<path d="M151.256 244.962H132.419V263.8H151.256V244.962Z" fill="#EE1313"/>
<path d="M132.418 263.813H113.58V282.651H132.418V263.813Z" fill="#EE1313"/>
<path d="M113.581 282.653H94.7428V301.491H113.581V282.653Z" fill="#EE1313"/>
<path d="M151.256 226.122H132.419V244.96H151.256V226.122Z" fill="#EE1313"/>
<path d="M132.418 244.962H113.58V263.8H132.418V244.962Z" fill="#EE1313"/>
<path d="M113.581 263.813H94.7428V282.651H113.581V263.813Z" fill="#EE1313"/>
<path d="M151.256 207.286H132.419V226.124H151.256V207.286Z" fill="#EE1313"/>
<path d="M132.418 226.122H113.58V244.96H132.418V226.122Z" fill="#EE1313"/>
<path d="M113.581 244.962H94.7428V263.8H113.581V244.962Z" fill="#EE1313"/>
<path d="M151.256 188.446H132.418V207.284H151.256V188.446Z" fill="#EE1313"/>
<path d="M132.418 207.286H113.58V226.124H132.418V207.286Z" fill="#EE1313"/>
<path d="M113.581 226.122H94.7428V244.96H113.581V226.122Z" fill="#EE1313"/>
<path d="M151.256 263.813H132.419V282.651H151.256V263.813Z" fill="#EE1313"/>
<path d="M132.418 282.653H113.58V301.491H132.418V282.653Z" fill="#EE1313"/>
<path d="M113.581 301.489H94.7428V320.327H113.581V301.489Z" fill="#EE1313"/>
<path d="M188.945 244.962H170.108V263.8H188.945V244.962Z" fill="#EE1313"/>
<path d="M207.783 263.813H188.945V282.651H207.783V263.813Z" fill="#EE1313"/>
<path d="M226.621 282.653H207.783V301.491H226.621V282.653Z" fill="#EE1313"/>
<path d="M188.945 226.122H170.108V244.96H188.945V226.122Z" fill="#EE1313"/>
<path d="M207.783 244.962H188.945V263.8H207.783V244.962Z" fill="#EE1313"/>
<path d="M226.621 263.813H207.783V282.651H226.621V263.813Z" fill="#EE1313"/>
<path d="M188.945 207.286H170.108V226.124H188.945V207.286Z" fill="#EE1313"/>
<path d="M207.783 226.122H188.945V244.96H207.783V226.122Z" fill="#EE1313"/>
<path d="M226.621 244.962H207.783V263.8H226.621V244.962Z" fill="#EE1313"/>
<path d="M188.945 188.446H170.108V207.284H188.945V188.446Z" fill="#EE1313"/>
<path d="M207.783 207.286H188.945V226.124H207.783V207.286Z" fill="#EE1313"/>
<path d="M226.621 226.122H207.783V244.96H226.621V226.122Z" fill="#EE1313"/>
<path d="M188.945 263.813H170.108V282.651H188.945V263.813Z" fill="#EE1313"/>
<path d="M207.783 282.653H188.945V301.491H207.783V282.653Z" fill="#EE1313"/>
<path d="M226.621 301.489H207.784V320.327H226.621V301.489Z" fill="#EE1313"/>
<path d="M566.276 263.808H528.615V75.5175H415.646V263.808H377.985V37.8564H566.261V263.794L566.276 263.808Z" fill="white"/>
<path d="M396.808 263.81H377.985V282.633H396.808V263.81Z" fill="white"/>
<path d="M415.632 263.81H396.808V282.633H415.632V263.81Z" fill="white"/>
<path d="M547.438 263.81H528.615V282.633H547.438V263.81Z" fill="white"/>
<path d="M566.261 263.81H547.438V282.633H566.261V263.81Z" fill="white"/>
<path d="M679.417 188.486V226.147H641.756V263.808H604.095V37.8564H641.756V188.472H679.417V188.486ZM792.386 37.8564V263.794H754.725V150.825H717.064V113.164H754.725V37.8564H792.386ZM679.417 150.825H717.078V188.486H679.417V150.825Z" fill="white"/>
<path d="M622.933 263.798H604.109V282.621H622.933V263.798Z" fill="white"/>
<path d="M641.756 263.798H622.933V282.621H641.756V263.798Z" fill="white"/>
<path d="M773.563 263.798H754.739V282.621H773.563V263.798Z" fill="white"/>
<path d="M792.385 263.798H773.562V282.621H792.385V263.798Z" fill="white"/>
<path d="M830.119 37.7861H980.849V75.476H867.794V188.531H980.849V226.221H867.794V263.896H830.104V37.7861H830.119ZM980.849 75.476H1018.54V188.531H980.849V75.476Z" fill="white"/>
<path d="M848.928 263.728H830.119V282.536H848.928V263.728Z" fill="white"/>
<path d="M867.737 263.728H848.928V282.536H867.737V263.728Z" fill="white"/>
</svg>
