<svg width="871" height="335" viewBox="0 0 871 335" fill="none" xmlns="http://www.w3.org/2000/svg">
<path d="M580.46 0.790039H290.464V112.004H580.46V0.790039Z" fill="#303030"/>
<path d="M870.453 112.009H580.458V223.222H870.453V112.009Z" fill="#303030"/>
<path d="M290.449 0.790039H0.453369V112.004H290.449V0.790039Z" fill="#303030"/>
<path d="M580.46 112.009H290.464V223.222H580.46V112.009Z" fill="#303030"/>
<path d="M870.453 223.22H580.458V334.433H870.453V223.22Z" fill="#303030"/>
<path d="M290.449 112.009H0.453369V223.222H290.449V112.009Z" fill="#303030"/>
<path d="M580.459 223.22H290.464V334.433H580.459V223.22Z" fill="#303030"/>
<path d="M290.449 223.22H0.453369V334.433H290.449V223.22Z" fill="#303030"/>
<path d="M870.453 0.790039H580.458V112.004H870.453V0.790039Z" fill="#303030"/>
<path d="M130.877 87.9775H116.387V102.468H130.877V87.9775Z" fill="white"/>
<path d="M145.367 102.47H130.877V116.96H145.367V102.47Z" fill="white"/>
<path d="M159.857 116.962H145.367V131.452H159.857V116.962Z" fill="white"/>
<path d="M130.877 73.4893H116.387V87.9795H130.877V73.4893Z" fill="white"/>
<path d="M145.367 87.9775H130.877V102.468H145.367V87.9775Z" fill="white"/>
<path d="M159.857 102.47H145.367V116.96H159.857V102.47Z" fill="white"/>
<path d="M130.877 59.001H116.387V73.4913H130.877V59.001Z" fill="white"/>
<path d="M145.367 73.4893H130.877V87.9795H145.367V73.4893Z" fill="white"/>
<path d="M159.857 87.9775H145.367V102.468H159.857V87.9775Z" fill="white"/>
<path d="M130.877 44.5088H116.387V58.9991H130.877V44.5088Z" fill="white"/>
<path d="M145.368 59.001H130.877V73.4913H145.368V59.001Z" fill="white"/>
<path d="M159.857 73.4893H145.367V87.9795H159.857V73.4893Z" fill="white"/>
<path d="M130.877 102.47H116.387V116.96H130.877V102.47Z" fill="white"/>
<path d="M145.367 116.962H130.877V131.452H145.367V116.962Z" fill="white"/>
<path d="M159.857 131.45H145.367V145.94H159.857V131.45Z" fill="white"/>
<path d="M217.829 87.9775H203.339V102.468H217.829V87.9775Z" fill="white"/>
<path d="M203.328 102.47H188.838V116.96H203.328V102.47Z" fill="white"/>
<path d="M188.838 116.962H174.347V131.452H188.838V116.962Z" fill="white"/>
<path d="M217.829 73.4893H203.339V87.9795H217.829V73.4893Z" fill="white"/>
<path d="M203.328 87.9775H188.838V102.468H203.328V87.9775Z" fill="white"/>
<path d="M188.838 102.47H174.347V116.96H188.838V102.47Z" fill="white"/>
<path d="M217.83 59.001H203.339V73.4913H217.83V59.001Z" fill="white"/>
<path d="M203.328 73.4893H188.838V87.9795H203.328V73.4893Z" fill="white"/>
<path d="M188.838 87.9775H174.347V102.468H188.838V87.9775Z" fill="white"/>
<path d="M217.83 44.5088H203.339V58.9991H217.83V44.5088Z" fill="white"/>
<path d="M203.328 59.001H188.838V73.4913H203.328V59.001Z" fill="white"/>
<path d="M188.838 73.4893H174.347V87.9795H188.838V73.4893Z" fill="white"/>
<path d="M217.829 102.47H203.339V116.96H217.829V102.47Z" fill="white"/>
<path d="M203.328 116.962H188.838V131.452H203.328V116.962Z" fill="white"/>
<path d="M188.838 131.45H174.347V145.94H188.838V131.45Z" fill="white"/>
<path d="M101.896 203.915H87.4055V218.405H101.896V203.915Z" fill="white"/>
<path d="M116.388 189.423H101.897V203.913H116.388V189.423Z" fill="white"/>
<path d="M130.877 174.935H116.387V189.425H130.877V174.935Z" fill="white"/>
<path d="M87.3948 203.915H72.9045V218.405H87.3948V203.915Z" fill="white"/>
<path d="M101.896 189.423H87.4055V203.913H101.896V189.423Z" fill="white"/>
<path d="M116.387 174.935H101.897V189.425H116.387V174.935Z" fill="white"/>
<path d="M72.9056 203.915H58.4153V218.405H72.9056V203.915Z" fill="white"/>
<path d="M87.3948 189.423H72.9045V203.913H87.3948V189.423Z" fill="white"/>
<path d="M101.896 174.935H87.4058V189.425H101.896V174.935Z" fill="white"/>
<path d="M58.4148 203.915H43.9246V218.405H58.4148V203.915Z" fill="white"/>
<path d="M72.9056 189.423H58.4153V203.913H72.9056V189.423Z" fill="white"/>
<path d="M87.3948 174.935H72.9045V189.425H87.3948V174.935Z" fill="white"/>
<path d="M116.388 203.915H101.897V218.405H116.388V203.915Z" fill="white"/>
<path d="M130.877 189.423H116.387V203.913H130.877V189.423Z" fill="white"/>
<path d="M145.367 174.935H130.877V189.425H145.367V174.935Z" fill="white"/>
<path d="M246.811 203.915H232.321V218.405H246.811V203.915Z" fill="white"/>
<path d="M232.322 189.423H217.831V203.913H232.322V189.423Z" fill="white"/>
<path d="M217.819 174.935H203.329V189.425H217.819V174.935Z" fill="white"/>
<path d="M261.301 203.915H246.81V218.405H261.301V203.915Z" fill="white"/>
<path d="M246.811 189.423H232.321V203.913H246.811V189.423Z" fill="white"/>
<path d="M232.321 174.935H217.831V189.425H232.321V174.935Z" fill="white"/>
<path d="M275.79 203.915H261.3V218.405H275.79V203.915Z" fill="white"/>
<path d="M261.301 189.423H246.81V203.913H261.301V189.423Z" fill="white"/>
<path d="M246.811 174.935H232.321V189.425H246.811V174.935Z" fill="white"/>
<path d="M290.282 203.915H275.792V218.405H290.282V203.915Z" fill="white"/>
<path d="M275.79 189.423H261.3V203.913H275.79V189.423Z" fill="white"/>
<path d="M261.301 174.935H246.81V189.425H261.301V174.935Z" fill="white"/>
<path d="M232.322 203.915H217.831V218.405H232.322V203.915Z" fill="white"/>
<path d="M217.819 189.423H203.328V203.913H217.819V189.423Z" fill="white"/>
<path d="M203.328 174.935H188.838V189.425H203.328V174.935Z" fill="white"/>
<path d="M101.896 145.95H87.4058V160.44H101.896V145.95Z" fill="white"/>
<path d="M87.4065 131.462H72.9163V145.952H87.4065V131.462Z" fill="white"/>
<path d="M72.9056 116.962H58.4153V131.452H72.9056V116.962Z" fill="white"/>
<path d="M116.387 145.95H101.897V160.44H116.387V145.95Z" fill="white"/>
<path d="M101.896 131.462H87.4058V145.952H101.896V131.462Z" fill="white"/>
<path d="M87.4065 116.962H72.9163V131.452H87.4065V116.962Z" fill="white"/>
<path d="M130.877 145.95H116.387V160.44H130.877V145.95Z" fill="white"/>
<path d="M116.387 131.462H101.897V145.952H116.387V131.462Z" fill="white"/>
<path d="M101.896 116.962H87.4055V131.452H101.896V116.962Z" fill="white"/>
<path d="M145.368 145.95H130.877V160.44H145.368V145.95Z" fill="white"/>
<path d="M130.877 131.462H116.387V145.952H130.877V131.462Z" fill="white"/>
<path d="M116.388 116.962H101.897V131.452H116.388V116.962Z" fill="white"/>
<path d="M87.4067 145.95H72.9164V160.44H87.4067V145.95Z" fill="white"/>
<path d="M72.9056 131.462H58.4153V145.952H72.9056V131.462Z" fill="white"/>
<path d="M58.4256 116.962H43.9353V131.452H58.4256V116.962Z" fill="white"/>
<path d="M246.811 145.95H232.321V160.44H246.811V145.95Z" fill="white"/>
<path d="M261.301 131.462H246.81V145.952H261.301V131.462Z" fill="white"/>
<path d="M275.79 116.962H261.3V131.452H275.79V116.962Z" fill="white"/>
<path d="M232.321 145.95H217.831V160.44H232.321V145.95Z" fill="white"/>
<path d="M246.811 131.462H232.321V145.952H246.811V131.462Z" fill="white"/>
<path d="M261.301 116.962H246.81V131.452H261.301V116.962Z" fill="white"/>
<path d="M217.83 145.95H203.339V160.44H217.83V145.95Z" fill="white"/>
<path d="M232.321 131.462H217.831V145.952H232.321V131.462Z" fill="white"/>
<path d="M246.811 116.962H232.321V131.452H246.811V116.962Z" fill="white"/>
<path d="M203.328 145.95H188.838V160.44H203.328V145.95Z" fill="white"/>
<path d="M217.83 131.462H203.339V145.952H217.83V131.462Z" fill="white"/>
<path d="M232.322 116.962H217.831V131.452H232.322V116.962Z" fill="white"/>
<path d="M261.301 145.95H246.81V160.44H261.301V145.95Z" fill="white"/>
<path d="M275.791 131.462H261.3V145.952H275.791V131.462Z" fill="white"/>
<path d="M290.282 116.962H275.792V131.452H290.282V116.962Z" fill="white"/>
<path d="M159.857 232.892H145.367V247.382H159.857V232.892Z" fill="white"/>
<path d="M145.368 247.396H130.877V261.886H145.368V247.396Z" fill="white"/>
<path d="M130.877 261.884H116.387V276.374H130.877V261.884Z" fill="white"/>
<path d="M159.857 218.403H145.367V232.894H159.857V218.403Z" fill="white"/>
<path d="M145.367 232.892H130.877V247.382H145.367V232.892Z" fill="white"/>
<path d="M130.877 247.396H116.387V261.886H130.877V247.396Z" fill="white"/>
<path d="M159.857 203.915H145.367V218.405H159.857V203.915Z" fill="white"/>
<path d="M145.367 218.403H130.877V232.894H145.367V218.403Z" fill="white"/>
<path d="M130.877 232.892H116.387V247.382H130.877V232.892Z" fill="white"/>
<path d="M159.857 189.423H145.367V203.913H159.857V189.423Z" fill="white"/>
<path d="M145.367 203.915H130.877V218.405H145.367V203.915Z" fill="white"/>
<path d="M130.877 218.403H116.387V232.894H130.877V218.403Z" fill="white"/>
<path d="M159.857 247.396H145.367V261.886H159.857V247.396Z" fill="white"/>
<path d="M145.368 261.884H130.877V276.374H145.368V261.884Z" fill="white"/>
<path d="M130.877 276.376H116.387V290.866H130.877V276.376Z" fill="white"/>
<path d="M188.849 232.892H174.359V247.382H188.849V232.892Z" fill="white"/>
<path d="M203.34 247.396H188.849V261.886H203.34V247.396Z" fill="white"/>
<path d="M217.83 261.884H203.339V276.374H217.83V261.884Z" fill="white"/>
<path d="M188.849 218.403H174.359V232.894H188.849V218.403Z" fill="white"/>
<path d="M203.34 232.892H188.849V247.382H203.34V232.892Z" fill="white"/>
<path d="M217.83 247.396H203.339V261.886H217.83V247.396Z" fill="white"/>
<path d="M188.849 203.915H174.359V218.405H188.849V203.915Z" fill="white"/>
<path d="M203.34 218.403H188.849V232.894H203.34V218.403Z" fill="white"/>
<path d="M217.829 232.892H203.339V247.382H217.829V232.892Z" fill="white"/>
<path d="M188.849 189.423H174.359V203.913H188.849V189.423Z" fill="white"/>
<path d="M203.34 203.915H188.849V218.405H203.34V203.915Z" fill="white"/>
<path d="M217.829 218.403H203.339V232.894H217.829V218.403Z" fill="white"/>
<path d="M188.849 247.396H174.359V261.886H188.849V247.396Z" fill="white"/>
<path d="M203.34 261.884H188.849V276.374H203.34V261.884Z" fill="white"/>
<path d="M217.83 276.376H203.339V290.866H217.83V276.376Z" fill="white"/>
<path d="M479.097 247.393H450.128V102.556H363.23V247.393H334.261V73.5869H479.086V247.382L479.097 247.393Z" fill="white"/>
<path d="M348.74 247.392H334.261V261.871H348.74V247.392Z" fill="white"/>
<path d="M363.219 247.392H348.74V261.871H363.219V247.392Z" fill="white"/>
<path d="M464.607 247.392H450.127V261.871H464.607V247.392Z" fill="white"/>
<path d="M479.087 247.392H464.607V261.871H479.087V247.392Z" fill="white"/>
<path d="M566.127 189.454V218.423H537.158V247.393H508.188V73.5869H537.158V189.443H566.127V189.454ZM653.025 73.5869V247.382H624.055V160.484H595.086V131.515H624.055V73.5869H653.025ZM566.127 160.484H595.097V189.454H566.127V160.484Z" fill="white"/>
<path d="M522.679 247.384H508.2V261.863H522.679V247.384Z" fill="white"/>
<path d="M537.158 247.384H522.679V261.863H537.158V247.384Z" fill="white"/>
<path d="M638.546 247.384H624.067V261.863H638.546V247.384Z" fill="white"/>
<path d="M653.026 247.384H638.547V261.863H653.026V247.384Z" fill="white"/>
<path d="M682.05 73.5322H797.994V102.524H711.03V189.488H797.994V218.479H711.03V247.46H682.038V73.5322H682.05ZM797.994 102.524H826.986V189.488H797.994V102.524Z" fill="white"/>
<path d="M696.517 247.329H682.049V261.797H696.517V247.329Z" fill="white"/>
<path d="M710.986 247.329H696.517V261.797H710.986V247.329Z" fill="white"/>
</svg>
