<svg width="868" height="333" viewBox="0 0 868 333" fill="none" xmlns="http://www.w3.org/2000/svg">
<path d="M578.618 0.344238H289.53V111.21H578.618V0.344238Z" fill="#303030"/>
<path d="M867.705 111.215H578.616V222.081H867.705V111.215Z" fill="#303030"/>
<path d="M289.515 0.344238H0.426147V111.21H289.515V0.344238Z" fill="#303030"/>
<path d="M578.618 111.215H289.53V222.081H578.618V111.215Z" fill="#303030"/>
<path d="M867.705 222.079H578.616V332.944H867.705V222.079Z" fill="#303030"/>
<path d="M289.515 111.215H0.426147V222.081H289.515V111.215Z" fill="#303030"/>
<path d="M578.618 222.079H289.529V332.944H578.618V222.079Z" fill="#303030"/>
<path d="M289.515 222.079H0.426147V332.944H289.515V222.079Z" fill="#303030"/>
<path d="M867.705 0.344238H578.616V111.21H867.705V0.344238Z" fill="#303030"/>
<path d="M130.441 87.2544H115.996V101.7H130.441V87.2544Z" fill="#249005"/>
<path d="M144.886 101.704H130.441V116.149H144.886V101.704Z" fill="#249005"/>
<path d="M159.331 116.149H144.886V130.594H159.331V116.149Z" fill="#249005"/>
<path d="M130.441 72.813H115.996V87.2582H130.441V72.813Z" fill="#249005"/>
<path d="M144.886 87.2544H130.441V101.7H144.886V87.2544Z" fill="#249005"/>
<path d="M159.331 101.704H144.886V116.149H159.331V101.704Z" fill="#249005"/>
<path d="M130.441 58.3677H115.996V72.8129H130.441V58.3677Z" fill="#249005"/>
<path d="M144.886 72.813H130.441V87.2582H144.886V72.813Z" fill="#249005"/>
<path d="M159.331 87.2544H144.886V101.7H159.331V87.2544Z" fill="#249005"/>
<path d="M130.441 43.9224H115.996V58.3675H130.441V43.9224Z" fill="#249005"/>
<path d="M144.886 58.3677H130.441V72.8129H144.886V58.3677Z" fill="#249005"/>
<path d="M159.331 72.813H144.886V87.2582H159.331V72.813Z" fill="#249005"/>
<path d="M130.441 101.704H115.996V116.149H130.441V101.704Z" fill="#249005"/>
<path d="M144.886 116.149H130.441V130.594H144.886V116.149Z" fill="#249005"/>
<path d="M159.331 130.594H144.886V145.039H159.331V130.594Z" fill="#249005"/>
<path d="M217.122 87.2544H202.677V101.7H217.122V87.2544Z" fill="#249005"/>
<path d="M202.666 101.704H188.22V116.149H202.666V101.704Z" fill="#249005"/>
<path d="M188.22 116.149H173.775V130.594H188.22V116.149Z" fill="#249005"/>
<path d="M217.122 72.813H202.677V87.2582H217.122V72.813Z" fill="#249005"/>
<path d="M202.666 87.2544H188.22V101.7H202.666V87.2544Z" fill="#249005"/>
<path d="M188.221 101.704H173.776V116.149H188.221V101.704Z" fill="#249005"/>
<path d="M217.122 58.3677H202.677V72.8129H217.122V58.3677Z" fill="#249005"/>
<path d="M202.666 72.813H188.22V87.2582H202.666V72.813Z" fill="#249005"/>
<path d="M188.221 87.2544H173.776V101.7H188.221V87.2544Z" fill="#249005"/>
<path d="M217.122 43.9224H202.677V58.3675H217.122V43.9224Z" fill="#249005"/>
<path d="M202.665 58.3677H188.22V72.8129H202.665V58.3677Z" fill="#249005"/>
<path d="M188.221 72.813H173.775V87.2582H188.221V72.813Z" fill="#249005"/>
<path d="M217.122 101.704H202.677V116.149H217.122V101.704Z" fill="#249005"/>
<path d="M202.665 116.149H188.22V130.594H202.665V116.149Z" fill="#249005"/>
<path d="M188.221 130.594H173.775V145.039H188.221V130.594Z" fill="#249005"/>
<path d="M101.551 202.829H87.1053V217.274H101.551V202.829Z" fill="#249005"/>
<path d="M115.996 188.383H101.551V202.828H115.996V188.383Z" fill="#249005"/>
<path d="M130.441 173.938H115.996V188.383H130.441V173.938Z" fill="#249005"/>
<path d="M87.095 202.829H72.6498V217.274H87.095V202.829Z" fill="#249005"/>
<path d="M101.551 188.383H87.1056V202.828H101.551V188.383Z" fill="#249005"/>
<path d="M115.996 173.938H101.551V188.383H115.996V173.938Z" fill="#249005"/>
<path d="M72.6511 202.829H58.2059V217.274H72.6511V202.829Z" fill="#249005"/>
<path d="M87.095 188.383H72.6498V202.828H87.095V188.383Z" fill="#249005"/>
<path d="M101.551 173.938H87.1053V188.383H101.551V173.938Z" fill="#249005"/>
<path d="M58.2053 202.829H43.7601V217.274H58.2053V202.829Z" fill="#249005"/>
<path d="M72.6511 188.383H58.2059V202.828H72.6511V188.383Z" fill="#249005"/>
<path d="M87.095 173.938H72.6498V188.383H87.095V173.938Z" fill="#249005"/>
<path d="M115.996 202.829H101.551V217.274H115.996V202.829Z" fill="#249005"/>
<path d="M130.441 188.383H115.996V202.828H130.441V188.383Z" fill="#249005"/>
<path d="M144.886 173.938H130.441V188.383H144.886V173.938Z" fill="#249005"/>
<path d="M246.012 202.829H231.567V217.274H246.012V202.829Z" fill="#249005"/>
<path d="M231.568 188.383H217.122V202.828H231.568V188.383Z" fill="#249005"/>
<path d="M217.111 173.938H202.666V188.383H217.111V173.938Z" fill="#249005"/>
<path d="M260.456 202.829H246.011V217.274H260.456V202.829Z" fill="#249005"/>
<path d="M246.012 188.383H231.567V202.828H246.012V188.383Z" fill="#249005"/>
<path d="M231.568 173.938H217.122V188.383H231.568V173.938Z" fill="#249005"/>
<path d="M274.902 202.829H260.456V217.274H274.902V202.829Z" fill="#249005"/>
<path d="M260.457 188.383H246.011V202.828H260.457V188.383Z" fill="#249005"/>
<path d="M246.012 173.938H231.567V188.383H246.012V173.938Z" fill="#249005"/>
<path d="M289.347 202.829H274.902V217.274H289.347V202.829Z" fill="#249005"/>
<path d="M274.901 188.383H260.456V202.828H274.901V188.383Z" fill="#249005"/>
<path d="M260.456 173.938H246.011V188.383H260.456V173.938Z" fill="#249005"/>
<path d="M231.568 202.829H217.122V217.274H231.568V202.829Z" fill="#249005"/>
<path d="M217.111 188.383H202.666V202.828H217.111V188.383Z" fill="#249005"/>
<path d="M202.665 173.938H188.22V188.383H202.665V173.938Z" fill="#249005"/>
<path d="M101.551 145.047H87.1056V159.493H101.551V145.047Z" fill="#249005"/>
<path d="M87.1067 130.602H72.6615V145.047H87.1067V130.602Z" fill="#249005"/>
<path d="M72.6511 116.149H58.2059V130.594H72.6511V116.149Z" fill="#249005"/>
<path d="M115.996 145.047H101.551V159.493H115.996V145.047Z" fill="#249005"/>
<path d="M101.551 130.602H87.1056V145.047H101.551V130.602Z" fill="#249005"/>
<path d="M87.1067 116.149H72.6615V130.594H87.1067V116.149Z" fill="#249005"/>
<path d="M130.441 145.047H115.996V159.493H130.441V145.047Z" fill="#249005"/>
<path d="M115.996 130.602H101.551V145.047H115.996V130.602Z" fill="#249005"/>
<path d="M101.551 116.149H87.1053V130.594H101.551V116.149Z" fill="#249005"/>
<path d="M144.886 145.047H130.441V159.493H144.886V145.047Z" fill="#249005"/>
<path d="M130.441 130.602H115.996V145.047H130.441V130.602Z" fill="#249005"/>
<path d="M115.996 116.149H101.551V130.594H115.996V116.149Z" fill="#249005"/>
<path d="M87.1067 145.047H72.6615V159.493H87.1067V145.047Z" fill="#249005"/>
<path d="M72.6511 130.602H58.2059V145.047H72.6511V130.602Z" fill="#249005"/>
<path d="M58.2161 116.149H43.7709V130.594H58.2161V116.149Z" fill="#249005"/>
<path d="M246.012 145.047H231.567V159.493H246.012V145.047Z" fill="#249005"/>
<path d="M260.457 130.602H246.011V145.047H260.457V130.602Z" fill="#249005"/>
<path d="M274.902 116.149H260.456V130.594H274.902V116.149Z" fill="#249005"/>
<path d="M231.568 145.047H217.122V159.493H231.568V145.047Z" fill="#249005"/>
<path d="M246.012 130.602H231.567V145.047H246.012V130.602Z" fill="#249005"/>
<path d="M260.456 116.149H246.011V130.594H260.456V116.149Z" fill="#249005"/>
<path d="M217.122 145.047H202.677V159.493H217.122V145.047Z" fill="#249005"/>
<path d="M231.568 130.602H217.122V145.047H231.568V130.602Z" fill="#249005"/>
<path d="M246.012 116.149H231.567V130.594H246.012V116.149Z" fill="#249005"/>
<path d="M202.666 145.047H188.22V159.493H202.666V145.047Z" fill="#249005"/>
<path d="M217.122 130.602H202.677V145.047H217.122V130.602Z" fill="#249005"/>
<path d="M231.568 116.149H217.122V130.594H231.568V116.149Z" fill="#249005"/>
<path d="M260.457 145.047H246.011V159.493H260.457V145.047Z" fill="#249005"/>
<path d="M274.901 130.602H260.456V145.047H274.901V130.602Z" fill="#249005"/>
<path d="M289.347 116.149H274.902V130.594H289.347V116.149Z" fill="#249005"/>
<path d="M159.331 231.715H144.886V246.161H159.331V231.715Z" fill="#249005"/>
<path d="M144.886 246.176H130.441V260.621H144.886V246.176Z" fill="#249005"/>
<path d="M130.441 260.618H115.996V275.063H130.441V260.618Z" fill="#249005"/>
<path d="M159.331 217.274H144.886V231.719H159.331V217.274Z" fill="#249005"/>
<path d="M144.886 231.715H130.441V246.161H144.886V231.715Z" fill="#249005"/>
<path d="M130.441 246.176H115.996V260.621H130.441V246.176Z" fill="#249005"/>
<path d="M159.331 202.829H144.886V217.274H159.331V202.829Z" fill="#249005"/>
<path d="M144.886 217.274H130.441V231.719H144.886V217.274Z" fill="#249005"/>
<path d="M130.441 231.715H115.996V246.161H130.441V231.715Z" fill="#249005"/>
<path d="M159.331 188.383H144.886V202.828H159.331V188.383Z" fill="#249005"/>
<path d="M144.886 202.829H130.441V217.274H144.886V202.829Z" fill="#249005"/>
<path d="M130.441 217.274H115.996V231.719H130.441V217.274Z" fill="#249005"/>
<path d="M159.331 246.176H144.886V260.621H159.331V246.176Z" fill="#249005"/>
<path d="M144.886 260.618H130.441V275.063H144.886V260.618Z" fill="#249005"/>
<path d="M130.441 275.063H115.996V289.508H130.441V275.063Z" fill="#249005"/>
<path d="M188.232 231.719H173.786V246.164H188.232V231.719Z" fill="#249005"/>
<path d="M202.677 246.176H188.232V260.621H202.677V246.176Z" fill="#249005"/>
<path d="M217.122 260.618H202.677V275.063H217.122V260.618Z" fill="#249005"/>
<path d="M188.232 217.274H173.786V231.719H188.232V217.274Z" fill="#249005"/>
<path d="M202.677 231.715H188.232V246.161H202.677V231.715Z" fill="#249005"/>
<path d="M217.122 246.176H202.677V260.621H217.122V246.176Z" fill="#249005"/>
<path d="M188.232 202.829H173.786V217.274H188.232V202.829Z" fill="#249005"/>
<path d="M202.677 217.274H188.232V231.719H202.677V217.274Z" fill="#249005"/>
<path d="M217.122 231.715H202.677V246.161H217.122V231.715Z" fill="#249005"/>
<path d="M188.232 188.383H173.786V202.828H188.232V188.383Z" fill="#249005"/>
<path d="M202.677 202.829H188.232V217.274H202.677V202.829Z" fill="#249005"/>
<path d="M217.122 217.274H202.677V231.719H217.122V217.274Z" fill="#249005"/>
<path d="M188.232 246.172H173.786V260.618H188.232V246.172Z" fill="#249005"/>
<path d="M202.677 260.618H188.232V275.063H202.677V260.618Z" fill="#249005"/>
<path d="M217.122 275.063H202.677V289.508H217.122V275.063Z" fill="#249005"/>
<path d="M477.572 246.173H448.693V101.79H362.067V246.173H333.188V72.9106H477.561V246.162L477.572 246.173Z" fill="white"/>
<path d="M347.623 246.172H333.188V260.607H347.623V246.172Z" fill="white"/>
<path d="M362.057 246.172H347.622V260.607H362.057V246.172Z" fill="white"/>
<path d="M463.127 246.172H448.693V260.607H463.127V246.172Z" fill="white"/>
<path d="M477.561 246.172H463.127V260.607H477.561V246.172Z" fill="white"/>
<path d="M564.33 188.415V217.294H535.451V246.173H506.573V72.9106H535.451V188.404H564.33V188.415ZM650.956 72.9106V246.162H622.077V159.536H593.198V130.657H622.077V72.9106H650.956ZM564.33 159.536H593.209V188.415H564.33V159.536Z" fill="white"/>
<path d="M521.019 246.165H506.584V260.599H521.019V246.165Z" fill="white"/>
<path d="M535.452 246.165H521.017V260.599H535.452V246.165Z" fill="white"/>
<path d="M636.522 246.165H622.088V260.599H636.522V246.165Z" fill="white"/>
<path d="M650.957 246.165H636.523V260.599H650.957V246.165Z" fill="white"/>
<path d="M679.89 72.856H795.472V101.757H708.78V188.449H795.472V217.35H708.78V246.24H679.879V72.856H679.89ZM795.472 101.757H824.373V188.449H795.472V101.757Z" fill="white"/>
<path d="M694.313 246.11H679.89V260.533H694.313V246.11Z" fill="white"/>
<path d="M708.736 246.11H694.313V260.533H708.736V246.11Z" fill="white"/>
</svg>
