<svg width="871" height="188" viewBox="0 0 871 188" fill="none" xmlns="http://www.w3.org/2000/svg">
<path d="M580.473 0.102539H290.478V62.6586H580.473V0.102539Z" fill="#303030"/>
<path d="M870.467 62.6611H580.472V125.217H870.467V62.6611Z" fill="#303030"/>
<path d="M290.463 0.102539H0.467041V62.6586H290.463V0.102539Z" fill="#303030"/>
<path d="M580.474 62.6611H290.478V125.217H580.474V62.6611Z" fill="#303030"/>
<path d="M870.467 125.216H580.472V187.772H870.467V125.216Z" fill="#303030"/>
<path d="M290.463 62.6611H0.467041V125.217H290.463V62.6611Z" fill="#303030"/>
<path d="M580.474 125.216H290.478V187.772H580.474V125.216Z" fill="#303030"/>
<path d="M290.463 125.216H0.467041V187.772H290.463V125.216Z" fill="#303030"/>
<path d="M870.467 0.102539H580.472V62.6586H870.467V0.102539Z" fill="#303030"/>
<path d="M130.89 49.1416H116.4V57.2923H130.89V49.1416Z" fill="white"/>
<path d="M145.38 57.2979H130.89V65.4486H145.38V57.2979Z" fill="white"/>
<path d="M159.871 65.4463H145.38V73.597H159.871V65.4463Z" fill="white"/>
<path d="M130.89 40.9932H116.4V49.1439H130.89V40.9932Z" fill="white"/>
<path d="M145.38 49.1416H130.89V57.2923H145.38V49.1416Z" fill="white"/>
<path d="M159.871 57.2979H145.38V65.4486H159.871V57.2979Z" fill="white"/>
<path d="M130.89 32.8447H116.4V40.9954H130.89V32.8447Z" fill="white"/>
<path d="M145.38 40.9932H130.89V49.1439H145.38V40.9932Z" fill="white"/>
<path d="M159.871 49.1416H145.38V57.2923H159.871V49.1416Z" fill="white"/>
<path d="M130.89 24.6924H116.4V32.8431H130.89V24.6924Z" fill="white"/>
<path d="M145.38 32.8447H130.89V40.9954H145.38V32.8447Z" fill="white"/>
<path d="M159.871 40.9932H145.38V49.1439H159.871V40.9932Z" fill="white"/>
<path d="M130.89 57.2979H116.4V65.4486H130.89V57.2979Z" fill="white"/>
<path d="M145.38 65.4463H130.89V73.597H145.38V65.4463Z" fill="white"/>
<path d="M159.871 73.5947H145.38V81.7454H159.871V73.5947Z" fill="white"/>
<path d="M217.843 49.1416H203.353V57.2923H217.843V49.1416Z" fill="white"/>
<path d="M203.34 57.2979H188.85V65.4486H203.34V57.2979Z" fill="white"/>
<path d="M188.851 65.4463H174.361V73.597H188.851V65.4463Z" fill="white"/>
<path d="M217.843 40.9932H203.353V49.1439H217.843V40.9932Z" fill="white"/>
<path d="M203.34 49.1416H188.85V57.2923H203.34V49.1416Z" fill="white"/>
<path d="M188.851 57.2979H174.361V65.4486H188.851V57.2979Z" fill="white"/>
<path d="M217.843 32.8447H203.353V40.9954H217.843V32.8447Z" fill="white"/>
<path d="M203.34 40.9932H188.85V49.1439H203.34V40.9932Z" fill="white"/>
<path d="M188.851 49.1416H174.361V57.2923H188.851V49.1416Z" fill="white"/>
<path d="M217.843 24.6924H203.353V32.8431H217.843V24.6924Z" fill="white"/>
<path d="M203.34 32.8447H188.85V40.9954H203.34V32.8447Z" fill="white"/>
<path d="M188.851 40.9932H174.361V49.1439H188.851V40.9932Z" fill="white"/>
<path d="M217.843 57.2979H203.353V65.4486H217.843V57.2979Z" fill="white"/>
<path d="M203.34 65.4463H188.85V73.597H203.34V65.4463Z" fill="white"/>
<path d="M188.851 73.5947H174.361V81.7454H188.851V73.5947Z" fill="white"/>
<path d="M101.909 114.356H87.4182V122.507H101.909V114.356Z" fill="white"/>
<path d="M116.4 106.204H101.909V114.355H116.4V106.204Z" fill="white"/>
<path d="M130.89 98.0557H116.4V106.206H130.89V98.0557Z" fill="white"/>
<path d="M87.4078 114.356H72.9172V122.507H87.4078V114.356Z" fill="white"/>
<path d="M101.909 106.204H87.4182V114.355H101.909V106.204Z" fill="white"/>
<path d="M116.4 98.0557H101.909V106.206H116.4V98.0557Z" fill="white"/>
<path d="M72.9175 114.356H58.427V122.507H72.9175V114.356Z" fill="white"/>
<path d="M87.4078 106.204H72.9172V114.355H87.4078V106.204Z" fill="white"/>
<path d="M101.909 98.0557H87.4182V106.206H101.909V98.0557Z" fill="white"/>
<path d="M58.4273 114.356H43.9368V122.507H58.4273V114.356Z" fill="white"/>
<path d="M72.9175 106.204H58.427V114.355H72.9175V106.204Z" fill="white"/>
<path d="M87.4078 98.0557H72.9172V106.206H87.4078V98.0557Z" fill="white"/>
<path d="M116.4 114.356H101.909V122.507H116.4V114.356Z" fill="white"/>
<path d="M130.89 106.204H116.4V114.355H130.89V106.204Z" fill="white"/>
<path d="M145.38 98.0557H130.89V106.206H145.38V98.0557Z" fill="white"/>
<path d="M246.824 114.356H232.333V122.507H246.824V114.356Z" fill="white"/>
<path d="M232.334 106.204H217.843V114.355H232.334V106.204Z" fill="white"/>
<path d="M217.833 98.0557H203.342V106.206H217.833V98.0557Z" fill="white"/>
<path d="M261.313 114.356H246.823V122.507H261.313V114.356Z" fill="white"/>
<path d="M246.824 106.204H232.333V114.355H246.824V106.204Z" fill="white"/>
<path d="M232.334 98.0557H217.843V106.206H232.334V98.0557Z" fill="white"/>
<path d="M275.803 114.356H261.313V122.507H275.803V114.356Z" fill="white"/>
<path d="M261.313 106.204H246.823V114.355H261.313V106.204Z" fill="white"/>
<path d="M246.824 98.0557H232.333V106.206H246.824V98.0557Z" fill="white"/>
<path d="M290.294 114.356H275.804V122.507H290.294V114.356Z" fill="white"/>
<path d="M275.803 106.204H261.313V114.355H275.803V106.204Z" fill="white"/>
<path d="M261.313 98.0557H246.823V106.206H261.313V98.0557Z" fill="white"/>
<path d="M232.334 114.356H217.843V122.507H232.334V114.356Z" fill="white"/>
<path d="M217.833 106.204H203.342V114.355H217.833V106.204Z" fill="white"/>
<path d="M203.34 98.0557H188.85V106.206H203.34V98.0557Z" fill="white"/>
<path d="M101.909 81.751H87.4182V89.9017H101.909V81.751Z" fill="white"/>
<path d="M87.4195 73.6025H72.929V81.7533H87.4195V73.6025Z" fill="white"/>
<path d="M72.9175 65.4463H58.427V73.597H72.9175V65.4463Z" fill="white"/>
<path d="M116.4 81.751H101.909V89.9017H116.4V81.751Z" fill="white"/>
<path d="M101.909 73.6025H87.4182V81.7533H101.909V73.6025Z" fill="white"/>
<path d="M87.4195 65.4463H72.929V73.597H87.4195V65.4463Z" fill="white"/>
<path d="M130.89 81.751H116.4V89.9017H130.89V81.751Z" fill="white"/>
<path d="M116.4 73.6025H101.909V81.7533H116.4V73.6025Z" fill="white"/>
<path d="M101.909 65.4463H87.4182V73.597H101.909V65.4463Z" fill="white"/>
<path d="M145.38 81.751H130.89V89.9017H145.38V81.751Z" fill="white"/>
<path d="M130.89 73.6025H116.4V81.7533H130.89V73.6025Z" fill="white"/>
<path d="M116.4 65.4463H101.909V73.597H116.4V65.4463Z" fill="white"/>
<path d="M87.4195 81.751H72.929V89.9017H87.4195V81.751Z" fill="white"/>
<path d="M72.9175 73.6025H58.427V81.7533H72.9175V73.6025Z" fill="white"/>
<path d="M58.438 65.4463H43.9475V73.597H58.438V65.4463Z" fill="white"/>
<path d="M246.824 81.751H232.333V89.9017H246.824V81.751Z" fill="white"/>
<path d="M261.313 73.6025H246.823V81.7533H261.313V73.6025Z" fill="white"/>
<path d="M275.803 65.4463H261.313V73.597H275.803V65.4463Z" fill="white"/>
<path d="M232.334 81.751H217.843V89.9017H232.334V81.751Z" fill="white"/>
<path d="M246.824 73.6025H232.333V81.7533H246.824V73.6025Z" fill="white"/>
<path d="M261.313 65.4463H246.823V73.597H261.313V65.4463Z" fill="white"/>
<path d="M217.843 81.751H203.353V89.9017H217.843V81.751Z" fill="white"/>
<path d="M232.334 73.6025H217.843V81.7533H232.334V73.6025Z" fill="white"/>
<path d="M246.824 65.4463H232.333V73.597H246.824V65.4463Z" fill="white"/>
<path d="M203.34 81.751H188.85V89.9017H203.34V81.751Z" fill="white"/>
<path d="M217.843 73.6025H203.353V81.7533H217.843V73.6025Z" fill="white"/>
<path d="M232.334 65.4463H217.843V73.597H232.334V65.4463Z" fill="white"/>
<path d="M261.313 81.751H246.823V89.9017H261.313V81.751Z" fill="white"/>
<path d="M275.803 73.6025H261.313V81.7533H275.803V73.6025Z" fill="white"/>
<path d="M290.294 65.4463H275.804V73.597H290.294V65.4463Z" fill="white"/>
<path d="M159.871 130.657H145.38V138.808H159.871V130.657Z" fill="white"/>
<path d="M145.38 138.813H130.89V146.964H145.38V138.813Z" fill="white"/>
<path d="M130.89 146.966H116.4V155.117H130.89V146.966Z" fill="white"/>
<path d="M159.871 122.505H145.38V130.656H159.871V122.505Z" fill="white"/>
<path d="M145.38 130.657H130.89V138.808H145.38V130.657Z" fill="white"/>
<path d="M130.89 138.813H116.4V146.964H130.89V138.813Z" fill="white"/>
<path d="M159.871 114.356H145.38V122.507H159.871V114.356Z" fill="white"/>
<path d="M145.38 122.505H130.89V130.656H145.38V122.505Z" fill="white"/>
<path d="M130.89 130.657H116.4V138.808H130.89V130.657Z" fill="white"/>
<path d="M159.871 106.204H145.38V114.355H159.871V106.204Z" fill="white"/>
<path d="M145.38 114.356H130.89V122.507H145.38V114.356Z" fill="white"/>
<path d="M130.89 122.505H116.4V130.656H130.89V122.505Z" fill="white"/>
<path d="M159.871 138.813H145.38V146.964H159.871V138.813Z" fill="white"/>
<path d="M145.38 146.966H130.89V155.117H145.38V146.966Z" fill="white"/>
<path d="M130.89 155.114H116.4V163.265H130.89V155.114Z" fill="white"/>
<path d="M188.862 130.657H174.371V138.808H188.862V130.657Z" fill="white"/>
<path d="M203.352 138.813H188.862V146.964H203.352V138.813Z" fill="white"/>
<path d="M217.843 146.966H203.353V155.117H217.843V146.966Z" fill="white"/>
<path d="M188.862 122.505H174.371V130.656H188.862V122.505Z" fill="white"/>
<path d="M203.352 130.657H188.862V138.808H203.352V130.657Z" fill="white"/>
<path d="M217.843 138.813H203.353V146.964H217.843V138.813Z" fill="white"/>
<path d="M188.862 114.356H174.371V122.507H188.862V114.356Z" fill="white"/>
<path d="M203.352 122.505H188.862V130.656H203.352V122.505Z" fill="white"/>
<path d="M217.843 130.657H203.353V138.808H217.843V130.657Z" fill="white"/>
<path d="M188.862 106.204H174.371V114.355H188.862V106.204Z" fill="white"/>
<path d="M203.352 114.356H188.862V122.507H203.352V114.356Z" fill="white"/>
<path d="M217.843 122.505H203.353V130.656H217.843V122.505Z" fill="white"/>
<path d="M188.862 138.813H174.371V146.964H188.862V138.813Z" fill="white"/>
<path d="M203.352 146.966H188.862V155.117H203.352V146.966Z" fill="white"/>
<path d="M217.843 155.114H203.353V163.265H217.843V155.114Z" fill="white"/>
<path d="M479.11 138.815H450.141V57.3467H363.243V138.815H334.274V41.0518H479.099V138.809L479.11 138.815Z" fill="white"/>
<path d="M348.753 138.817H334.274V146.962H348.753V138.817Z" fill="white"/>
<path d="M363.233 138.817H348.753V146.962H363.233V138.817Z" fill="white"/>
<path d="M464.62 138.817H450.141V146.962H464.62V138.817Z" fill="white"/>
<path d="M479.1 138.817H464.62V146.962H479.1V138.817Z" fill="white"/>
<path d="M566.14 106.221V122.516H537.171V138.811H508.201V41.0479H537.171V106.215H566.14V106.221ZM653.038 41.0479V138.805H624.068V89.9264H595.099V73.6315H624.068V41.0479H653.038ZM566.14 89.9264H595.11V106.221H566.14V89.9264Z" fill="white"/>
<path d="M522.693 138.806H508.213V146.95H522.693V138.806Z" fill="white"/>
<path d="M537.171 138.806H522.692V146.95H537.171V138.806Z" fill="white"/>
<path d="M638.559 138.806H624.079V146.95H638.559V138.806Z" fill="white"/>
<path d="M653.039 138.806H638.56V146.95H653.039V138.806Z" fill="white"/>
<path d="M682.063 41.0205H798.007V57.3279H711.043V106.244H798.007V122.551H711.043V138.852H682.052V41.0205H682.063ZM798.007 57.3279H826.999V106.244H798.007V57.3279Z" fill="white"/>
<path d="M696.531 138.778H682.062V146.917H696.531V138.778Z" fill="white"/>
<path d="M710.999 138.778H696.53V146.917H710.999V138.778Z" fill="white"/>
</svg>
