<svg width="871" height="335" viewBox="0 0 871 335" fill="none" xmlns="http://www.w3.org/2000/svg">
<path d="M580.983 0.908203H290.987V112.122H580.983V0.908203Z" fill="white"/>
<path d="M870.977 112.127H580.981V223.34H870.977V112.127Z" fill="white"/>
<path d="M290.972 0.908203H0.97644V112.122H290.972V0.908203Z" fill="white"/>
<path d="M580.983 112.127H290.987V223.34H580.983V112.127Z" fill="white"/>
<path d="M870.977 223.342H580.981V334.555H870.977V223.342Z" fill="white"/>
<path d="M290.972 112.127H0.97644V223.34H290.972V112.127Z" fill="white"/>
<path d="M580.983 223.342H290.987V334.555H580.983V223.342Z" fill="white"/>
<path d="M290.972 223.342H0.97644V334.555H290.972V223.342Z" fill="white"/>
<path d="M870.977 0.908203H580.981V112.122H870.977V0.908203Z" fill="white"/>
<path d="M131.4 88.0957H116.91V102.586H131.4V88.0957Z" fill="#303030"/>
<path d="M145.89 102.588H131.4V117.078H145.89V102.588Z" fill="#303030"/>
<path d="M160.38 117.076H145.89V131.566H160.38V117.076Z" fill="#303030"/>
<path d="M131.4 73.6074H116.91V88.0977H131.4V73.6074Z" fill="#303030"/>
<path d="M145.89 88.0957H131.4V102.586H145.89V88.0957Z" fill="#303030"/>
<path d="M160.38 102.588H145.89V117.078H160.38V102.588Z" fill="#303030"/>
<path d="M131.4 59.1152H116.909V73.6055H131.4V59.1152Z" fill="#303030"/>
<path d="M145.89 73.6074H131.4V88.0977H145.89V73.6074Z" fill="#303030"/>
<path d="M160.38 88.0957H145.89V102.586H160.38V88.0957Z" fill="#303030"/>
<path d="M131.4 44.627H116.909V59.1172H131.4V44.627Z" fill="#303030"/>
<path d="M145.89 59.1152H131.4V73.6055H145.89V59.1152Z" fill="#303030"/>
<path d="M160.38 73.6074H145.89V88.0977H160.38V73.6074Z" fill="#303030"/>
<path d="M131.4 102.588H116.91V117.078H131.4V102.588Z" fill="#303030"/>
<path d="M145.89 117.076H131.4V131.566H145.89V117.076Z" fill="#303030"/>
<path d="M160.38 131.568H145.89V146.059H160.38V131.568Z" fill="#303030"/>
<path d="M218.353 88.0957H203.863V102.586H218.353V88.0957Z" fill="#303030"/>
<path d="M203.851 102.588H189.361V117.078H203.851V102.588Z" fill="#303030"/>
<path d="M189.36 117.076H174.87V131.566H189.36V117.076Z" fill="#303030"/>
<path d="M218.353 73.6074H203.863V88.0977H218.353V73.6074Z" fill="#303030"/>
<path d="M203.851 88.0957H189.361V102.586H203.851V88.0957Z" fill="#303030"/>
<path d="M189.36 102.588H174.87V117.078H189.36V102.588Z" fill="#303030"/>
<path d="M218.353 59.1152H203.863V73.6055H218.353V59.1152Z" fill="#303030"/>
<path d="M203.851 73.6074H189.361V88.0977H203.851V73.6074Z" fill="#303030"/>
<path d="M189.36 88.0957H174.87V102.586H189.36V88.0957Z" fill="#303030"/>
<path d="M218.353 44.627H203.863V59.1172H218.353V44.627Z" fill="#303030"/>
<path d="M203.851 59.1152H189.361V73.6055H203.851V59.1152Z" fill="#303030"/>
<path d="M189.36 73.6074H174.87V88.0977H189.36V73.6074Z" fill="#303030"/>
<path d="M218.353 102.588H203.863V117.078H218.353V102.588Z" fill="#303030"/>
<path d="M203.851 117.076H189.361V131.566H203.851V117.076Z" fill="#303030"/>
<path d="M189.36 131.568H174.87V146.059H189.36V131.568Z" fill="#303030"/>
<path d="M102.419 204.029H87.9286V218.52H102.419V204.029Z" fill="#303030"/>
<path d="M116.91 189.541H102.42V204.031H116.91V189.541Z" fill="#303030"/>
<path d="M131.4 175.053H116.909V189.543H131.4V175.053Z" fill="#303030"/>
<path d="M87.9179 204.029H73.4276V218.52H87.9179V204.029Z" fill="#303030"/>
<path d="M102.419 189.541H87.9286V204.031H102.419V189.541Z" fill="#303030"/>
<path d="M116.91 175.053H102.42V189.543H116.91V175.053Z" fill="#303030"/>
<path d="M73.4283 204.029H58.938V218.52H73.4283V204.029Z" fill="#303030"/>
<path d="M87.9179 189.541H73.4276V204.031H87.9179V189.541Z" fill="#303030"/>
<path d="M102.419 175.053H87.9286V189.543H102.419V175.053Z" fill="#303030"/>
<path d="M58.9377 204.029H44.4474V218.52H58.9377V204.029Z" fill="#303030"/>
<path d="M73.4283 189.541H58.938V204.031H73.4283V189.541Z" fill="#303030"/>
<path d="M87.9179 175.053H73.4276V189.543H87.9179V175.053Z" fill="#303030"/>
<path d="M116.91 204.029H102.42V218.52H116.91V204.029Z" fill="#303030"/>
<path d="M131.4 189.541H116.909V204.031H131.4V189.541Z" fill="#303030"/>
<path d="M145.89 175.053H131.4V189.543H145.89V175.053Z" fill="#303030"/>
<path d="M247.334 204.029H232.844V218.52H247.334V204.029Z" fill="#303030"/>
<path d="M232.844 189.541H218.354V204.031H232.844V189.541Z" fill="#303030"/>
<path d="M218.342 175.053H203.852V189.543H218.342V175.053Z" fill="#303030"/>
<path d="M261.823 204.029H247.333V218.52H261.823V204.029Z" fill="#303030"/>
<path d="M247.334 189.541H232.844V204.031H247.334V189.541Z" fill="#303030"/>
<path d="M232.844 175.053H218.354V189.543H232.844V175.053Z" fill="#303030"/>
<path d="M276.313 204.029H261.823V218.52H276.313V204.029Z" fill="#303030"/>
<path d="M261.823 189.541H247.333V204.031H261.823V189.541Z" fill="#303030"/>
<path d="M247.334 175.053H232.844V189.543H247.334V175.053Z" fill="#303030"/>
<path d="M290.805 204.029H276.314V218.52H290.805V204.029Z" fill="#303030"/>
<path d="M276.313 189.541H261.823V204.031H276.313V189.541Z" fill="#303030"/>
<path d="M261.823 175.053H247.333V189.543H261.823V175.053Z" fill="#303030"/>
<path d="M232.844 204.029H218.354V218.52H232.844V204.029Z" fill="#303030"/>
<path d="M218.342 189.541H203.852V204.031H218.342V189.541Z" fill="#303030"/>
<path d="M203.851 175.053H189.361V189.543H203.851V175.053Z" fill="#303030"/>
<path d="M102.419 146.068H87.9286V160.559H102.419V146.068Z" fill="#303030"/>
<path d="M87.9296 131.58H73.4393V146.07H87.9296V131.58Z" fill="#303030"/>
<path d="M73.4281 117.076H58.9379V131.566H73.4281V117.076Z" fill="#303030"/>
<path d="M116.91 146.068H102.42V160.559H116.91V146.068Z" fill="#303030"/>
<path d="M102.419 131.58H87.9286V146.07H102.419V131.58Z" fill="#303030"/>
<path d="M87.9296 117.076H73.4393V131.566H87.9296V117.076Z" fill="#303030"/>
<path d="M131.4 146.068H116.91V160.559H131.4V146.068Z" fill="#303030"/>
<path d="M116.91 131.58H102.42V146.07H116.91V131.58Z" fill="#303030"/>
<path d="M102.419 117.076H87.9286V131.566H102.419V117.076Z" fill="#303030"/>
<path d="M145.89 146.068H131.4V160.559H145.89V146.068Z" fill="#303030"/>
<path d="M131.4 131.58H116.91V146.07H131.4V131.58Z" fill="#303030"/>
<path d="M116.91 117.076H102.42V131.566H116.91V117.076Z" fill="#303030"/>
<path d="M87.9296 146.068H73.4393V160.559H87.9296V146.068Z" fill="#303030"/>
<path d="M73.4281 131.58H58.9379V146.07H73.4281V131.58Z" fill="#303030"/>
<path d="M58.9487 117.076H44.4584V131.566H58.9487V117.076Z" fill="#303030"/>
<path d="M247.334 146.068H232.844V160.559H247.334V146.068Z" fill="#303030"/>
<path d="M261.823 131.58H247.333V146.07H261.823V131.58Z" fill="#303030"/>
<path d="M276.313 117.076H261.823V131.566H276.313V117.076Z" fill="#303030"/>
<path d="M232.844 146.068H218.353V160.559H232.844V146.068Z" fill="#303030"/>
<path d="M247.334 131.58H232.844V146.07H247.334V131.58Z" fill="#303030"/>
<path d="M261.823 117.076H247.333V131.566H261.823V117.076Z" fill="#303030"/>
<path d="M218.353 146.068H203.863V160.559H218.353V146.068Z" fill="#303030"/>
<path d="M232.844 131.58H218.353V146.07H232.844V131.58Z" fill="#303030"/>
<path d="M247.334 117.076H232.844V131.566H247.334V117.076Z" fill="#303030"/>
<path d="M203.851 146.068H189.361V160.559H203.851V146.068Z" fill="#303030"/>
<path d="M218.353 131.58H203.863V146.07H218.353V131.58Z" fill="#303030"/>
<path d="M232.844 117.076H218.353V131.566H232.844V117.076Z" fill="#303030"/>
<path d="M261.823 146.068H247.333V160.559H261.823V146.068Z" fill="#303030"/>
<path d="M276.313 131.58H261.823V146.07H276.313V131.58Z" fill="#303030"/>
<path d="M290.805 117.076H276.314V131.566H290.805V117.076Z" fill="#303030"/>
<path d="M160.38 233.01H145.89V247.5H160.38V233.01Z" fill="#303030"/>
<path d="M145.89 247.514H131.4V262.004H145.89V247.514Z" fill="#303030"/>
<path d="M131.4 262.002H116.91V276.492H131.4V262.002Z" fill="#303030"/>
<path d="M160.38 218.521H145.89V233.012H160.38V218.521Z" fill="#303030"/>
<path d="M145.89 233.01H131.4V247.5H145.89V233.01Z" fill="#303030"/>
<path d="M131.4 247.514H116.91V262.004H131.4V247.514Z" fill="#303030"/>
<path d="M160.38 204.029H145.89V218.52H160.38V204.029Z" fill="#303030"/>
<path d="M145.89 218.521H131.4V233.012H145.89V218.521Z" fill="#303030"/>
<path d="M131.4 233.01H116.91V247.5H131.4V233.01Z" fill="#303030"/>
<path d="M160.38 189.541H145.89V204.031H160.38V189.541Z" fill="#303030"/>
<path d="M145.89 204.029H131.4V218.52H145.89V204.029Z" fill="#303030"/>
<path d="M131.4 218.521H116.909V233.012H131.4V218.521Z" fill="#303030"/>
<path d="M160.38 247.514H145.89V262.004H160.38V247.514Z" fill="#303030"/>
<path d="M145.89 262.002H131.4V276.492H145.89V262.002Z" fill="#303030"/>
<path d="M131.4 276.494H116.91V290.984H131.4V276.494Z" fill="#303030"/>
<path d="M189.372 233.01H174.882V247.5H189.372V233.01Z" fill="#303030"/>
<path d="M203.863 247.514H189.372V262.004H203.863V247.514Z" fill="#303030"/>
<path d="M218.353 262.002H203.863V276.492H218.353V262.002Z" fill="#303030"/>
<path d="M189.372 218.521H174.882V233.012H189.372V218.521Z" fill="#303030"/>
<path d="M203.863 233.01H189.372V247.5H203.863V233.01Z" fill="#303030"/>
<path d="M218.353 247.514H203.863V262.004H218.353V247.514Z" fill="#303030"/>
<path d="M189.372 204.029H174.882V218.52H189.372V204.029Z" fill="#303030"/>
<path d="M203.863 218.521H189.372V233.012H203.863V218.521Z" fill="#303030"/>
<path d="M218.353 233.01H203.863V247.5H218.353V233.01Z" fill="#303030"/>
<path d="M189.372 189.541H174.882V204.031H189.372V189.541Z" fill="#303030"/>
<path d="M203.863 204.029H189.372V218.52H203.863V204.029Z" fill="#303030"/>
<path d="M218.353 218.521H203.863V233.012H218.353V218.521Z" fill="#303030"/>
<path d="M189.372 247.514H174.882V262.004H189.372V247.514Z" fill="#303030"/>
<path d="M203.863 262.002H189.372V276.492H203.863V262.002Z" fill="#303030"/>
<path d="M218.353 276.494H203.863V290.984H218.353V276.494Z" fill="#303030"/>
<path d="M479.62 247.511H450.65V102.675H363.753V247.511H334.783V73.7051H479.609V247.5L479.62 247.511Z" fill="#303030"/>
<path d="M349.262 247.51H334.783V261.989H349.262V247.51Z" fill="#303030"/>
<path d="M363.741 247.51H349.262V261.989H363.741V247.51Z" fill="#303030"/>
<path d="M465.129 247.51H450.65V261.989H465.129V247.51Z" fill="#303030"/>
<path d="M479.609 247.51H465.13V261.989H479.609V247.51Z" fill="#303030"/>
<path d="M566.65 189.572V218.541H537.68V247.511H508.711V73.7051H537.68V189.561H566.65V189.572ZM653.547 73.7051V247.5H624.578V160.602H595.608V131.633H624.578V73.7051H653.547ZM566.65 160.602H595.619V189.572H566.65V160.602Z" fill="#303030"/>
<path d="M523.202 247.502H508.723V261.981H523.202V247.502Z" fill="#303030"/>
<path d="M537.681 247.502H523.202V261.981H537.681V247.502Z" fill="#303030"/>
<path d="M639.068 247.502H624.589V261.981H639.068V247.502Z" fill="#303030"/>
<path d="M653.549 247.502H639.069V261.981H653.549V247.502Z" fill="#303030"/>
<path d="M682.573 73.6504H798.517V102.642H711.553V189.606H798.517V218.597H711.553V247.578H682.562V73.6504H682.573ZM798.517 102.642H827.509V189.606H798.517V102.642Z" fill="#303030"/>
<path d="M697.041 247.443H682.573V261.911H697.041V247.443Z" fill="#303030"/>
<path d="M711.509 247.443H697.041V261.911H711.509V247.443Z" fill="#303030"/>
</svg>
