<svg width="1021" height="393" viewBox="0 0 1021 393" fill="none" xmlns="http://www.w3.org/2000/svg">
<path d="M35.2118 1.16113H18.2566V18.1163H35.2118V1.16113Z" fill="#D9D9D9"/>
<path d="M52.1669 18.1143H35.2117V35.0695H52.1669V18.1143Z" fill="#D9D9D9"/>
<path d="M18.2562 1.16113H1.30103V18.1163H18.2562V1.16113Z" fill="#D9D9D9"/>
<path d="M35.2118 18.1143H18.2566V35.0695H35.2118V18.1143Z" fill="#D9D9D9"/>
<path d="M52.1669 35.0713H35.2117V52.0265H52.1669V35.0713Z" fill="#D9D9D9"/>
<path d="M18.2562 18.1143H1.30103V35.0695H18.2562V18.1143Z" fill="#D9D9D9"/>
<path d="M35.2118 35.0713H18.2566V52.0265H35.2118V35.0713Z" fill="#D9D9D9"/>
<path d="M18.2562 35.0713H1.30103V52.0265H18.2562V35.0713Z" fill="#D9D9D9"/>
<path d="M52.1669 1.16113H35.2117V18.1163H52.1669V1.16113Z" fill="#D9D9D9"/>
<path d="M35.2118 340.634H18.2566V357.589H35.2118V340.634Z" fill="#D9D9D9"/>
<path d="M52.1669 357.603H35.2117V374.558H52.1669V357.603Z" fill="#D9D9D9"/>
<path d="M18.2562 340.634H1.30103V357.589H18.2562V340.634Z" fill="#D9D9D9"/>
<path d="M35.2118 357.603H18.2566V374.558H35.2118V357.603Z" fill="#D9D9D9"/>
<path d="M52.1669 374.56H35.2117V391.515H52.1669V374.56Z" fill="#D9D9D9"/>
<path d="M18.2562 357.603H1.30103V374.558H18.2562V357.603Z" fill="#D9D9D9"/>
<path d="M35.2118 374.56H18.2566V391.515H35.2118V374.56Z" fill="#D9D9D9"/>
<path d="M18.2562 374.56H1.30103V391.515H18.2562V374.56Z" fill="#D9D9D9"/>
<path d="M52.1669 340.634H35.2117V357.589H52.1669V340.634Z" fill="#D9D9D9"/>
<path d="M374.34 340.646H357.385V357.601H374.34V340.646Z" fill="#D9D9D9"/>
<path d="M391.307 357.599H374.352V374.554H391.307V357.599Z" fill="#D9D9D9"/>
<path d="M357.385 340.646H340.429V357.601H357.385V340.646Z" fill="#D9D9D9"/>
<path d="M374.34 357.599H357.385V374.554H374.34V357.599Z" fill="#D9D9D9"/>
<path d="M391.307 374.556H374.352V391.511H391.307V374.556Z" fill="#D9D9D9"/>
<path d="M357.385 357.599H340.429V374.554H357.385V357.599Z" fill="#D9D9D9"/>
<path d="M374.34 374.556H357.385V391.511H374.34V374.556Z" fill="#D9D9D9"/>
<path d="M357.385 374.556H340.43V391.511H357.385V374.556Z" fill="#D9D9D9"/>
<path d="M391.307 340.646H374.352V357.601H391.307V340.646Z" fill="#D9D9D9"/>
<path d="M1002.33 340.646H985.377V357.601H1002.33V340.646Z" fill="#D9D9D9"/>
<path d="M1019.3 357.599H1002.35V374.554H1019.3V357.599Z" fill="#D9D9D9"/>
<path d="M985.377 340.646H968.421V357.601H985.377V340.646Z" fill="#D9D9D9"/>
<path d="M1002.33 357.599H985.376V374.554H1002.33V357.599Z" fill="#D9D9D9"/>
<path d="M1019.3 374.556H1002.35V391.511H1019.3V374.556Z" fill="#D9D9D9"/>
<path d="M985.377 357.599H968.421V374.554H985.377V357.599Z" fill="#D9D9D9"/>
<path d="M1002.33 374.556H985.377V391.511H1002.33V374.556Z" fill="#D9D9D9"/>
<path d="M985.377 374.556H968.422V391.511H985.377V374.556Z" fill="#D9D9D9"/>
<path d="M1019.3 340.646H1002.35V357.601H1019.3V340.646Z" fill="#D9D9D9"/>
<path d="M374.341 1.46191H357.386V18.4171H374.341V1.46191Z" fill="#D9D9D9"/>
<path d="M391.308 18.415H374.353V35.3702H391.308V18.415Z" fill="#D9D9D9"/>
<path d="M357.386 1.46191H340.43V18.4171H357.386V1.46191Z" fill="#D9D9D9"/>
<path d="M374.341 18.415H357.385V35.3702H374.341V18.415Z" fill="#D9D9D9"/>
<path d="M391.308 35.3721H374.353V52.3273H391.308V35.3721Z" fill="#D9D9D9"/>
<path d="M357.386 18.415H340.43V35.3702H357.386V18.415Z" fill="#D9D9D9"/>
<path d="M374.341 35.3721H357.386V52.3273H374.341V35.3721Z" fill="#D9D9D9"/>
<path d="M357.386 35.3721H340.431V52.3273H357.386V35.3721Z" fill="#D9D9D9"/>
<path d="M391.308 1.46191H374.353V18.4171H391.308V1.46191Z" fill="#D9D9D9"/>
<path d="M1002.33 1.46191H985.377V18.4171H1002.33V1.46191Z" fill="#D9D9D9"/>
<path d="M1019.3 18.415H1002.34V35.3702H1019.3V18.415Z" fill="#D9D9D9"/>
<path d="M985.377 1.46191H968.421V18.4171H985.377V1.46191Z" fill="#D9D9D9"/>
<path d="M1002.33 18.415H985.377V35.3702H1002.33V18.415Z" fill="#D9D9D9"/>
<path d="M1019.3 35.3721H1002.34V52.3273H1019.3V35.3721Z" fill="#D9D9D9"/>
<path d="M985.377 18.415H968.422V35.3702H985.377V18.415Z" fill="#D9D9D9"/>
<path d="M1002.33 35.3721H985.377V52.3273H1002.33V35.3721Z" fill="#D9D9D9"/>
<path d="M985.377 35.3721H968.422V52.3273H985.377V35.3721Z" fill="#D9D9D9"/>
<path d="M1019.3 1.46191H1002.34V18.4171H1019.3V1.46191Z" fill="#D9D9D9"/>
<path d="M153.91 103.177H136.955V120.132H153.91V103.177Z" fill="#EE1313"/>
<path d="M170.866 120.134H153.91V137.089H170.866V120.134Z" fill="#EE1313"/>
<path d="M187.821 137.087H170.865V154.042H187.821V137.087Z" fill="#EE1313"/>
<path d="M153.91 86.2236H136.955V103.179H153.91V86.2236Z" fill="#EE1313"/>
<path d="M170.866 103.177H153.91V120.132H170.866V103.177Z" fill="#EE1313"/>
<path d="M187.821 120.134H170.865V137.089H187.821V120.134Z" fill="#EE1313"/>
<path d="M153.91 69.2666H136.955V86.2218H153.91V69.2666Z" fill="#EE1313"/>
<path d="M170.866 86.2236H153.91V103.179H170.866V86.2236Z" fill="#EE1313"/>
<path d="M187.821 103.177H170.865V120.132H187.821V103.177Z" fill="#EE1313"/>
<path d="M153.91 52.3135H136.955V69.2687H153.91V52.3135Z" fill="#EE1313"/>
<path d="M170.866 69.2666H153.91V86.2218H170.866V69.2666Z" fill="#EE1313"/>
<path d="M187.821 86.2236H170.865V103.179H187.821V86.2236Z" fill="#EE1313"/>
<path d="M153.91 120.134H136.955V137.089H153.91V120.134Z" fill="#EE1313"/>
<path d="M170.866 137.087H153.91V154.042H170.866V137.087Z" fill="#EE1313"/>
<path d="M187.821 154.044H170.865V170.999H187.821V154.044Z" fill="#EE1313"/>
<path d="M255.654 103.177H238.699V120.132H255.654V103.177Z" fill="#EE1313"/>
<path d="M238.686 120.134H221.731V137.089H238.686V120.134Z" fill="#EE1313"/>
<path d="M221.731 137.087H204.776V154.042H221.731V137.087Z" fill="#EE1313"/>
<path d="M255.654 86.2236H238.699V103.179H255.654V86.2236Z" fill="#EE1313"/>
<path d="M238.686 103.177H221.731V120.132H238.686V103.177Z" fill="#EE1313"/>
<path d="M221.731 120.134H204.776V137.089H221.731V120.134Z" fill="#EE1313"/>
<path d="M255.654 69.2666H238.699V86.2218H255.654V69.2666Z" fill="#EE1313"/>
<path d="M238.686 86.2236H221.731V103.179H238.686V86.2236Z" fill="#EE1313"/>
<path d="M221.731 103.177H204.776V120.132H221.731V103.177Z" fill="#EE1313"/>
<path d="M255.654 52.3135H238.699V69.2687H255.654V52.3135Z" fill="#EE1313"/>
<path d="M238.686 69.2666H221.731V86.2218H238.686V69.2666Z" fill="#EE1313"/>
<path d="M221.731 86.2236H204.776V103.179H221.731V86.2236Z" fill="#EE1313"/>
<path d="M255.654 120.134H238.699V137.089H255.654V120.134Z" fill="#EE1313"/>
<path d="M238.686 137.087H221.731V154.042H238.686V137.087Z" fill="#EE1313"/>
<path d="M221.731 154.044H204.776V170.999H221.731V154.044Z" fill="#EE1313"/>
<path d="M119.999 238.833H103.044V255.788H119.999V238.833Z" fill="#EE1313"/>
<path d="M136.955 221.88H120V238.835H136.955V221.88Z" fill="#EE1313"/>
<path d="M153.91 204.923H136.955V221.878H153.91V204.923Z" fill="#EE1313"/>
<path d="M103.032 238.833H86.0764V255.788H103.032V238.833Z" fill="#EE1313"/>
<path d="M119.999 221.88H103.044V238.835H119.999V221.88Z" fill="#EE1313"/>
<path d="M136.955 204.923H120V221.878H136.955V204.923Z" fill="#EE1313"/>
<path d="M86.077 238.833H69.1218V255.788H86.077V238.833Z" fill="#EE1313"/>
<path d="M103.032 221.88H86.0764V238.835H103.032V221.88Z" fill="#EE1313"/>
<path d="M119.999 204.923H103.044V221.878H119.999V204.923Z" fill="#EE1313"/>
<path d="M69.1215 238.833H52.1663V255.788H69.1215V238.833Z" fill="#EE1313"/>
<path d="M86.077 221.88H69.1218V238.835H86.077V221.88Z" fill="#EE1313"/>
<path d="M103.032 204.923H86.0764V221.878H103.032V204.923Z" fill="#EE1313"/>
<path d="M136.955 238.833H120V255.788H136.955V238.833Z" fill="#EE1313"/>
<path d="M153.91 221.88H136.955V238.835H153.91V221.88Z" fill="#EE1313"/>
<path d="M170.866 204.923H153.91V221.878H170.866V204.923Z" fill="#EE1313"/>
<path d="M289.565 238.833H272.61V255.788H289.565V238.833Z" fill="#EE1313"/>
<path d="M272.61 221.88H255.655V238.835H272.61V221.88Z" fill="#EE1313"/>
<path d="M255.641 204.923H238.686V221.878H255.641V204.923Z" fill="#EE1313"/>
<path d="M306.519 238.833H289.564V255.788H306.519V238.833Z" fill="#EE1313"/>
<path d="M289.565 221.88H272.61V238.835H289.565V221.88Z" fill="#EE1313"/>
<path d="M272.61 204.923H255.655V221.878H272.61V204.923Z" fill="#EE1313"/>
<path d="M323.475 238.833H306.52V255.788H323.475V238.833Z" fill="#EE1313"/>
<path d="M306.52 221.88H289.564V238.835H306.52V221.88Z" fill="#EE1313"/>
<path d="M289.565 204.923H272.61V221.878H289.565V204.923Z" fill="#EE1313"/>
<path d="M340.431 238.833H323.475V255.788H340.431V238.833Z" fill="#EE1313"/>
<path d="M323.475 221.88H306.52V238.835H323.475V221.88Z" fill="#EE1313"/>
<path d="M306.519 204.923H289.564V221.878H306.519V204.923Z" fill="#EE1313"/>
<path d="M272.61 238.833H255.655V255.788H272.61V238.833Z" fill="#EE1313"/>
<path d="M255.641 221.88H238.686V238.835H255.641V221.88Z" fill="#EE1313"/>
<path d="M238.686 204.923H221.731V221.878H238.686V204.923Z" fill="#EE1313"/>
<path d="M119.999 171.009H103.044V187.964H119.999V171.009Z" fill="#EE1313"/>
<path d="M103.045 154.056H86.0896V171.011H103.045V154.056Z" fill="#EE1313"/>
<path d="M86.077 137.087H69.1218V154.042H86.077V137.087Z" fill="#EE1313"/>
<path d="M136.955 171.009H120V187.964H136.955V171.009Z" fill="#EE1313"/>
<path d="M119.999 154.056H103.044V171.011H119.999V154.056Z" fill="#EE1313"/>
<path d="M103.045 137.087H86.0896V154.042H103.045V137.087Z" fill="#EE1313"/>
<path d="M153.91 171.009H136.955V187.964H153.91V171.009Z" fill="#EE1313"/>
<path d="M136.955 154.056H120V171.011H136.955V154.056Z" fill="#EE1313"/>
<path d="M119.999 137.087H103.044V154.042H119.999V137.087Z" fill="#EE1313"/>
<path d="M170.866 171.009H153.91V187.964H170.866V171.009Z" fill="#EE1313"/>
<path d="M153.91 154.056H136.955V171.011H153.91V154.056Z" fill="#EE1313"/>
<path d="M136.955 137.087H120V154.042H136.955V137.087Z" fill="#EE1313"/>
<path d="M103.045 171.009H86.0896V187.964H103.045V171.009Z" fill="#EE1313"/>
<path d="M86.077 154.056H69.1218V171.011H86.077V154.056Z" fill="#EE1313"/>
<path d="M69.1337 137.087H52.1785V154.042H69.1337V137.087Z" fill="#EE1313"/>
<path d="M289.565 171.009H272.61V187.964H289.565V171.009Z" fill="#EE1313"/>
<path d="M306.52 154.056H289.564V171.011H306.52V154.056Z" fill="#EE1313"/>
<path d="M323.475 137.087H306.52V154.042H323.475V137.087Z" fill="#EE1313"/>
<path d="M272.61 171.009H255.655V187.964H272.61V171.009Z" fill="#EE1313"/>
<path d="M289.565 154.056H272.61V171.011H289.565V154.056Z" fill="#EE1313"/>
<path d="M306.52 137.087H289.564V154.042H306.52V137.087Z" fill="#EE1313"/>
<path d="M255.654 171.009H238.699V187.964H255.654V171.009Z" fill="#EE1313"/>
<path d="M272.61 154.056H255.655V171.011H272.61V154.056Z" fill="#EE1313"/>
<path d="M289.565 137.087H272.61V154.042H289.565V137.087Z" fill="#EE1313"/>
<path d="M238.686 171.009H221.731V187.964H238.686V171.009Z" fill="#EE1313"/>
<path d="M255.654 154.056H238.699V171.011H255.654V154.056Z" fill="#EE1313"/>
<path d="M272.61 137.087H255.655V154.042H272.61V137.087Z" fill="#EE1313"/>
<path d="M306.52 171.009H289.564V187.964H306.52V171.009Z" fill="#EE1313"/>
<path d="M323.475 154.056H306.52V171.011H323.475V154.056Z" fill="#EE1313"/>
<path d="M340.431 137.087H323.475V154.042H340.431V137.087Z" fill="#EE1313"/>
<path d="M187.821 272.743H170.865V289.698H187.821V272.743Z" fill="#EE1313"/>
<path d="M170.866 289.716H153.91V306.671H170.866V289.716Z" fill="#EE1313"/>
<path d="M153.91 306.669H136.955V323.624H153.91V306.669Z" fill="#EE1313"/>
<path d="M187.821 255.79H170.865V272.745H187.821V255.79Z" fill="#EE1313"/>
<path d="M170.866 272.743H153.91V289.698H170.866V272.743Z" fill="#EE1313"/>
<path d="M153.91 289.716H136.955V306.671H153.91V289.716Z" fill="#EE1313"/>
<path d="M187.821 238.833H170.865V255.788H187.821V238.833Z" fill="#EE1313"/>
<path d="M170.866 255.79H153.91V272.745H170.866V255.79Z" fill="#EE1313"/>
<path d="M153.91 272.743H136.955V289.698H153.91V272.743Z" fill="#EE1313"/>
<path d="M187.821 221.88H170.865V238.835H187.821V221.88Z" fill="#EE1313"/>
<path d="M170.866 238.833H153.91V255.788H170.866V238.833Z" fill="#EE1313"/>
<path d="M153.91 255.79H136.955V272.745H153.91V255.79Z" fill="#EE1313"/>
<path d="M187.821 289.716H170.865V306.671H187.821V289.716Z" fill="#EE1313"/>
<path d="M170.866 306.669H153.91V323.624H170.866V306.669Z" fill="#EE1313"/>
<path d="M153.91 323.622H136.955V340.577H153.91V323.622Z" fill="#EE1313"/>
<path d="M221.744 272.743H204.788V289.698H221.744V272.743Z" fill="#EE1313"/>
<path d="M238.699 289.716H221.744V306.671H238.699V289.716Z" fill="#EE1313"/>
<path d="M255.654 306.669H238.699V323.624H255.654V306.669Z" fill="#EE1313"/>
<path d="M221.744 255.79H204.788V272.745H221.744V255.79Z" fill="#EE1313"/>
<path d="M238.699 272.743H221.744V289.698H238.699V272.743Z" fill="#EE1313"/>
<path d="M255.654 289.716H238.699V306.671H255.654V289.716Z" fill="#EE1313"/>
<path d="M221.744 238.833H204.788V255.788H221.744V238.833Z" fill="#EE1313"/>
<path d="M238.699 255.79H221.744V272.745H238.699V255.79Z" fill="#EE1313"/>
<path d="M255.654 272.743H238.699V289.698H255.654V272.743Z" fill="#EE1313"/>
<path d="M221.744 221.88H204.788V238.835H221.744V221.88Z" fill="#EE1313"/>
<path d="M238.699 238.833H221.744V255.788H238.699V238.833Z" fill="#EE1313"/>
<path d="M255.654 255.79H238.699V272.745H255.654V255.79Z" fill="#EE1313"/>
<path d="M221.744 289.716H204.788V306.671H221.744V289.716Z" fill="#EE1313"/>
<path d="M238.699 306.669H221.744V323.624H238.699V306.669Z" fill="#EE1313"/>
<path d="M255.654 323.622H238.699V340.577H255.654V323.622Z" fill="#EE1313"/>
<path d="M561.366 289.709H527.468V120.234H425.789V289.709H391.891V86.3369H561.353V289.696L561.366 289.709Z" fill="white"/>
<path d="M408.834 289.708H391.891V306.65H408.834V289.708Z" fill="white"/>
<path d="M425.776 289.708H408.834V306.65H425.776V289.708Z" fill="white"/>
<path d="M544.411 289.708H527.469V306.65H544.411V289.708Z" fill="white"/>
<path d="M561.353 289.708H544.411V306.65H561.353V289.708Z" fill="white"/>
<path d="M663.201 221.914V255.811H629.303V289.709H595.406V86.3369H629.303V221.901H663.201V221.914ZM764.88 86.3369V289.696H730.983V188.016H697.085V154.119H730.983V86.3369H764.88ZM663.201 188.016H697.098V221.914H663.201V188.016Z" fill="white"/>
<path d="M612.361 289.696H595.419V306.639H612.361V289.696Z" fill="white"/>
<path d="M629.303 289.696H612.361V306.639H629.303V289.696Z" fill="white"/>
<path d="M747.938 289.696H730.996V306.639H747.938V289.696Z" fill="white"/>
<path d="M764.881 289.696H747.939V306.639H764.881V289.696Z" fill="white"/>
<path d="M798.843 86.2744H934.511V120.198H832.753V221.955H934.511V255.878H832.753V289.789H798.83V86.2744H798.843ZM934.511 120.198H968.434V221.955H934.511V120.198Z" fill="white"/>
<path d="M815.772 289.634H798.843V306.563H815.772V289.634Z" fill="white"/>
<path d="M832.702 289.634H815.773V306.563H832.702V289.634Z" fill="white"/>
<path d="M1.30103 52.3252H1019.29" stroke="#D9D9D9" stroke-width="1.5" stroke-miterlimit="10" stroke-linecap="square"/>
<path d="M1.30103 1.16113H1019.29" stroke="#D9D9D9" stroke-width="1.5" stroke-miterlimit="10" stroke-linecap="square"/>
<path d="M1019.29 391.558V1.16113" stroke="#D9D9D9" stroke-width="1.5" stroke-miterlimit="10"/>
<path d="M968.421 391.558V1.16113" stroke="#D9D9D9" stroke-width="1.5" stroke-miterlimit="10" stroke-linecap="square"/>
<path d="M52.1664 391.558V1.16113" stroke="#D9D9D9" stroke-width="1.5" stroke-miterlimit="10" stroke-linecap="square"/>
<path d="M1.30103 391.558V1.16113" stroke="#D9D9D9" stroke-width="1.5" stroke-miterlimit="10" stroke-linecap="square"/>
<path d="M391.891 391.558V1.16113" stroke="#D9D9D9" stroke-width="1.5" stroke-miterlimit="10" stroke-linecap="square"/>
<path d="M340.728 391.558V1.16113" stroke="#D9D9D9" stroke-width="1.5" stroke-miterlimit="10" stroke-linecap="square"/>
<path d="M1.30103 340.606H1019.29" stroke="#D9D9D9" stroke-width="1.5" stroke-miterlimit="10" stroke-linecap="square"/>
<path d="M1.30103 391.563H1019.29" stroke="#D9D9D9" stroke-width="1.5" stroke-miterlimit="10"/>
</svg>
