<svg width="234" height="91" viewBox="0 0 234 91" fill="none" xmlns="http://www.w3.org/2000/svg">
<g clip-path="url(#clip0_2_37)">
<path d="M234 0H0V91H234V0Z" fill="#303030"/>
<path d="M43.0599 20.4199V39.7799H39.1899V35.8999H35.3199V32.0299H31.4399V12.6699H35.3199V16.5399H39.1899V20.4199H43.0599Z" fill="#EE1313"/>
<path d="M58.5499 12.6699V32.0299H54.6799V35.8999H50.8099V39.7799H46.9399V20.4199H50.8099V16.5399H54.6799V12.6699H58.5499Z" fill="#EE1313"/>
<path d="M39.19 47.52V51.4H35.32V55.28H31.44V59.15H12.08V55.27H15.94V55.28H15.95V51.4H19.83V47.52H39.19Z" fill="#EE1313"/>
<path d="M77.9299 32.0298V35.9198H74.0599V39.7898H70.1799V43.6698H50.8199V39.7798H54.6799V39.7898H54.6899V35.9198H58.5699V32.0298H77.9299Z" fill="#EE1313"/>
<path d="M77.9301 55.27V59.15H58.5601V55.28H54.6901V55.27H54.6801V51.4H50.8101V47.52H70.1801V51.4H74.0501V55.27H77.9301Z" fill="#EE1313"/>
<path d="M39.1899 39.7798V43.6498H19.8199V39.7798H15.9399V35.9198H12.0699V32.0498H31.4399V35.9098H35.3199V39.7798H39.1899Z" fill="#EE1313"/>
<path d="M43.0599 51.3999V70.7599H39.1899V74.6399H35.3199V78.5099H31.4399V59.1499H35.3199V55.2699H39.1899V51.3999H43.0599Z" fill="#EE1313"/>
<path d="M58.5599 59.1499V78.5099H54.6899V74.6399H50.8099V70.7599H46.9399V51.3999H50.8099V55.2699H54.6799V55.2799H54.6899V59.1499H58.5599Z" fill="#EE1313"/>
<path d="M128.4 20.4302V70.7602H120.66V28.1802H97.4299V70.7602H89.6799V20.4302H128.4Z" fill="white"/>
<path d="M174.9 20.4302V70.7602H167.16V66.8902H167.15V43.6602H159.41V35.9202H167.15V20.4302H174.9Z" fill="white"/>
<path d="M159.41 43.6602H151.67V51.4102H159.41V43.6602Z" fill="white"/>
<path d="M151.67 51.4002V59.1502H143.92V70.7602H136.18V20.4302H143.92V51.4002H151.67Z" fill="white"/>
<path d="M213.65 28.1699V51.4199H221.4V28.1699H213.65Z" fill="white"/>
<path d="M190.4 28.1699V51.4199H213.65V59.1699H190.4V66.9199H190.39V70.7499H182.66V66.9199H182.65V20.4199H213.65V28.1699H190.4Z" fill="white"/>
</g>
<defs>
<clipPath id="clip0_2_37">
<rect width="234" height="91" fill="white"/>
</clipPath>
</defs>
</svg>
