<svg width="573" height="246" viewBox="0 0 573 246" fill="none" xmlns="http://www.w3.org/2000/svg">
<path d="M572.896 0.458008H0.896484V223.458H572.896V0.458008Z" fill="#303030"/>
<path d="M106.154 50.4976V97.9403H96.6944V88.4321H87.2344V78.9485H77.75V31.5059H87.2344V40.9895H96.6944V50.4976H106.154Z" fill="#EE1313"/>
<path d="M144.019 31.5059V78.9485H134.559V88.4321H125.099V97.9403H115.639V50.4976H125.099V40.9895H134.559V31.5059H144.019Z" fill="#EE1313"/>
<path d="M96.6947 116.908V126.416H87.2347V135.924H77.7502V145.408H30.4258V135.9H39.8613V135.924H39.8858V126.416H49.3702V116.908H96.6947Z" fill="#EE1313"/>
<path d="M191.392 78.9492V88.4819H181.932V97.9655H172.447V107.474H125.123V97.941H134.559V97.9655H134.583V88.4819H144.067V78.9492H191.392Z" fill="#EE1313"/>
<path d="M191.392 135.9V145.408H144.043V135.924H134.583V135.9H134.559V126.416H125.099V116.908H172.448V126.416H181.908V135.9H191.392Z" fill="#EE1313"/>
<path d="M96.6947 97.9408V107.424H49.3458V97.9408H39.8614V88.4817H30.4014V78.998H77.7503V88.4572H87.2347V97.9408H96.6947Z" fill="#EE1313"/>
<path d="M106.154 126.416V173.859H96.6944V183.367H87.2344V192.85H77.75V145.408H87.2344V135.9H96.6944V126.416H106.154Z" fill="#EE1313"/>
<path d="M144.043 145.408V192.85H134.583V183.367H125.099V173.859H115.639V126.416H125.099V135.9H134.559V135.924H134.583V145.408H144.043Z" fill="#EE1313"/>
<path d="M314.763 50.5234V173.86H295.843V69.5152H239.059V173.86H220.114V50.5234H314.763Z" fill="white"/>
<path d="M428.43 50.5234V173.86H409.51V164.376H409.485V107.45H390.565V88.4824H409.485V50.5234H428.43Z" fill="white"/>
<path d="M390.566 107.449H371.646V126.441H390.566V107.449Z" fill="white"/>
<path d="M371.646 126.417V145.409H352.701V173.86H333.781V50.5234H352.701V126.417H371.646Z" fill="white"/>
<path d="M523.152 69.4902V126.466H542.097V69.4902H523.152Z" fill="white"/>
<path d="M466.318 69.4898V126.465H523.152V145.457H466.318V164.449H466.294V173.834H447.398V164.449H447.374V50.498H523.152V69.4898H466.318Z" fill="white"/>
</svg>
