<svg width="1922" height="294" viewBox="0 0 1922 294" fill="none" xmlns="http://www.w3.org/2000/svg">
<g clip-path="url(#clip0_12_11283)">
<path d="M432.61 74.7349V85.3961H421.932V90.7349H416.609V96.0573H411.254V101.38H405.932V106.719H400.593V112.041H395.254V117.38H389.915V133.363H384.576V138.702H368.56V133.363H363.221V117.38H368.56V101.38H363.221V96.0573H347.205V90.7349H341.882V85.3961H336.527V80.0737H331.204V74.7349H325.849V69.4125H309.849V74.7349H304.494V80.0737H299.171V85.3961H315.171V90.7349H320.527V96.0573H315.171V101.38H293.816V96.0573H288.494V90.7349H283.155V96.0573H277.816V122.702H283.155V128.041H293.816V133.363H315.171V128.041H320.527V106.719H325.849V112.041H331.204V117.38H336.527V133.363H331.204V138.702H325.849V144.025H320.527V149.363H288.494V144.025H283.155V138.702H277.816V133.363H272.494V128.041H267.138V122.702H261.816V112.041H256.461V90.7349H261.816V85.3961H267.138V80.0737H272.494V74.7349H277.816V69.4125H283.155V64.0737H293.816V58.7513H299.171V53.4125H304.494V48.0901H320.527V53.4125H331.204V58.7513H341.882V64.0737H347.205V58.7513H352.543V42.7513H357.882V37.4289H363.221V32.1065H368.56V26.7677H373.899V21.4453H400.593V26.7677H405.932V32.1065H411.254V37.4289H416.609V48.0901H411.254V53.4125H405.932V58.7513H395.254V42.7513H379.238V48.0901H373.899V58.7513H368.56V74.7349H373.899V80.0737H416.609V74.7349H432.61Z" fill="#249005"/>
<path d="M26.9279 42.7543V58.7543H21.6057V69.4155H16.2667V74.7379H-15.7663V69.4155H-21.1052V53.4155H-15.7663V48.0931H-5.0886V58.7543H0.250252V64.0767H10.9279V42.7543H5.5891V37.4319H0.250252V32.1095H-5.0886V26.7707H-42.4441V32.1095H-47.7994V37.4319H-74.4771V32.1095H-69.1548V26.7707H-63.7995V21.4483H-58.4771V16.1095H-47.7994V10.7871H0.250252V16.1095H5.5891V21.4483H10.9279V26.7707H16.2667V32.1095H21.6057V42.7543H26.9279Z" fill="#EE1313"/>
<path d="M58.9642 96.0557V106.717H53.6419V112.039H42.9642V117.378H37.6088V122.701H21.6088V117.378H16.2699V112.039H5.59226V101.378H0.253418V85.3945H16.2699V101.378H21.6088V106.717H37.6088V101.378H42.9642V90.7334H53.6419V96.0557H58.9642Z" fill="#EE1313"/>
<path d="M90.9916 69.4094V80.0706H80.3139V85.393H58.9585V80.0706H48.2808V69.4094H42.9585V58.7482H37.6031V48.087H32.2808V37.4258H42.9585V42.7481H48.2808V53.4094H53.6362V58.7482H58.9585V69.4094H64.3138V74.7318H69.6362V69.4094H74.9751V64.0706H85.6527V69.4094H90.9916Z" fill="#EE1313"/>
<path d="M117.672 80.0742V96.0578H112.35V101.38H106.994V106.719H101.672V112.041H96.3164V117.38H90.994V122.703H80.3163V128.041H64.3163V133.364H53.6386V138.703H42.9609V144.025H-53.1218V138.703H-63.7995V133.364H-69.1548V128.041H-74.4772V117.38H-79.8325V101.38H-74.4772V96.0578H-69.1548V85.3966H-63.7995V80.0742H-47.7995V85.3966H-42.4441V101.38H-53.1218V106.719H-58.4771V122.703H-53.1218V128.041H-47.7995V133.364H32.2832V128.041H48.2833V122.703H58.9609V117.38H69.6386V112.041H80.3163V106.719H85.6552V101.38H90.994V96.0578H96.3164V90.7354H101.672V85.3966H106.994V80.0742H117.672Z" fill="#EE1313"/>
<path d="M320.529 37.4319V42.7543H293.819V37.4319H283.157V32.1095H267.141V26.7707H203.091V32.1095H192.413V37.4319H187.075V42.7543H181.736V48.0931H176.397V53.4155H171.058V58.7543H165.719V69.4155H160.38V74.7379H155.042V101.383H160.38V106.722H171.058V101.383H181.736V106.722H187.075V117.383H181.736V122.705H160.38V117.383H155.042V112.044H149.703V106.722H144.38V101.383H139.025V80.0767H133.703V74.7379H128.347V69.4155H101.67V64.0767H96.3141V58.7543H90.9917V26.7707H96.3141V21.4483H117.67V26.7707H123.025V37.4319H117.67V42.7543H112.347V48.0931H117.67V53.4155H139.025V48.0931H149.703V42.7543H155.042V37.4319H165.719V32.1095H176.397V26.7707H187.075V21.4483H197.752V16.1095H213.769V10.7871H256.463V16.1095H272.496V21.4483H293.819V26.7707H304.496V32.1095H315.174V37.4319H320.529Z" fill="#EE1313"/>
<path d="M219.111 58.751V69.4122H203.094V85.3957H208.433V96.057H192.417V90.7346H187.078V64.0733H192.417V58.751H203.094V53.4121H213.772V58.751H219.111Z" fill="#EE1313"/>
<path d="M251.122 85.3956V106.718H245.784V117.379H240.445V128.04H235.106V133.363H229.767V138.702H213.767V144.024H187.056V138.702H176.379V128.04H192.412V133.363H213.767V128.04H219.089V122.702H224.428V117.379H229.767V101.379H224.428V96.0568H219.089V90.7344H213.767V85.3956H219.089V80.0732H224.428V74.7344H240.445V80.0732H245.784V85.3956H251.122Z" fill="#EE1313"/>
<path d="M155.042 128.042V149.365H149.703V160.026H144.38V165.348H133.703V160.026H128.347V154.687H123.025V149.365H117.67V144.026H112.347V138.704H106.992V122.703H112.347V106.72H117.67V101.381H123.025V96.0587H128.347V90.7363H133.703V112.042H139.025V117.381H144.38V122.703H149.703V128.042H155.042Z" fill="#EE1313"/>
<path d="M267.14 48.0888V58.7501H261.818V64.0724H256.463V53.4112H240.463V69.4113H235.107V64.0724H229.785V53.4112H235.107V48.0888H240.463V42.75H261.818V48.0888H267.14Z" fill="#EE1313"/>
<path d="M656.832 21.4454V26.7677H640.799V21.4454H539.377V26.7677H523.361V32.1066H512.683V37.4289H507.361V42.7513H502.005V48.0902H496.683V53.4125H491.344V58.7514H486.005V64.0737H480.667V74.735H491.344V80.0738H496.683V90.735H491.344V96.0574H475.328V90.735H470.005V85.3962H459.328V96.0574H453.972V101.38H448.65V106.719H443.295V112.041H437.972V96.0574H443.295V85.3962H448.65V64.0737H443.295V58.7514H437.972V48.0902H432.617V32.1066H437.972V26.7677H443.295V21.4454H453.972V26.7677H459.328V37.4289H453.972V42.7513H448.65V53.4125H459.328V48.0902H470.005V42.7513H480.667V37.4289H486.005V32.1066H491.344V26.7677H502.005V21.4454H512.683V16.1065H528.716V10.7842H550.055V5.44531H608.766V10.7842H635.477V16.1065H646.154V21.4454H656.832Z" fill="#249005"/>
<path d="M587.42 48.087V58.7482H582.082V64.0706H576.743V58.7482H571.404V53.4094H566.065V48.087H560.726V53.4094H555.387V64.0706H544.71V58.7482H539.371V48.087H544.71V42.7481H550.049V37.4258H576.743V42.7481H582.082V48.087H587.42Z" fill="#EE1313"/>
<path d="M651.47 85.3956V112.04H646.148V122.702H640.793V128.04H630.115V133.363H624.793V138.702H608.759V133.363H598.098V128.04H592.759V117.379H587.421V112.04H582.082V74.7344H587.421V85.3956H592.759V112.04H598.098V117.379H608.759V122.702H630.115V117.379H635.47V96.0568H619.437V80.0732H624.793V74.7344H640.793V80.0732H646.148V85.3956H651.47Z" fill="#EE1313"/>
<path d="M528.711 53.4121V64.0733H523.355V69.4122H518.033V74.7345H512.678V90.7346H518.033V101.379H512.678V96.057H507.355V64.0733H512.678V58.751H523.355V53.4121H528.711Z" fill="#EE1313"/>
<path d="M560.727 96.0568V112.04H555.388V122.702H550.049V128.04H544.71V133.363H539.372V138.702H534.033V144.024H523.355V149.363H491.338V144.024H480.661V138.702H475.322V133.363H470V128.04H464.644V101.379H470V106.718H475.322V112.04H480.661V122.702H486V128.04H491.338V133.363H528.71V128.04H534.033V122.702H539.372V117.379H544.71V101.379H539.372V96.0568H528.71V74.7344H544.71V80.0732H550.049V90.7344H555.388V96.0568H560.727Z" fill="#EE1313"/>
<path d="M704.861 69.4113V74.7336H683.505V69.4113H678.167V64.0724H667.489V58.7501H656.828V53.4112H614.117V58.7501H608.761V64.0724H614.117V74.7336H608.761V80.0725H598.1V74.7336H592.761V58.7501H598.1V53.4112H603.439V48.0888H608.761V42.75H656.828V48.0888H672.828V53.4112H683.505V58.7501H688.844V64.0724H694.183V69.4113H704.861Z" fill="#EE1313"/>
<path d="M736.876 122.703V133.364H731.537V128.042H720.859V122.703H710.181V117.381H704.859V112.042H683.504V117.381H678.165V122.703H683.504V133.364H678.165V138.703H667.487V133.364H662.148V112.042H667.487V106.72H678.165V101.381H704.859V106.72H715.537V112.042H726.214V117.381H731.537V122.703H736.876Z" fill="#EE1313"/>
<path d="M1276.12 74.7349V85.3961H1265.45V90.7349H1260.12V96.0573H1254.77V101.38H1249.45V106.719H1244.11V112.041H1238.77V117.38H1233.43V133.363H1228.09V138.702H1212.07V133.363H1206.73V117.38H1212.07V101.38H1206.73V96.0573H1190.72V90.7349H1185.4V85.3961H1180.04V80.0737H1174.72V74.7349H1169.36V69.4125H1153.36V74.7349H1148.01V80.0737H1142.69V85.3961H1158.69V90.7349H1164.04V96.0573H1158.69V101.38H1137.33V96.0573H1132.01V90.7349H1126.67V96.0573H1121.33V122.702H1126.67V128.041H1137.33V133.363H1158.69V128.041H1164.04V106.719H1169.36V112.041H1174.72V117.38H1180.04V133.363H1174.72V138.702H1169.36V144.025H1164.04V149.363H1132.01V144.025H1126.67V138.702H1121.33V133.363H1116.01V128.041H1110.65V122.702H1105.33V112.041H1099.97V90.7349H1105.33V85.3961H1110.65V80.0737H1116.01V74.7349H1121.33V69.4125H1126.67V64.0737H1137.33V58.7513H1142.69V53.4125H1148.01V48.0901H1164.04V53.4125H1174.72V58.7513H1185.4V64.0737H1190.72V58.7513H1196.06V42.7513H1201.4V37.4289H1206.73V32.1065H1212.07V26.7677H1217.41V21.4453H1244.11V26.7677H1249.45V32.1065H1254.77V37.4289H1260.12V48.0901H1254.77V53.4125H1249.45V58.7513H1238.77V42.7513H1222.75V48.0901H1217.41V58.7513H1212.07V74.7349H1217.41V80.0737H1260.12V74.7349H1276.12Z" fill="#249005"/>
<path d="M753 32.1095V64.0767H747.677V74.7379H742.322V69.4155H737V64.0767H731.661V58.7543H726.322V53.4155H720.983V48.0931H715.644V26.7707H720.983V16.1095H726.322V10.7871H737V16.1095H742.322V21.4483H747.677V32.1095H753Z" fill="#EE1313"/>
<path d="M806.388 53.4103V64.0715H801.066V69.4103H785.033V64.0715H779.711V58.7491H774.355V64.0715H769.033V80.0715H763.678V85.3939H758.355V58.7491H763.678V53.4103H769.033V48.0879H801.066V53.4103H806.388Z" fill="#EE1313"/>
<path d="M870.44 42.7543V58.7543H865.118V69.4155H859.779V74.7379H827.746V69.4155H822.407V53.4155H827.746V48.0931H838.423V58.7543H843.762V64.0767H854.44V42.7543H849.101V37.4319H843.762V32.1095H838.423V26.7707H801.068V32.1095H795.713V37.4319H769.035V32.1095H774.357V26.7707H779.713V21.4483H785.035V16.1095H795.713V10.7871H843.762V16.1095H849.101V21.4483H854.44V26.7707H859.779V32.1095H865.118V42.7543H870.44Z" fill="#EE1313"/>
<path d="M902.476 96.0557V106.717H897.154V112.039H886.476V117.378H881.121V122.701H865.121V117.378H859.782V112.039H849.104V101.378H843.765V85.3945H859.782V101.378H865.121V106.717H881.121V101.378H886.476V90.7334H897.154V96.0557H902.476Z" fill="#EE1313"/>
<path d="M934.504 69.4094V80.0706H923.826V85.393H902.47V80.0706H891.793V69.4094H886.47V58.7482H881.115V48.087H875.793V37.4258H886.47V42.7481H891.793V53.4094H897.148V58.7482H902.47V69.4094H907.826V74.7318H913.148V69.4094H918.487V64.0706H929.165V69.4094H934.504Z" fill="#EE1313"/>
<path d="M961.184 80.0742V96.0578H955.861V101.38H950.506V106.719H945.184V112.041H939.828V117.38H934.506V122.703H923.828V128.041H907.828V133.364H897.151V138.703H886.473V144.025H790.39V138.703H779.712V133.364H774.357V128.041H769.035V117.38H763.679V101.38H769.035V96.0578H774.357V85.3966H779.712V80.0742H795.712V85.3966H801.068V101.38H790.39V106.719H785.035V122.703H790.39V128.041H795.712V133.364H875.795V128.041H891.795V122.703H902.473V117.38H913.151V112.041H923.828V106.719H929.167V101.38H934.506V96.0578H939.828V90.7354H945.184V85.3966H950.506V80.0742H961.184Z" fill="#EE1313"/>
<path d="M1164.04 37.4319V42.7543H1137.33V37.4319H1126.67V32.1095H1110.65V26.7707H1046.6V32.1095H1035.93V37.4319H1030.59V42.7543H1025.25V48.0931H1019.91V53.4155H1014.57V58.7543H1009.23V69.4155H1003.89V74.7379H998.553V101.383H1003.89V106.722H1014.57V101.383H1025.25V106.722H1030.59V117.383H1025.25V122.705H1003.89V117.383H998.553V112.044H993.214V106.722H987.892V101.383H982.537V80.0767H977.214V74.7379H971.859V69.4155H945.181V64.0767H939.826V58.7543H934.504V26.7707H939.826V21.4483H961.181V26.7707H966.537V37.4319H961.181V42.7543H955.859V48.0931H961.181V53.4155H982.537V48.0931H993.214V42.7543H998.553V37.4319H1009.23V32.1095H1019.91V26.7707H1030.59V21.4483H1041.27V16.1095H1057.28V10.7871H1099.98V16.1095H1116.01V21.4483H1137.33V26.7707H1148.01V32.1095H1158.69V37.4319H1164.04Z" fill="#EE1313"/>
<path d="M1062.62 58.751V69.4122H1046.61V85.3957H1051.95V96.057H1035.93V90.7346H1030.59V64.0733H1035.93V58.751H1046.61V53.4121H1057.29V58.751H1062.62Z" fill="#EE1313"/>
<path d="M1094.64 85.3956V106.718H1089.3V117.379H1083.96V128.04H1078.62V133.363H1073.28V138.702H1057.28V144.024H1030.57V138.702H1019.89V128.04H1035.93V133.363H1057.28V128.04H1062.6V122.702H1067.94V117.379H1073.28V101.379H1067.94V96.0568H1062.6V90.7344H1057.28V85.3956H1062.6V80.0732H1067.94V74.7344H1083.96V80.0732H1089.3V85.3956H1094.64Z" fill="#EE1313"/>
<path d="M998.553 128.042V149.365H993.214V160.026H987.892V165.348H977.214V160.026H971.859V154.687H966.537V149.365H961.181V144.026H955.859V138.704H950.504V122.703H955.859V106.72H961.181V101.381H966.537V96.0587H971.859V90.7363H977.214V112.042H982.537V117.381H987.892V122.703H993.214V128.042H998.553Z" fill="#EE1313"/>
<path d="M1110.65 48.0888V58.7501H1105.33V64.0724H1099.97V53.4112H1083.97V69.4113H1078.62V64.0724H1073.29V53.4112H1078.62V48.0888H1083.97V42.75H1105.33V48.0888H1110.65Z" fill="#EE1313"/>
<path d="M1500.35 21.4454V26.7677H1484.31V21.4454H1382.89V26.7677H1366.87V32.1066H1356.2V37.4289H1350.87V42.7513H1345.52V48.0902H1340.2V53.4125H1334.86V58.7514H1329.52V64.0737H1324.18V74.735H1334.86V80.0738H1340.2V90.735H1334.86V96.0574H1318.84V90.735H1313.52V85.3962H1302.84V96.0574H1297.49V101.38H1292.16V106.719H1286.81V112.041H1281.49V96.0574H1286.81V85.3962H1292.16V64.0737H1286.81V58.7514H1281.49V48.0902H1276.13V32.1066H1281.49V26.7677H1286.81V21.4454H1297.49V26.7677H1302.84V37.4289H1297.49V42.7513H1292.16V53.4125H1302.84V48.0902H1313.52V42.7513H1324.18V37.4289H1329.52V32.1066H1334.86V26.7677H1345.52V21.4454H1356.2V16.1065H1372.23V10.7842H1393.57V5.44531H1452.28V10.7842H1478.99V16.1065H1489.67V21.4454H1500.35Z" fill="#249005"/>
<path d="M1430.93 48.087V58.7482H1425.6V64.0706H1420.26V58.7482H1414.92V53.4094H1409.58V48.087H1404.24V53.4094H1398.9V64.0706H1388.22V58.7482H1382.88V48.087H1388.22V42.7481H1393.56V37.4258H1420.26V42.7481H1425.6V48.087H1430.93Z" fill="#EE1313"/>
<path d="M1494.98 85.3956V112.04H1489.66V122.702H1484.31V128.04H1473.63V133.363H1468.31V138.702H1452.27V133.363H1441.61V128.04H1436.27V117.379H1430.93V112.04H1425.6V74.7344H1430.93V85.3956H1436.27V112.04H1441.61V117.379H1452.27V122.702H1473.63V117.379H1478.98V96.0568H1462.95V80.0732H1468.31V74.7344H1484.31V80.0732H1489.66V85.3956H1494.98Z" fill="#EE1313"/>
<path d="M1372.22 53.4121V64.0733H1366.87V69.4122H1361.55V74.7345H1356.19V90.7346H1361.55V101.379H1356.19V96.057H1350.87V64.0733H1356.19V58.751H1366.87V53.4121H1372.22Z" fill="#EE1313"/>
<path d="M1404.24 96.0568V112.04H1398.9V122.702H1393.56V128.04H1388.22V133.363H1382.89V138.702H1377.55V144.024H1366.87V149.363H1334.85V144.024H1324.17V138.702H1318.84V133.363H1313.51V128.04H1308.16V101.379H1313.51V106.718H1318.84V112.04H1324.17V122.702H1329.51V128.04H1334.85V133.363H1372.22V128.04H1377.55V122.702H1382.89V117.379H1388.22V101.379H1382.89V96.0568H1372.22V74.7344H1388.22V80.0732H1393.56V90.7344H1398.9V96.0568H1404.24Z" fill="#EE1313"/>
<path d="M1548.37 69.4113V74.7336H1527.02V69.4113H1521.68V64.0724H1511V58.7501H1500.34V53.4112H1457.63V58.7501H1452.28V64.0724H1457.63V74.7336H1452.28V80.0725H1441.61V74.7336H1436.28V58.7501H1441.61V53.4112H1446.95V48.0888H1452.28V42.75H1500.34V48.0888H1516.34V53.4112H1527.02V58.7501H1532.36V64.0724H1537.7V69.4113H1548.37Z" fill="#EE1313"/>
<path d="M1580.39 122.703V133.364H1575.05V128.042H1564.37V122.703H1553.69V117.381H1548.37V112.042H1527.02V117.381H1521.68V122.703H1527.02V133.364H1521.68V138.703H1511V133.364H1505.66V112.042H1511V106.72H1521.68V101.381H1548.37V106.72H1559.05V112.042H1569.73V117.381H1575.05V122.703H1580.39Z" fill="#EE1313"/>
<path d="M122.863 223.959V213.297H133.541V207.959H138.863V202.636H144.218V197.314H149.541V191.975H154.88V186.653H160.218V181.314H165.557V165.33H170.896V159.991H186.913V165.33H192.251V181.314H186.913V197.314H192.251V202.636H208.268V207.959H213.59V213.297H218.946V218.62H224.268V223.959H229.623V229.281H245.623V223.959H250.962V218.62H256.301V213.297H240.285V207.959H234.946V202.636H240.285V197.314H261.64V202.636H266.979V207.959H272.318V202.636H277.657V175.991H272.318V170.653H261.64V165.33H240.285V170.653H234.946V191.975H229.623V186.653H224.268V181.314H218.946V165.33H224.268V159.991H229.623V154.669H234.946V149.33H266.979V154.669H272.318V159.991H277.657V165.33H282.979V170.653H288.334V175.991H293.657V186.653H299.012V207.959H293.657V213.297H288.334V218.62H282.979V223.959H277.657V229.281H272.318V234.62H261.64V239.942H256.301V245.281H250.962V250.603H234.946V245.281H224.268V239.942H213.59V234.62H208.268V239.942H202.929V255.942H197.59V261.265H192.251V266.587H186.913V271.926H181.574V277.248H154.88V271.926H149.541V266.587H144.218V261.265H138.863V250.603H144.218V245.281H149.541V239.942H160.218V255.942H176.235V250.603H181.574V239.942H186.913V223.959H181.574V218.62H138.863V223.959H122.863Z" fill="#249005"/>
<path d="M645.98 266.591V234.624H651.303V223.963H656.641V229.285H661.98V234.624H667.303V239.946H672.658V245.285H677.98V250.608H683.336V271.93H677.98V282.591H672.658V287.914H661.98V282.591H656.641V277.252H651.303V266.591H645.98Z" fill="#EE1313"/>
<path d="M592.59 245.282V234.621H597.912V229.282H613.945V234.621H619.267V239.944H624.623V234.621H629.945V218.621H635.3V213.299H640.623V239.944H635.3V245.282H629.945V250.605H597.912V245.282H592.59Z" fill="#EE1313"/>
<path d="M528.539 255.947V239.946H533.861V229.285H539.2V223.963H571.233V229.285H576.572V245.285H571.233V250.608H560.555V239.946H555.217V234.624H544.539V255.947H549.878V261.269H555.217V266.591H560.555V271.93H597.911V266.591H603.266V261.269H629.944V266.591H624.621V271.93H619.266V277.252H613.944V282.591H603.266V287.914H555.217V282.591H549.878V277.252H544.539V271.93H539.2V266.591H533.861V255.947H528.539Z" fill="#EE1313"/>
<path d="M496.504 202.637V191.976H501.826V186.653H512.504V181.315H517.859V175.992H533.859V181.315H539.198V186.653H549.876V197.315H555.214V213.298H539.198V197.315H533.859V191.976H517.859V197.315H512.504V207.959H501.826V202.637H496.504Z" fill="#EE1313"/>
<path d="M464.472 229.282V218.621H475.15V213.299H496.505V218.621H507.183V229.282H512.505V239.944H517.861V250.605H523.183V261.266H512.505V255.944H507.183V245.282H501.828V239.944H496.505V229.282H491.15V223.96H485.828V229.282H480.472V234.621H469.795V229.282H464.472Z" fill="#EE1313"/>
<path d="M437.793 218.623V202.639H443.115V197.317H448.454V191.978H453.793V186.656H459.132V181.317H464.47V175.994H475.148V170.655H491.148V165.333H501.826V159.994H512.504V154.672H608.586V159.994H619.264V165.333H624.619V170.655H629.942V181.317H635.297V197.317H629.942V202.639H624.619V213.3H619.264V218.623H603.264V213.3H597.909V197.317H608.586V191.978H613.942V175.994H608.586V170.655H603.264V165.333H523.181V170.655H507.181V175.994H496.504V181.317H485.826V186.656H475.148V191.978H469.793V197.317H464.47V202.639H459.132V207.961H453.793V213.3H448.454V218.623H437.793Z" fill="#EE1313"/>
<path d="M234.949 261.265V255.943H261.643V261.265H272.321V266.588H288.337V271.927H352.387V266.588H363.065V261.265H368.404V255.943H373.742V250.604H379.081V245.282H384.42V239.943H389.759V229.282H395.098V223.959H400.437V197.315H395.098V191.976H384.42V197.315H373.742V191.976H368.404V181.315H373.742V175.992H395.098V181.315H400.437V186.653H405.775V191.976H411.098V197.315H416.453V218.621H421.776V223.959H427.131V229.282H453.809V234.621H459.147V239.943H464.486V271.927H459.147V277.249H437.809V271.927H432.453V261.265H437.809V255.943H443.131V250.604H437.809V245.282H416.453V250.604H405.775V255.943H400.437V261.265H389.759V266.588H379.081V271.927H368.404V277.249H357.726V282.588H341.709V287.91H299.015V282.588H282.982V277.249H261.643V271.927H250.965V266.588H240.288V261.265H234.949Z" fill="#EE1313"/>
<path d="M336.375 239.945V229.283H352.391V213.3H347.052V202.639H363.069V207.961H368.408V234.622H363.069V239.945H352.391V245.284H341.714V239.945H336.375Z" fill="#EE1313"/>
<path d="M304.355 213.3V191.978H309.694V181.317H315.033V170.655H320.372V165.333H325.711V159.994H341.711V154.672H368.421V159.994H379.083V170.655H363.066V165.333H341.711V170.655H336.388V175.994H331.049V181.317H325.711V197.317H331.049V202.639H336.388V207.961H341.711V213.3H336.388V218.623H331.049V223.962H315.033V218.623H309.694V213.3H304.355Z" fill="#EE1313"/>
<path d="M400.422 170.654V149.331H405.76V138.67H411.083V133.348H421.76V138.67H427.116V144.009H432.438V149.331H437.793V154.67H443.116V159.992H448.455V175.992H443.116V191.976H437.793V197.315H432.438V202.637H427.116V207.96H421.76V186.654H416.438V181.315H411.083V175.992H405.76V170.654H400.422Z" fill="#EE1313"/>
<path d="M288.336 250.606V239.944H293.658V234.622H299.013V245.283H315.013V229.283H320.369V234.622H325.691V245.283H320.369V250.606H315.013V255.944H293.658V250.606H288.336Z" fill="#EE1313"/>
<path d="M-101.348 277.25V271.928H-85.315V277.25H16.1065V271.928H32.1066V266.589H42.7843V261.266H48.123V255.944H53.4619V250.605H58.8008V245.283H64.1396V239.944H69.4785V234.622H74.8174V223.96H64.1396V218.621H58.8008V207.96H64.1396V202.638H80.1562V207.96H85.4785V213.299H96.1562V202.638H101.512V197.316H106.834V191.977H112.189V186.654H117.512V202.638H112.189V213.299H106.834V234.622H112.189V239.944H117.512V250.605H122.867V266.589H117.512V271.928H112.189V277.25H101.512V271.928H96.1562V261.266H101.512V255.944H106.834V245.283H96.1562V250.605H85.4785V255.944H74.8174V261.266H69.4785V266.589H64.1396V271.928H53.4619V277.25H42.7843V282.589H26.7678V287.911H5.42879V293.25H-53.282V287.911H-79.9927V282.589H-90.6703V277.25H-101.348Z" fill="#249005"/>
<path d="M-31.9458 250.605V239.943H-26.6069V234.621H-21.2681V239.943H-15.9293V245.282H-10.5904V250.605H-5.25156V245.282H0.0872765V234.621H10.765V239.943H16.1038V250.605H10.765V255.944H5.42612V261.266H-21.2681V255.944H-26.6069V250.605H-31.9458Z" fill="#EE1313"/>
<path d="M26.7651 245.286V234.624H32.104V229.286H37.4428V223.963H42.7817V207.963H37.4428V197.318H42.7817V202.641H48.1205V234.624H42.7817V239.947H32.104V245.286H26.7651Z" fill="#EE1313"/>
<path d="M-5.25049 202.636V186.653H0.0883517V175.991H5.42719V170.653H10.7661V165.33H16.1049V159.991H21.4437V154.669H32.105V149.33H64.138V154.669H74.8157V159.991H80.1545V165.33H85.4769V170.653H90.8322V197.314H85.4769V191.975H80.1545V186.653H74.8157V175.991H69.4769V170.653H64.138V165.33H26.7661V170.653H21.4437V175.991H16.1049V181.314H10.7661V197.314H16.1049V202.636H26.7661V223.959H10.7661V218.62H5.42719V207.959H0.0883517V202.636H-5.25049Z" fill="#EE1313"/>
<path d="M966.39 223.959V213.297H977.068V207.959H982.39V202.636H987.746V197.314H993.068V191.975H998.407V186.653H1003.75V181.314H1009.09V165.33H1014.43V159.991H1030.44V165.33H1035.78V181.314H1030.44V197.314H1035.78V202.636H1051.8V207.959H1057.12V213.297H1062.48V218.62H1067.8V223.959H1073.15V229.281H1089.15V223.959H1094.49V218.62H1099.83V213.297H1083.81V207.959H1078.48V202.636H1083.81V197.314H1105.17V202.636H1110.51V207.959H1115.85V202.636H1121.19V175.991H1115.85V170.653H1105.17V165.33H1083.81V170.653H1078.48V191.975H1073.15V186.653H1067.8V181.314H1062.48V165.33H1067.8V159.991H1073.15V154.669H1078.48V149.33H1110.51V154.669H1115.85V159.991H1121.19V165.33H1126.51V170.653H1131.86V175.991H1137.19V186.653H1142.54V207.959H1137.19V213.297H1131.86V218.62H1126.51V223.959H1121.19V229.281H1115.85V234.62H1105.17V239.942H1099.83V245.281H1094.49V250.603H1078.48V245.281H1067.8V239.942H1057.12V234.62H1051.8V239.942H1046.46V255.942H1041.12V261.265H1035.78V266.587H1030.44V271.926H1025.1V277.248H998.407V271.926H993.068V266.587H987.746V261.265H982.39V250.603H987.746V245.281H993.068V239.942H1003.75V255.942H1019.76V250.603H1025.1V239.942H1030.44V223.959H1025.1V218.62H982.39V223.959H966.39Z" fill="#249005"/>
<path d="M1489.52 266.591V234.624H1494.84V223.963H1500.18V229.285H1505.52V234.624H1510.84V239.946H1516.2V245.285H1521.52V250.608H1526.88V271.93H1521.52V282.591H1516.2V287.914H1505.52V282.591H1500.18V277.252H1494.84V266.591H1489.52Z" fill="#EE1313"/>
<path d="M1436.13 245.281V234.619H1441.45V229.28H1457.49V234.619H1462.81V239.942H1468.16V234.619H1473.49V218.619H1478.84V213.297H1484.16V239.942H1478.84V245.281H1473.49V250.603H1441.45V245.281H1436.13Z" fill="#EE1313"/>
<path d="M1372.08 255.947V239.946H1377.4V229.285H1382.74V223.963H1414.77V229.285H1420.11V245.285H1414.77V250.608H1404.1V239.946H1398.76V234.624H1388.08V255.947H1393.42V261.269H1398.76V266.591H1404.1V271.93H1441.45V266.591H1446.81V261.269H1473.48V266.591H1468.16V271.93H1462.81V277.252H1457.48V282.591H1446.81V287.914H1398.76V282.591H1393.42V277.252H1388.08V271.93H1382.74V266.591H1377.4V255.947H1372.08Z" fill="#EE1313"/>
<path d="M1340.05 202.635V191.974H1345.37V186.651H1356.05V181.313H1361.4V175.99H1377.4V181.313H1382.74V186.651H1393.42V197.313H1398.76V213.296H1382.74V197.313H1377.4V191.974H1361.4V197.313H1356.05V207.957H1345.37V202.635H1340.05Z" fill="#EE1313"/>
<path d="M1308.01 229.28V218.619H1318.69V213.297H1340.05V218.619H1350.72V229.28H1356.05V239.942H1361.4V250.603H1366.72V261.264H1356.05V255.942H1350.72V245.281H1345.37V239.942H1340.05V229.28H1334.69V223.958H1329.37V229.28H1324.01V234.619H1313.34V229.28H1308.01Z" fill="#EE1313"/>
<path d="M1281.34 218.623V202.639H1286.66V197.317H1292V191.978H1297.34V186.656H1302.68V181.317H1308.02V175.994H1318.69V170.655H1334.69V165.333H1345.37V159.994H1356.05V154.672H1452.13V159.994H1462.81V165.333H1468.16V170.655H1473.49V181.317H1478.84V197.317H1473.49V202.639H1468.16V213.3H1462.81V218.623H1446.81V213.3H1441.45V197.317H1452.13V191.978H1457.49V175.994H1452.13V170.655H1446.81V165.333H1366.73V170.655H1350.73V175.994H1340.05V181.317H1329.37V186.656H1318.69V191.978H1313.34V197.317H1308.02V202.639H1302.68V207.961H1297.34V213.3H1292V218.623H1281.34Z" fill="#EE1313"/>
<path d="M1078.48 261.263V255.941H1105.17V261.263H1115.85V266.586H1131.87V271.925H1195.92V266.586H1206.59V261.263H1211.93V255.941H1217.27V250.602H1222.61V245.28H1227.95V239.941H1233.29V229.28H1238.63V223.957H1243.97V197.313H1238.63V191.974H1227.95V197.313H1217.27V191.974H1211.93V181.313H1217.27V175.99H1238.63V181.313H1243.97V186.651H1249.3V191.974H1254.63V197.313H1259.98V218.619H1265.3V223.957H1270.66V229.28H1297.34V234.619H1302.68V239.941H1308.02V271.925H1302.68V277.247H1281.34V271.925H1275.98V261.263H1281.34V255.941H1286.66V250.602H1281.34V245.28H1259.98V250.602H1249.3V255.941H1243.97V261.263H1233.29V266.586H1222.61V271.925H1211.93V277.247H1201.26V282.586H1185.24V287.908H1142.54V282.586H1126.51V277.247H1105.17V271.925H1094.49V266.586H1083.82V261.263H1078.48Z" fill="#EE1313"/>
<path d="M1179.9 239.945V229.283H1195.92V213.3H1190.58V202.639H1206.6V207.961H1211.94V234.622H1206.6V239.945H1195.92V245.284H1185.24V239.945H1179.9Z" fill="#EE1313"/>
<path d="M1147.88 213.3V191.978H1153.22V181.317H1158.56V170.655H1163.9V165.333H1169.24V159.994H1185.24V154.672H1211.95V159.994H1222.61V170.655H1206.6V165.333H1185.24V170.655H1179.92V175.994H1174.58V181.317H1169.24V197.317H1174.58V202.639H1179.92V207.961H1185.24V213.3H1179.92V218.623H1174.58V223.962H1158.56V218.623H1153.22V213.3H1147.88Z" fill="#EE1313"/>
<path d="M1243.97 170.654V149.331H1249.31V138.67H1254.63V133.348H1265.31V138.67H1270.66V144.009H1275.98V149.331H1281.34V154.67H1286.66V159.992H1292V175.992H1286.66V191.976H1281.34V197.315H1275.98V202.637H1270.66V207.96H1265.31V186.654H1259.98V181.315H1254.63V175.992H1249.31V170.654H1243.97Z" fill="#EE1313"/>
<path d="M1131.86 250.606V239.944H1137.19V234.622H1142.54V245.283H1158.54V229.283H1163.9V234.622H1169.22V245.283H1163.9V250.606H1158.54V255.944H1137.19V250.606H1131.86Z" fill="#EE1313"/>
<path d="M742.179 277.25V271.928H758.212V277.25H859.634V271.928H875.634V266.589H886.312V261.266H891.651V255.944H896.989V250.605H902.328V245.283H907.667V239.944H913.006V234.622H918.345V223.96H907.667V218.621H902.328V207.96H907.667V202.638H923.684V207.96H929.006V213.299H939.684V202.638H945.039V197.316H950.361V191.977H955.717V186.654H961.039V202.638H955.717V213.299H950.361V234.622H955.717V239.944H961.039V250.605H966.394V266.589H961.039V271.928H955.717V277.25H945.039V271.928H939.684V261.266H945.039V255.944H950.361V245.283H939.684V250.605H929.006V255.944H918.345V261.266H913.006V266.589H907.667V271.928H896.989V277.25H886.312V282.589H870.295V287.911H848.956V293.25H790.245V287.911H763.535V282.589H752.857V277.25H742.179Z" fill="#249005"/>
<path d="M811.582 250.605V239.943H816.921V234.621H822.259V239.943H827.598V245.282H832.937V250.605H838.276V245.282H843.615V234.621H854.293V239.943H859.631V250.605H854.293V255.944H848.954V261.266H822.259V255.944H816.921V250.605H811.582Z" fill="#EE1313"/>
<path d="M747.531 213.298V186.653H752.853V175.992H758.209V170.653H768.886V165.331H774.209V159.992H790.242V165.331H800.903V170.653H806.242V181.315H811.581V186.653H816.919V223.959H811.581V213.298H806.242V186.653H800.903V181.315H790.242V175.992H768.886V181.315H763.531V202.637H779.564V218.621H774.209V223.959H758.209V218.621H752.853V213.298H747.531Z" fill="#EE1313"/>
<path d="M870.293 245.286V234.624H875.632V229.286H880.97V223.963H886.309V207.963H880.97V197.318H886.309V202.641H891.648V234.624H886.309V239.947H875.632V245.286H870.293Z" fill="#EE1313"/>
<path d="M838.277 202.636V186.653H843.616V175.991H848.955V170.653H854.294V165.33H859.632V159.991H864.971V154.669H875.633V149.33H907.666V154.669H918.343V159.991H923.682V165.33H929.004V170.653H934.36V197.314H929.004V191.975H923.682V186.653H918.343V175.991H913.004V170.653H907.666V165.33H870.294V170.653H864.971V175.991H859.632V181.314H854.294V197.314H859.632V202.636H870.294V223.959H854.294V218.62H848.955V207.959H843.616V202.636H838.277Z" fill="#EE1313"/>
<path d="M694.14 229.284V223.962H715.496V229.284H720.835V234.623H731.512V239.945H742.173V245.284H784.884V239.945H790.24V234.623H784.884V223.962H790.24V218.623H800.901V223.962H806.24V239.945H800.901V245.284H795.562V250.607H790.24V255.946H742.173V250.607H726.173V245.284H715.496V239.945H710.157V234.623H704.818V229.284H694.14Z" fill="#EE1313"/>
<path d="M662.129 175.992V165.331H667.451V170.653H678.129V175.992H688.806V181.315H694.145V186.653H715.501V181.315H720.839V175.992H715.501V165.331H720.839V159.992H731.517V165.331H736.856V186.653H731.517V191.976H720.839V197.315H694.145V191.976H683.468V186.653H672.79V181.315H667.451V175.992H662.129Z" fill="#EE1313"/>
<path d="M1596.55 26.7697V58.7368H1591.23V69.398H1585.87V64.0757H1580.55V58.7368H1575.21V53.4145H1569.87V48.0756H1564.53V42.7533H1559.19V21.4308H1564.53V10.7696H1569.87V5.44727H1580.55V10.7696H1585.87V16.1085H1591.23V26.7697H1596.55Z" fill="#EE1313"/>
<path d="M1649.94 48.0704V58.7316H1644.61V64.0705H1628.58V58.7316H1623.26V53.4093H1617.9V58.7316H1612.58V74.7317H1607.23V80.0541H1601.9V53.4093H1607.23V48.0704H1612.58V42.748H1644.61V48.0704H1649.94Z" fill="#EE1313"/>
<path d="M1713.99 37.4144V53.4145H1708.67V64.0757H1703.33V69.398H1671.29V64.0757H1665.96V48.0756H1671.29V42.7533H1681.97V53.4145H1687.31V58.7368H1697.99V37.4144H1692.65V32.0921H1687.31V26.7697H1681.97V21.4308H1644.62V26.7697H1639.26V32.0921H1612.58V26.7697H1617.91V21.4308H1623.26V16.1085H1628.58V10.7696H1639.26V5.44727H1687.31V10.7696H1692.65V16.1085H1697.99V21.4308H1703.33V26.7697H1708.67V37.4144H1713.99Z" fill="#EE1313"/>
<path d="M1746.03 90.7159V101.377H1740.7V106.699H1730.02V112.038H1724.67V117.361H1708.67V112.038H1703.33V106.699H1692.65V96.0383H1687.31V80.0547H1703.33V96.0383H1708.67V101.377H1724.67V96.0383H1730.02V85.3935H1740.7V90.7159H1746.03Z" fill="#EE1313"/>
<path d="M1778.05 64.0696V74.7308H1767.37V80.0532H1746.02V74.7308H1735.34V64.0696H1730.02V53.4084H1724.66V42.7471H1719.34V32.0859H1730.02V37.4083H1735.34V48.0695H1740.7V53.4084H1746.02V64.0696H1751.37V69.3919H1756.7V64.0696H1762.04V58.7307H1772.71V64.0696H1778.05Z" fill="#EE1313"/>
<path d="M1804.73 74.7344V90.718H1799.41V96.0403H1794.05V101.379H1788.73V106.702H1783.38V112.04H1778.05V117.363H1767.38V122.702H1751.38V128.024H1740.7V133.363H1730.02V138.685H1633.94V133.363H1623.26V128.024H1617.91V122.702H1612.58V112.04H1607.23V96.0403H1612.58V90.718H1617.91V80.0567H1623.26V74.7344H1639.26V80.0567H1644.62V96.0403H1633.94V101.379H1628.58V117.363H1633.94V122.702H1639.26V128.024H1719.34V122.702H1735.34V117.363H1746.02V112.04H1756.7V106.702H1767.38V101.379H1772.72V96.0403H1778.05V90.718H1783.38V85.3956H1788.73V80.0567H1794.05V74.7344H1804.73Z" fill="#EE1313"/>
<path d="M2007.59 32.0921V37.4144H1980.88V32.0921H1970.22V26.7697H1954.2V21.4308H1890.15V26.7697H1879.47V32.0921H1874.14V37.4144H1868.8V42.7533H1863.46V48.0756H1858.12V53.4145H1852.78V64.0757H1847.44V69.3981H1842.1V96.0428H1847.44V101.382H1858.12V96.0428H1868.8V101.382H1874.14V112.043H1868.8V117.365H1847.44V112.043H1842.1V106.704H1836.76V101.382H1831.44V96.0428H1826.09V74.7369H1820.76V69.3981H1815.41V64.0757H1788.73V58.7368H1783.37V53.4145H1778.05V21.4308H1783.37V16.1085H1804.73V21.4308H1810.09V32.0921H1804.73V37.4144H1799.41V42.7533H1804.73V48.0756H1826.09V42.7533H1836.76V37.4144H1842.1V32.0921H1852.78V26.7697H1863.46V21.4308H1874.14V16.1085H1884.81V10.7696H1900.83V5.44727H1943.52V10.7696H1959.56V16.1085H1980.88V21.4308H1991.56V26.7697H2002.23V32.0921H2007.59Z" fill="#EE1313"/>
<path d="M1906.17 53.4111V64.0723H1890.15V80.0559H1895.49V90.7171H1879.48V85.3947H1874.14V58.7335H1879.48V53.4111H1890.15V48.0723H1900.83V53.4111H1906.17Z" fill="#EE1313"/>
<path d="M1938.18 80.0557V101.378H1932.84V112.039H1927.51V122.701H1922.17V128.023H1916.83V133.362H1900.83V138.684H1874.12V133.362H1863.44V122.701H1879.47V128.023H1900.83V122.701H1906.15V117.362H1911.49V112.039H1916.83V96.0393H1911.49V90.717H1906.15V85.3946H1900.83V80.0557H1906.15V74.7334H1911.49V69.3945H1927.51V74.7334H1932.84V80.0557H1938.18Z" fill="#EE1313"/>
<path d="M1842.1 122.702V144.025H1836.76V154.686H1831.44V160.008H1820.76V154.686H1815.41V149.347H1810.09V144.025H1804.73V138.686H1799.41V133.364H1794.05V117.364H1799.41V101.38H1804.73V96.0412H1810.09V90.7189H1815.41V85.3965H1820.76V106.702H1826.09V112.041H1831.44V117.364H1836.76V122.702H1842.1Z" fill="#EE1313"/>
<path d="M1954.2 42.749V53.4102H1948.88V58.7326H1943.52V48.0714H1927.52V64.0714H1922.17V58.7326H1916.85V48.0714H1922.17V42.749H1927.52V37.4102H1948.88V42.749H1954.2Z" fill="#EE1313"/>
<path d="M1809.92 218.619V207.958H1820.6V202.619H1825.92V197.296H1831.28V191.974H1836.6V186.635H1841.94V181.313H1847.28V175.974H1852.61V159.99H1857.95V154.651H1873.97V159.99H1879.31V175.974H1873.97V191.974H1879.31V197.296H1895.32V202.619H1900.65V207.958H1906V213.28H1911.32V218.619H1916.68V223.941H1932.68V218.619H1938.02V213.28H1943.36V207.958H1927.34V202.619H1922V197.296H1927.34V191.974H1948.7V197.296H1954.04V202.619H1959.37V197.296H1964.71V170.652H1959.37V165.313H1948.7V159.99H1927.34V165.313H1922V186.635H1916.68V181.313H1911.32V175.974H1906V159.99H1911.32V154.651H1916.68V149.329H1922V143.99H1954.04V149.329H1959.37V154.651H1964.71V159.99H1970.04V165.313H1975.39V170.652H1980.71V181.313H1986.07V202.619H1980.71V207.958H1975.39V213.28H1970.04V218.619H1964.71V223.941H1959.37V229.28H1948.7V234.602H1943.36V239.941H1938.02V245.264H1922V239.941H1911.32V234.602H1900.65V229.28H1895.32V234.602H1889.99V250.602H1884.65V255.925H1879.31V261.247H1873.97V266.586H1868.63V271.908H1841.94V266.586H1836.6V261.247H1831.28V255.925H1825.92V245.264H1831.28V239.941H1836.6V234.602H1847.28V250.602H1863.29V245.264H1868.63V234.602H1873.97V218.619H1868.63V213.28H1825.92V218.619H1809.92Z" fill="#249005"/>
<path d="M1585.71 271.91V266.588H1601.74V271.91H1703.16V266.588H1719.16V261.249H1729.84V255.926H1735.18V250.604H1740.52V245.265H1745.86V239.943H1751.2V234.604H1756.54V229.282H1761.87V218.62H1751.2V213.282H1745.86V202.62H1751.2V197.298H1767.21V202.62H1772.54V207.959H1783.21V197.298H1788.57V191.976H1793.89V186.637H1799.25V181.314H1804.57V197.298H1799.25V207.959H1793.89V229.282H1799.25V234.604H1804.57V245.265H1809.92V261.249H1804.57V266.588H1799.25V271.91H1788.57V266.588H1783.21V255.926H1788.57V250.604H1793.89V239.943H1783.21V245.265H1772.54V250.604H1761.87V255.926H1756.54V261.249H1751.2V266.588H1740.52V271.91H1729.84V277.249H1713.82V282.571H1692.49V287.91H1633.77V282.571H1607.06V277.249H1596.39V271.91H1585.71Z" fill="#249005"/>
<path d="M1655.11 245.265V234.604H1660.45V229.281H1665.79V234.604H1671.13V239.942H1676.47V245.265H1681.81V239.942H1687.14V229.281H1697.82V234.604H1703.16V245.265H1697.82V250.604H1692.48V255.926H1665.79V250.604H1660.45V245.265H1655.11Z" fill="#EE1313"/>
<path d="M1591.06 207.958V181.314H1596.38V170.652H1601.74V165.314H1612.42V159.991H1617.74V154.652H1633.77V159.991H1644.43V165.314H1649.77V175.975H1655.11V181.314H1660.45V218.62H1655.11V207.958H1649.77V181.314H1644.43V175.975H1633.77V170.652H1612.42V175.975H1607.06V197.297H1623.09V213.281H1617.74V218.62H1601.74V213.281H1596.38V207.958H1591.06Z" fill="#EE1313"/>
<path d="M1713.82 239.946V229.285H1719.16V223.946H1724.5V218.623H1729.84V202.623H1724.5V191.979H1729.84V197.301H1735.18V229.285H1729.84V234.607H1719.16V239.946H1713.82Z" fill="#EE1313"/>
<path d="M1681.81 197.296V181.313H1687.15V170.652H1692.48V165.313H1697.82V159.99H1703.16V154.651H1708.5V149.329H1719.16V143.99H1751.19V149.329H1761.87V154.651H1767.21V159.99H1772.53V165.313H1777.89V191.974H1772.53V186.635H1767.21V181.313H1761.87V170.652H1756.53V165.313H1751.19V159.99H1713.82V165.313H1708.5V170.652H1703.16V175.974H1697.82V191.974H1703.16V197.296H1713.82V218.619H1697.82V213.28H1692.48V202.619H1687.15V197.296H1681.81Z" fill="#EE1313"/>
<path d="M1537.67 223.944V218.622H1559.03V223.944H1564.36V229.283H1575.04V234.606H1585.7V239.944H1628.41V234.606H1633.77V229.283H1628.41V218.622H1633.77V213.283H1644.43V218.622H1649.77V234.606H1644.43V239.944H1639.09V245.267H1633.77V250.606H1585.7V245.267H1569.7V239.944H1559.03V234.606H1553.69V229.283H1548.35V223.944H1537.67Z" fill="#EE1313"/>
<path d="M1505.66 170.652V159.991H1510.98V165.314H1521.66V170.652H1532.34V175.975H1537.67V181.314H1559.03V175.975H1564.37V170.652H1559.03V159.991H1564.37V154.652H1575.05V159.991H1580.39V181.314H1575.05V186.636H1564.37V191.975H1537.67V186.636H1527V181.314H1516.32V175.975H1510.98V170.652H1505.66Z" fill="#EE1313"/>
</g>
<defs>
<clipPath id="clip0_12_11283">
<rect width="1921" height="294" fill="white" transform="translate(0.737793)"/>
</clipPath>
</defs>
</svg>
