<svg width="469" height="640" viewBox="0 0 469 640" fill="none" xmlns="http://www.w3.org/2000/svg">
<path d="M315.486 424.913L315.486 394.262L284.835 394.262L284.835 424.913L315.486 424.913Z" fill="#EE1313"/>
<path d="M284.932 394.25L284.932 363.599L254.28 363.599L254.28 394.25L284.932 394.25Z" fill="#EE1313"/>
<path d="M254.268 424.913L254.268 394.262L223.616 394.262L223.616 424.913L254.268 424.913Z" fill="#EE1313"/>
<path d="M437.99 424.913L437.99 394.262L407.339 394.262L407.339 424.913L437.99 424.913Z" fill="white"/>
<path d="M376.789 424.913L376.789 394.262L346.138 394.262L346.138 424.913L376.789 424.913Z" fill="white"/>
<path d="M376.789 394.25L376.789 363.599L346.138 363.599L346.138 394.25L376.789 394.25Z" fill="white"/>
<path d="M407.334 424.913L407.334 394.262L376.683 394.262L376.683 424.913L407.334 424.913Z" fill="white"/>
<path d="M284.932 271.758L284.932 241.107L254.28 241.107L254.28 271.758L284.932 271.758Z" fill="white"/>
<path d="M315.486 302.403L315.486 271.751L284.835 271.751L284.835 302.403L315.486 302.403Z" fill="white"/>
<path d="M284.932 302.403L284.932 271.751L254.28 271.751L254.28 302.403L284.932 302.403Z" fill="white"/>
<path d="M254.268 302.403L254.268 271.751L223.616 271.751L223.616 302.403L254.268 302.403Z" fill="white"/>
<path d="M315.486 363.608L315.486 332.957L284.835 332.957L284.835 363.608L315.486 363.608Z" fill="white"/>
<path d="M346.129 363.608L346.129 332.957L315.478 332.957L315.478 363.608L346.129 363.608Z" fill="white"/>
<path d="M315.486 333.038L315.486 302.387L284.835 302.387L284.835 333.038L315.486 333.038Z" fill="white"/>
<path d="M254.268 363.608L254.268 332.957L223.616 332.957L223.616 363.608L254.268 363.608Z" fill="white"/>
<path d="M223.625 363.608L223.625 332.957L192.974 332.957L192.974 363.608L223.625 363.608Z" fill="white"/>
<path d="M254.268 333.038L254.268 302.387L223.616 302.387L223.616 333.038L254.268 333.038Z" fill="white"/>
<path d="M131.766 424.913L131.766 394.262L101.114 394.262L101.114 424.913L131.766 424.913Z" fill="white"/>
<path d="M193.07 424.913L193.07 394.262L162.419 394.262L162.419 424.913L193.07 424.913Z" fill="white"/>
<path d="M193.07 394.25L193.07 363.599L162.419 363.599L162.419 394.25L193.07 394.25Z" fill="white"/>
<path d="M162.424 424.913L162.424 394.262L131.772 394.262L131.772 424.913L162.424 424.913Z" fill="white"/>
<path d="M468.314 455.692L468.314 425.041L437.663 425.041L437.663 455.692L468.314 455.692Z" fill="white"/>
<path d="M345.793 455.692L345.793 425.041L315.142 425.041L315.142 455.692L345.793 455.692Z" fill="#EE1313"/>
<path d="M315.152 486.348L315.152 455.696L284.501 455.696L284.501 486.348L315.152 486.348Z" fill="#EE1313"/>
<path d="M284.49 516.899L284.49 486.248L253.839 486.248L253.839 516.899L284.49 516.899Z" fill="#EE1313"/>
<path d="M253.932 486.348L253.932 455.696L223.28 455.696L223.28 486.348L253.932 486.348Z" fill="#EE1313"/>
<path d="M223.291 455.692L223.291 425.041L192.64 425.041L192.64 455.692L223.291 455.692Z" fill="#EE1313"/>
<path d="M437.656 455.692L437.656 425.041L407.005 425.041L407.005 455.692L437.656 455.692Z" fill="white"/>
<path d="M437.656 486.348L437.656 455.696L407.005 455.696L407.005 486.348L437.656 486.348Z" fill="white"/>
<path d="M376.354 486.348L376.354 455.696L345.702 455.696L345.702 486.348L376.354 486.348Z" fill="white"/>
<path d="M376.354 516.899L376.354 486.248L345.702 486.248L345.702 516.899L376.354 516.899Z" fill="white"/>
<path d="M406.998 486.348L406.998 455.696L376.347 455.696L376.347 486.348L406.998 486.348Z" fill="white"/>
<path d="M284.49 639.416L284.49 608.765L253.839 608.765L253.839 639.416L284.49 639.416Z" fill="white"/>
<path d="M315.152 608.753L315.152 578.102L284.501 578.102L284.501 608.753L315.152 608.753Z" fill="white"/>
<path d="M284.49 608.753L284.49 578.102L253.839 578.102L253.839 608.753L284.49 608.753Z" fill="white"/>
<path d="M253.932 608.753L253.932 578.102L223.28 578.102L223.28 608.753L253.932 608.753Z" fill="white"/>
<path d="M315.152 547.541L315.152 516.89L284.501 516.89L284.501 547.541L315.152 547.541Z" fill="white"/>
<path d="M345.793 547.541L345.793 516.89L315.142 516.89L315.142 547.541L345.793 547.541Z" fill="white"/>
<path d="M315.152 578.199L315.152 547.548L284.501 547.548L284.501 578.199L315.152 578.199Z" fill="white"/>
<path d="M253.932 547.541L253.932 516.89L223.28 516.89L223.28 547.541L253.932 547.541Z" fill="white"/>
<path d="M223.291 547.541L223.291 516.89L192.64 516.89L192.64 547.541L223.291 547.541Z" fill="white"/>
<path d="M253.932 578.199L253.932 547.548L223.28 547.548L223.28 578.199L253.932 578.199Z" fill="white"/>
<path d="M100.771 455.692L100.771 425.041L70.1201 425.041L70.1201 455.692L100.771 455.692Z" fill="white"/>
<path d="M131.432 455.692L131.432 425.041L100.78 425.041L100.78 455.692L131.432 455.692Z" fill="white"/>
<path d="M131.432 486.348L131.432 455.696L100.78 455.696L100.78 486.348L131.432 486.348Z" fill="white"/>
<path d="M192.637 486.348L192.637 455.696L161.985 455.696L161.985 486.348L192.637 486.348Z" fill="white"/>
<path d="M192.637 516.899L192.637 486.248L161.985 486.248L161.985 516.899L192.637 516.899Z" fill="white"/>
<path d="M162.086 486.348L162.086 455.696L131.435 455.696L131.435 486.348L162.086 486.348Z" fill="white"/>
<path d="M420.979 75.6978L420.979 66.436L411.717 66.436L411.717 75.6977L420.979 75.6978Z" fill="#EE1313"/>
<path d="M411.746 66.4326L411.746 57.1709L402.484 57.1709L402.484 66.4326L411.746 66.4326Z" fill="#EE1313"/>
<path d="M402.48 75.6978L402.48 66.436L393.219 66.436L393.219 75.6977L402.48 75.6978Z" fill="#EE1313"/>
<path d="M457.994 75.6978L457.994 66.436L448.732 66.436L448.732 75.6977L457.994 75.6978Z" fill="white"/>
<path d="M439.502 75.6978L439.502 66.436L430.24 66.436L430.24 75.6977L439.502 75.6978Z" fill="white"/>
<path d="M439.502 66.4326L439.502 57.1709L430.24 57.1709L430.24 66.4326L439.502 66.4326Z" fill="white"/>
<path d="M448.73 75.6978L448.73 66.436L439.469 66.436L439.469 75.6977L448.73 75.6978Z" fill="white"/>
<path d="M411.746 29.4198L411.746 20.1582L402.484 20.1582L402.484 29.4198L411.746 29.4198Z" fill="white"/>
<path d="M420.979 38.6797L420.979 29.418L411.717 29.418L411.717 38.6797L420.979 38.6797Z" fill="white"/>
<path d="M411.746 38.6797L411.746 29.418L402.484 29.418L402.484 38.6797L411.746 38.6797Z" fill="white"/>
<path d="M402.48 38.6797L402.48 29.418L393.219 29.418L393.219 38.6797L402.48 38.6797Z" fill="white"/>
<path d="M420.979 57.1733L420.979 47.9116L411.717 47.9116L411.717 57.1733L420.979 57.1733Z" fill="white"/>
<path d="M430.238 57.1733L430.238 47.9116L420.977 47.9116L420.977 57.1733L430.238 57.1733Z" fill="white"/>
<path d="M420.979 47.9365L420.979 38.6748L411.717 38.6748L411.717 47.9365L420.979 47.9365Z" fill="white"/>
<path d="M402.48 57.1733L402.48 47.9116L393.219 47.9116L393.219 57.1733L402.48 57.1733Z" fill="white"/>
<path d="M393.221 57.1733L393.221 47.9116L383.959 47.9116L383.959 57.1733L393.221 57.1733Z" fill="white"/>
<path d="M402.48 47.9365L402.48 38.6748L393.219 38.6748L393.219 47.9365L402.48 47.9365Z" fill="white"/>
<path d="M365.465 75.6978L365.465 66.436L356.203 66.436L356.203 75.6977L365.465 75.6978Z" fill="white"/>
<path d="M383.988 75.6978L383.988 66.436L374.727 66.436L374.727 75.6977L383.988 75.6978Z" fill="white"/>
<path d="M383.988 66.4326L383.988 57.1709L374.727 57.1709L374.727 66.4326L383.988 66.4326Z" fill="white"/>
<path d="M374.729 75.6978L374.729 66.436L365.467 66.436L365.467 75.6977L374.729 75.6978Z" fill="white"/>
<path d="M467.158 84.998L467.158 75.7363L457.897 75.7363L457.897 84.998L467.158 84.998Z" fill="white"/>
<path d="M430.135 84.998L430.135 75.7363L420.873 75.7363L420.873 84.998L430.135 84.998Z" fill="#EE1313"/>
<path d="M420.877 94.2607L420.877 84.999L411.615 84.999L411.615 94.2607L420.877 94.2607Z" fill="#EE1313"/>
<path d="M411.611 103.493L411.611 94.231L402.35 94.231L402.35 103.493L411.611 103.493Z" fill="#EE1313"/>
<path d="M402.379 94.2607L402.379 84.999L393.117 84.999L393.117 94.2607L402.379 94.2607Z" fill="#EE1313"/>
<path d="M393.121 84.998L393.121 75.7363L383.859 75.7363L383.859 84.998L393.121 84.998Z" fill="#EE1313"/>
<path d="M457.893 84.998L457.893 75.7363L448.631 75.7363L448.631 84.998L457.893 84.998Z" fill="white"/>
<path d="M457.893 94.2607L457.893 84.999L448.631 84.999L448.631 94.2607L457.893 94.2607Z" fill="white"/>
<path d="M439.371 94.2607L439.371 84.999L430.109 84.999L430.109 94.2607L439.371 94.2607Z" fill="white"/>
<path d="M439.371 103.493L439.371 94.231L430.109 94.231L430.109 103.493L439.371 103.493Z" fill="white"/>
<path d="M448.631 94.2607L448.631 84.999L439.369 84.999L439.369 94.2607L448.631 94.2607Z" fill="white"/>
<path d="M411.611 140.512L411.611 131.25L402.35 131.25L402.35 140.512L411.611 140.512Z" fill="white"/>
<path d="M420.877 131.247L420.877 121.985L411.615 121.985L411.615 131.247L420.877 131.247Z" fill="white"/>
<path d="M411.611 131.247L411.611 121.985L402.35 121.985L402.35 131.247L411.611 131.247Z" fill="white"/>
<path d="M402.379 131.247L402.379 121.985L393.117 121.985L393.117 131.247L402.379 131.247Z" fill="white"/>
<path d="M420.877 112.751L420.877 103.489L411.615 103.489L411.615 112.751L420.877 112.751Z" fill="white"/>
<path d="M430.135 112.751L430.135 103.489L420.873 103.489L420.873 112.751L430.135 112.751Z" fill="white"/>
<path d="M420.877 122.015L420.877 112.753L411.615 112.753L411.615 122.015L420.877 122.015Z" fill="white"/>
<path d="M402.379 112.751L402.379 103.489L393.117 103.489L393.117 112.751L402.379 112.751Z" fill="white"/>
<path d="M393.121 112.751L393.121 103.489L383.859 103.489L383.859 112.751L393.121 112.751Z" fill="white"/>
<path d="M402.379 122.015L402.379 112.753L393.117 112.753L393.117 122.015L402.379 122.015Z" fill="white"/>
<path d="M356.1 84.998L356.1 75.7363L346.838 75.7363L346.838 84.998L356.1 84.998Z" fill="white"/>
<path d="M365.363 84.998L365.363 75.7363L356.102 75.7363L356.102 84.998L365.363 84.998Z" fill="white"/>
<path d="M365.363 94.2607L365.363 84.999L356.102 84.999L356.102 94.2607L365.363 94.2607Z" fill="white"/>
<path d="M383.857 94.2607L383.857 84.999L374.596 84.999L374.596 94.2607L383.857 94.2607Z" fill="white"/>
<path d="M383.857 103.493L383.857 94.231L374.596 94.231L374.596 103.493L383.857 103.493Z" fill="white"/>
<path d="M374.627 94.2607L374.627 84.999L365.365 84.999L365.365 94.2607L374.627 94.2607Z" fill="white"/>
<path d="M146.582 116.893L146.582 102.271L131.96 102.271L131.96 116.893L146.582 116.893Z" fill="#EE1313"/>
<path d="M117.377 116.893L117.377 102.271L102.754 102.271L102.754 116.893L117.377 116.893Z" fill="#EE1313"/>
<path d="M102.758 116.893L102.758 102.271L88.1353 102.271L88.1353 116.893L102.758 116.893Z" fill="#EE1313"/>
<path d="M73.5586 102.263L73.5586 87.6406L58.9361 87.6406L58.9361 102.263L73.5586 102.263Z" fill="#EE1313"/>
<path d="M88.1387 87.6465L88.1387 73.0239L73.5162 73.0239L73.5162 87.6465L88.1387 87.6465Z" fill="#EE1313"/>
<path d="M102.758 87.6465L102.758 73.0239L88.1353 73.0239L88.1353 87.6465L102.758 87.6465Z" fill="#EE1313"/>
<path d="M102.758 73.0615L102.758 58.439L88.1353 58.439L88.1353 73.0615L102.758 73.0615Z" fill="#EE1313"/>
<path d="M102.758 58.4472L102.758 43.8247L88.1353 43.8247L88.1353 58.4472L102.758 58.4472Z" fill="#EE1313"/>
<path d="M117.377 73.0615L117.377 58.439L102.754 58.439L102.754 73.0615L117.377 73.0615Z" fill="#EE1313"/>
<path d="M117.377 58.4472L117.377 43.8247L102.754 43.8247L102.754 58.4472L117.377 58.4472Z" fill="#EE1313"/>
<path d="M131.949 73.0615L131.949 58.439L117.327 58.439L117.327 73.0615L131.949 73.0615Z" fill="#EE1313"/>
<path d="M131.949 58.4472L131.949 43.8247L117.327 43.8247L117.327 58.4472L131.949 58.4472Z" fill="#EE1313"/>
<path d="M117.377 43.828L117.377 29.2056L102.754 29.2056L102.754 43.828L117.377 43.828Z" fill="#EE1313"/>
<path d="M131.949 43.828L131.949 29.2056L117.327 29.2056L117.327 43.828L131.949 43.828Z" fill="#EE1313"/>
<path d="M146.582 43.828L146.582 29.2056L131.96 29.2056L131.96 43.828L146.582 43.828Z" fill="#EE1313"/>
<path d="M146.582 29.25L146.582 14.6274L131.96 14.6274L131.96 29.25L146.582 29.25Z" fill="#EE1313"/>
<path d="M146.582 14.6225L146.582 0L131.96 -6.3917e-07L131.96 14.6225L146.582 14.6225Z" fill="#EE1313"/>
<path d="M131.949 14.6225L131.949 0L117.327 -6.3917e-07L117.327 14.6225L131.949 14.6225Z" fill="#EE1313"/>
<path d="M58.9355 102.263L58.9355 87.6406L44.313 87.6406L44.313 102.263L58.9355 102.263Z" fill="#EE1313"/>
<path d="M29.7363 116.893L29.7363 102.271L15.1138 102.271L15.1138 116.893L29.7363 116.893Z" fill="#EE1313"/>
<path d="M15.1172 102.263L15.1172 87.6406L0.494674 87.6406L0.494673 102.263L15.1172 102.263Z" fill="#EE1313"/>
<path d="M15.1172 87.6465L15.1172 73.0239L0.494674 73.0239L0.494673 87.6465L15.1172 87.6465Z" fill="#EE1313"/>
<path d="M15.1172 73.0615L15.1172 58.439L0.494674 58.439L0.494673 73.0615L15.1172 73.0615Z" fill="#EE1313"/>
<path d="M29.7363 87.6465L29.7363 73.0239L15.1138 73.0239L15.1138 87.6465L29.7363 87.6465Z" fill="#EE1313"/>
<path d="M29.7363 73.0615L29.7363 58.439L15.1138 58.439L15.1138 73.0615L29.7363 73.0615Z" fill="#EE1313"/>
<path d="M29.7363 58.4472L29.7363 43.8247L15.1138 43.8247L15.1138 58.4472L29.7363 58.4472Z" fill="#EE1313"/>
<path d="M44.3125 73.0615L44.3125 58.439L29.69 58.439L29.69 73.0615L44.3125 73.0615Z" fill="#EE1313"/>
<path d="M44.3125 58.4472L44.3125 43.8247L29.69 43.8247L29.69 58.4472L44.3125 58.4472Z" fill="#EE1313"/>
<path d="M44.3125 43.828L44.3125 29.2056L29.69 29.2056L29.69 43.828L44.3125 43.828Z" fill="#EE1313"/>
<path d="M58.9355 58.4472L58.9355 43.8247L44.313 43.8247L44.313 58.4472L58.9355 58.4472Z" fill="#EE1313"/>
<path d="M58.9355 43.828L58.9355 29.2056L44.313 29.2056L44.313 43.828L58.9355 43.828Z" fill="#EE1313"/>
<path d="M73.5586 43.828L73.5586 29.2056L58.9361 29.2056L58.9361 43.828L73.5586 43.828Z" fill="#EE1313"/>
<path d="M73.5586 29.25L73.5586 14.6274L58.9361 14.6274L58.9361 29.25L73.5586 29.25Z" fill="#EE1313"/>
<path d="M73.5586 14.6225L73.5586 0L58.9361 -6.3917e-07L58.9361 14.6225L73.5586 14.6225Z" fill="#EE1313"/>
<path d="M44.3125 102.263L44.3125 87.6406L29.69 87.6406L29.69 102.263L44.3125 102.263Z" fill="#EE1313"/>
<path d="M88.1387 116.893L88.1387 102.271L73.5162 102.271L73.5162 116.893L88.1387 116.893Z" fill="#EE1313"/>
<path d="M160.996 131.575L160.996 116.952L146.374 116.952L146.374 131.575L160.996 131.575Z" fill="#EE1313"/>
<path d="M146.424 146.201L146.424 131.578L131.801 131.578L131.801 146.201L146.424 146.201Z" fill="#EE1313"/>
<path d="M131.789 131.575L131.789 116.952L117.167 116.952L117.167 131.575L131.789 131.575Z" fill="#EE1313"/>
<path d="M117.174 131.575L117.174 116.952L102.551 116.952L102.551 131.575L117.174 131.575Z" fill="#EE1313"/>
<path d="M117.174 146.201L117.174 131.578L102.551 131.578L102.551 146.201L117.174 146.201Z" fill="#EE1313"/>
<path d="M102.598 146.201L102.598 131.578L87.9751 131.578L87.9751 146.201L102.598 146.201Z" fill="#EE1313"/>
<path d="M73.3555 131.575L73.3555 116.952L58.733 116.952L58.733 131.575L73.3555 131.575Z" fill="#EE1313"/>
<path d="M73.3555 160.777L73.3555 146.155L58.733 146.155L58.733 160.777L73.3555 160.777Z" fill="#EE1313"/>
<path d="M87.9785 175.392L87.9785 160.77L73.356 160.77L73.356 175.392L87.9785 175.392Z" fill="#EE1313"/>
<path d="M102.598 175.392L102.598 160.77L87.9751 160.77L87.9751 175.392L102.598 175.392Z" fill="#EE1313"/>
<path d="M102.598 190.019L102.598 175.396L87.9751 175.396L87.9751 190.019L102.598 190.019Z" fill="#EE1313"/>
<path d="M102.598 204.596L102.598 189.974L87.9751 189.974L87.9751 204.596L102.598 204.596Z" fill="#EE1313"/>
<path d="M117.174 190.019L117.174 175.396L102.551 175.396L102.551 190.019L117.174 190.019Z" fill="#EE1313"/>
<path d="M117.174 204.596L117.174 189.974L102.551 189.974L102.551 204.596L117.174 204.596Z" fill="#EE1313"/>
<path d="M131.789 190.019L131.789 175.396L117.167 175.396L117.167 190.019L131.789 190.019Z" fill="#EE1313"/>
<path d="M131.789 204.596L131.789 189.974L117.167 189.974L117.167 204.596L131.789 204.596Z" fill="#EE1313"/>
<path d="M117.174 219.222L117.174 204.6L102.551 204.6L102.551 219.222L117.174 219.222Z" fill="#EE1313"/>
<path d="M131.789 219.222L131.789 204.6L117.167 204.6L117.167 219.222L131.789 219.222Z" fill="#EE1313"/>
<path d="M146.424 219.222L146.424 204.6L131.801 204.6L131.801 219.222L146.424 219.222Z" fill="#EE1313"/>
<path d="M146.424 233.835L146.424 219.212L131.801 219.212L131.801 233.835L146.424 233.835Z" fill="#EE1313"/>
<path d="M146.424 248.418L146.424 233.796L131.801 233.796L131.801 248.418L146.424 248.418Z" fill="#EE1313"/>
<path d="M131.789 248.418L131.789 233.796L117.167 233.796L117.167 248.418L131.789 248.418Z" fill="#EE1313"/>
<path d="M58.7754 131.575L58.7754 116.952L44.1529 116.952L44.1529 131.575L58.7754 131.575Z" fill="#EE1313"/>
<path d="M58.7754 160.777L58.7754 146.155L44.1529 146.155L44.1529 160.777L58.7754 160.777Z" fill="#EE1313"/>
<path d="M44.1523 131.575L44.1523 116.952L29.5298 116.952L29.5298 131.575L44.1523 131.575Z" fill="#EE1313"/>
<path d="M29.5293 146.201L29.5293 131.578L14.9068 131.578L14.9068 146.201L29.5293 146.201Z" fill="#EE1313"/>
<path d="M14.9609 160.777L14.9609 146.155L0.338424 146.155L0.338423 160.777L14.9609 160.777Z" fill="#EE1313"/>
<path d="M14.9609 175.392L14.9609 160.77L0.338424 160.77L0.338423 175.392L14.9609 175.392Z" fill="#EE1313"/>
<path d="M14.9609 190.019L14.9609 175.396L0.338424 175.396L0.338423 190.019L14.9609 190.019Z" fill="#EE1313"/>
<path d="M29.5293 175.392L29.5293 160.77L14.9068 160.77L14.9068 175.392L29.5293 175.392Z" fill="#EE1313"/>
<path d="M29.5293 190.019L29.5293 175.396L14.9068 175.396L14.9068 190.019L29.5293 190.019Z" fill="#EE1313"/>
<path d="M29.5293 204.596L29.5293 189.974L14.9068 189.974L14.9068 204.596L29.5293 204.596Z" fill="#EE1313"/>
<path d="M44.1523 190.019L44.1523 175.396L29.5298 175.396L29.5298 190.019L44.1523 190.019Z" fill="#EE1313"/>
<path d="M44.1523 204.596L44.1523 189.974L29.5298 189.974L29.5298 204.596L44.1523 204.596Z" fill="#EE1313"/>
<path d="M44.1523 219.222L44.1523 204.6L29.5298 204.6L29.5298 219.222L44.1523 219.222Z" fill="#EE1313"/>
<path d="M58.7754 204.596L58.7754 189.974L44.1529 189.974L44.1529 204.596L58.7754 204.596Z" fill="#EE1313"/>
<path d="M58.7754 219.222L58.7754 204.6L44.1529 204.6L44.1529 219.222L58.7754 219.222Z" fill="#EE1313"/>
<path d="M73.3555 219.222L73.3555 204.6L58.733 204.6L58.733 219.222L73.3555 219.222Z" fill="#EE1313"/>
<path d="M73.3555 233.835L73.3555 219.212L58.733 219.212L58.733 233.835L73.3555 233.835Z" fill="#EE1313"/>
<path d="M73.3555 248.418L73.3555 233.796L58.733 233.796L58.733 248.418L73.3555 248.418Z" fill="#EE1313"/>
<path d="M44.1523 160.777L44.1523 146.155L29.5298 146.155L29.5298 160.777L44.1523 160.777Z" fill="#EE1313"/>
<path d="M87.9785 146.201L87.9785 131.578L73.356 131.578L73.356 146.201L87.9785 146.201Z" fill="#EE1313"/>
</svg>
