<svg width="424" height="424" viewBox="0 0 424 424" fill="none" xmlns="http://www.w3.org/2000/svg">
<path d="M149.576 75.1924H124.664V100.105H149.576V75.1924Z" fill="#EE1313"/>
<path d="M174.489 100.11H149.577V125.023H174.489V100.11Z" fill="#EE1313"/>
<path d="M199.401 125.021H174.489V149.933H199.401V125.021Z" fill="#EE1313"/>
<path d="M149.576 50.2861H124.664V75.1984H149.576V50.2861Z" fill="#EE1313"/>
<path d="M174.489 75.1924H149.577V100.105H174.489V75.1924Z" fill="#EE1313"/>
<path d="M199.401 100.11H174.489V125.023H199.401V100.11Z" fill="#EE1313"/>
<path d="M149.576 25.3721H124.664V50.2843H149.576V25.3721Z" fill="#EE1313"/>
<path d="M174.489 50.2861H149.577V75.1984H174.489V50.2861Z" fill="#EE1313"/>
<path d="M199.401 75.1924H174.489V100.105H199.401V75.1924Z" fill="#EE1313"/>
<path d="M149.576 0.461914H124.664V25.3742H149.576V0.461914Z" fill="#EE1313"/>
<path d="M174.489 25.3721H149.577V50.2843H174.489V25.3721Z" fill="#EE1313"/>
<path d="M199.401 50.2861H174.489V75.1984H199.401V50.2861Z" fill="#EE1313"/>
<path d="M149.576 100.11H124.664V125.023H149.576V100.11Z" fill="#EE1313"/>
<path d="M174.489 125.021H149.577V149.933H174.489V125.021Z" fill="#EE1313"/>
<path d="M199.401 149.935H174.489V174.847H199.401V149.935Z" fill="#EE1313"/>
<path d="M299.069 75.1924H274.157V100.105H299.069V75.1924Z" fill="#EE1313"/>
<path d="M274.137 100.11H249.225V125.023H274.137V100.11Z" fill="#EE1313"/>
<path d="M249.226 125.021H224.313V149.933H249.226V125.021Z" fill="#EE1313"/>
<path d="M299.069 50.2861H274.157V75.1984H299.069V50.2861Z" fill="#EE1313"/>
<path d="M274.137 75.1924H249.225V100.105H274.137V75.1924Z" fill="#EE1313"/>
<path d="M249.226 100.11H224.313V125.023H249.226V100.11Z" fill="#EE1313"/>
<path d="M299.069 25.3721H274.157V50.2843H299.069V25.3721Z" fill="#EE1313"/>
<path d="M274.137 50.2861H249.225V75.1984H274.137V50.2861Z" fill="#EE1313"/>
<path d="M249.226 75.1924H224.313V100.105H249.226V75.1924Z" fill="#EE1313"/>
<path d="M299.069 0.461914H274.157V25.3742H299.069V0.461914Z" fill="#EE1313"/>
<path d="M274.137 25.3721H249.225V50.2843H274.137V25.3721Z" fill="#EE1313"/>
<path d="M249.226 50.2861H224.313V75.1984H249.226V50.2861Z" fill="#EE1313"/>
<path d="M299.069 100.11H274.157V125.023H299.069V100.11Z" fill="#EE1313"/>
<path d="M274.137 125.021H249.225V149.933H274.137V125.021Z" fill="#EE1313"/>
<path d="M249.226 149.935H224.313V174.847H249.226V149.935Z" fill="#EE1313"/>
<path d="M99.7517 274.517H74.8395V299.429H99.7517V274.517Z" fill="#EE1313"/>
<path d="M124.664 249.599H99.7518V274.511H124.664V249.599Z" fill="#EE1313"/>
<path d="M149.576 224.692H124.664V249.604H149.576V224.692Z" fill="#EE1313"/>
<path d="M74.8204 274.517H49.9081V299.429H74.8204V274.517Z" fill="#EE1313"/>
<path d="M99.7515 249.599H74.8392V274.511H99.7515V249.599Z" fill="#EE1313"/>
<path d="M124.664 224.692H99.7517V249.604H124.664V224.692Z" fill="#EE1313"/>
<path d="M49.9092 274.517H24.9969V299.429H49.9092V274.517Z" fill="#EE1313"/>
<path d="M74.8204 249.599H49.9081V274.511H74.8204V249.599Z" fill="#EE1313"/>
<path d="M99.7516 224.692H74.8394V249.604H99.7516V224.692Z" fill="#EE1313"/>
<path d="M24.9964 274.517H0.0841064V299.429H24.9964V274.517Z" fill="#EE1313"/>
<path d="M49.9092 249.599H24.9969V274.511H49.9092V249.599Z" fill="#EE1313"/>
<path d="M74.8205 224.692H49.9082V249.604H74.8205V224.692Z" fill="#EE1313"/>
<path d="M124.664 274.517H99.7516V299.429H124.664V274.517Z" fill="#EE1313"/>
<path d="M149.576 249.599H124.664V274.511H149.576V249.599Z" fill="#EE1313"/>
<path d="M174.489 224.692H149.577V249.604H174.489V224.692Z" fill="#EE1313"/>
<path d="M348.894 274.517H323.982V299.429H348.894V274.517Z" fill="#EE1313"/>
<path d="M323.982 249.599H299.07V274.511H323.982V249.599Z" fill="#EE1313"/>
<path d="M299.05 224.692H274.138V249.604H299.05V224.692Z" fill="#EE1313"/>
<path d="M373.805 274.517H348.893V299.429H373.805V274.517Z" fill="#EE1313"/>
<path d="M348.894 249.599H323.982V274.511H348.894V249.599Z" fill="#EE1313"/>
<path d="M323.982 224.692H299.07V249.604H323.982V224.692Z" fill="#EE1313"/>
<path d="M398.718 274.517H373.806V299.429H398.718V274.517Z" fill="#EE1313"/>
<path d="M373.805 249.599H348.892V274.511H373.805V249.599Z" fill="#EE1313"/>
<path d="M348.894 224.692H323.982V249.604H348.894V224.692Z" fill="#EE1313"/>
<path d="M423.631 274.517H398.718V299.429H423.631V274.517Z" fill="#EE1313"/>
<path d="M398.718 249.599H373.806V274.511H398.718V249.599Z" fill="#EE1313"/>
<path d="M373.805 224.692H348.893V249.604H373.805V224.692Z" fill="#EE1313"/>
<path d="M323.982 274.517H299.07V299.429H323.982V274.517Z" fill="#EE1313"/>
<path d="M299.05 249.599H274.138V274.511H299.05V249.599Z" fill="#EE1313"/>
<path d="M274.137 224.692H249.225V249.604H274.137V224.692Z" fill="#EE1313"/>
<path d="M99.7517 174.86H74.8395V199.773H99.7517V174.86Z" fill="#EE1313"/>
<path d="M74.8399 149.954H49.9276V174.866H74.8399V149.954Z" fill="#EE1313"/>
<path d="M49.9092 125.021H24.9969V149.933H49.9092V125.021Z" fill="#EE1313"/>
<path d="M124.664 174.86H99.7516V199.773H124.664V174.86Z" fill="#EE1313"/>
<path d="M99.7515 149.954H74.8392V174.866H99.7515V149.954Z" fill="#EE1313"/>
<path d="M74.8399 125.021H49.9276V149.933H74.8399V125.021Z" fill="#EE1313"/>
<path d="M149.576 174.86H124.664V199.773H149.576V174.86Z" fill="#EE1313"/>
<path d="M124.664 149.954H99.7518V174.866H124.664V149.954Z" fill="#EE1313"/>
<path d="M99.7515 125.021H74.8392V149.933H99.7515V125.021Z" fill="#EE1313"/>
<path d="M174.489 174.86H149.577V199.773H174.489V174.86Z" fill="#EE1313"/>
<path d="M149.576 149.954H124.664V174.866H149.576V149.954Z" fill="#EE1313"/>
<path d="M124.664 125.021H99.7518V149.933H124.664V125.021Z" fill="#EE1313"/>
<path d="M74.8399 174.86H49.9276V199.773H74.8399V174.86Z" fill="#EE1313"/>
<path d="M49.9092 149.954H24.9969V174.866H49.9092V149.954Z" fill="#EE1313"/>
<path d="M25.0147 125.021H0.102417V149.933H25.0147V125.021Z" fill="#EE1313"/>
<path d="M348.894 174.86H323.982V199.773H348.894V174.86Z" fill="#EE1313"/>
<path d="M373.805 149.954H348.892V174.866H373.805V149.954Z" fill="#EE1313"/>
<path d="M398.718 125.021H373.806V149.933H398.718V125.021Z" fill="#EE1313"/>
<path d="M323.982 174.86H299.07V199.773H323.982V174.86Z" fill="#EE1313"/>
<path d="M348.894 149.954H323.982V174.866H348.894V149.954Z" fill="#EE1313"/>
<path d="M373.805 125.021H348.892V149.933H373.805V125.021Z" fill="#EE1313"/>
<path d="M299.069 174.86H274.157V199.773H299.069V174.86Z" fill="#EE1313"/>
<path d="M323.982 149.954H299.07V174.866H323.982V149.954Z" fill="#EE1313"/>
<path d="M348.894 125.021H323.982V149.933H348.894V125.021Z" fill="#EE1313"/>
<path d="M274.137 174.86H249.225V199.773H274.137V174.86Z" fill="#EE1313"/>
<path d="M299.069 149.954H274.157V174.866H299.069V149.954Z" fill="#EE1313"/>
<path d="M323.982 125.021H299.07V149.933H323.982V125.021Z" fill="#EE1313"/>
<path d="M373.805 174.86H348.893V199.773H373.805V174.86Z" fill="#EE1313"/>
<path d="M398.718 149.954H373.806V174.866H398.718V149.954Z" fill="#EE1313"/>
<path d="M423.631 125.021H398.719V149.933H423.631V125.021Z" fill="#EE1313"/>
<path d="M199.401 324.337H174.489V349.249H199.401V324.337Z" fill="#EE1313"/>
<path d="M174.489 349.271H149.577V374.183H174.489V349.271Z" fill="#EE1313"/>
<path d="M149.576 374.181H124.664V399.093H149.576V374.181Z" fill="#EE1313"/>
<path d="M199.401 299.427H174.489V324.339H199.401V299.427Z" fill="#EE1313"/>
<path d="M174.489 324.337H149.577V349.249H174.489V324.337Z" fill="#EE1313"/>
<path d="M149.576 349.271H124.664V374.183H149.576V349.271Z" fill="#EE1313"/>
<path d="M199.401 274.517H174.489V299.429H199.401V274.517Z" fill="#EE1313"/>
<path d="M174.489 299.427H149.577V324.339H174.489V299.427Z" fill="#EE1313"/>
<path d="M149.576 324.337H124.664V349.249H149.576V324.337Z" fill="#EE1313"/>
<path d="M199.401 249.599H174.489V274.511H199.401V249.599Z" fill="#EE1313"/>
<path d="M174.489 274.517H149.577V299.429H174.489V274.517Z" fill="#EE1313"/>
<path d="M149.576 299.427H124.664V324.339H149.576V299.427Z" fill="#EE1313"/>
<path d="M199.401 349.271H174.489V374.183H199.401V349.271Z" fill="#EE1313"/>
<path d="M174.489 374.181H149.577V399.093H174.489V374.181Z" fill="#EE1313"/>
<path d="M149.576 399.095H124.664V424.007H149.576V399.095Z" fill="#EE1313"/>
<path d="M249.244 324.337H224.331V349.249H249.244V324.337Z" fill="#EE1313"/>
<path d="M274.157 349.271H249.245V374.183H274.157V349.271Z" fill="#EE1313"/>
<path d="M299.069 374.181H274.157V399.093H299.069V374.181Z" fill="#EE1313"/>
<path d="M249.244 299.427H224.331V324.339H249.244V299.427Z" fill="#EE1313"/>
<path d="M274.157 324.337H249.245V349.249H274.157V324.337Z" fill="#EE1313"/>
<path d="M299.069 349.271H274.157V374.183H299.069V349.271Z" fill="#EE1313"/>
<path d="M249.244 274.517H224.332V299.429H249.244V274.517Z" fill="#EE1313"/>
<path d="M274.157 299.427H249.245V324.339H274.157V299.427Z" fill="#EE1313"/>
<path d="M299.069 324.337H274.157V349.249H299.069V324.337Z" fill="#EE1313"/>
<path d="M249.244 249.599H224.331V274.511H249.244V249.599Z" fill="#EE1313"/>
<path d="M274.157 274.517H249.245V299.429H274.157V274.517Z" fill="#EE1313"/>
<path d="M299.069 299.427H274.157V324.339H299.069V299.427Z" fill="#EE1313"/>
<path d="M249.244 349.271H224.331V374.183H249.244V349.271Z" fill="#EE1313"/>
<path d="M274.157 374.181H249.245V399.093H274.157V374.181Z" fill="#EE1313"/>
<path d="M299.069 399.095H274.157V424.007H299.069V399.095Z" fill="#EE1313"/>
</svg>
