<svg width="626" height="1132" viewBox="0 0 626 1132" fill="none" xmlns="http://www.w3.org/2000/svg">
<path d="M246.988 906.849H224.462V929.375H246.988V906.849Z" fill="#EE1313"/>
<path d="M246.988 951.892H224.462V974.419H246.988V951.892Z" fill="#EE1313"/>
<path d="M246.988 974.352H224.462V996.879H246.988V974.352Z" fill="#EE1313"/>
<path d="M224.463 1019.4H201.937V1041.93H224.463V1019.4Z" fill="#EE1313"/>
<path d="M202.003 996.882H179.477V1019.41H202.003V996.882Z" fill="#EE1313"/>
<path d="M202.003 974.352H179.477V996.879H202.003V974.352Z" fill="#EE1313"/>
<path d="M179.48 974.352H156.953V996.879H179.48V974.352Z" fill="#EE1313"/>
<path d="M156.954 974.352H134.427V996.879H156.954V974.352Z" fill="#EE1313"/>
<path d="M179.48 951.892H156.953V974.419H179.48V951.892Z" fill="#EE1313"/>
<path d="M156.954 951.892H134.427V974.419H156.954V951.892Z" fill="#EE1313"/>
<path d="M179.48 929.362H156.953V951.889H179.48V929.362Z" fill="#EE1313"/>
<path d="M156.954 929.362H134.427V951.889H156.954V929.362Z" fill="#EE1313"/>
<path d="M134.5 951.892H111.974V974.419H134.5V951.892Z" fill="#EE1313"/>
<path d="M134.5 929.362H111.974V951.889H134.5V929.362Z" fill="#EE1313"/>
<path d="M134.5 906.849H111.974V929.375H134.5V906.849Z" fill="#EE1313"/>
<path d="M111.973 906.849H89.4464V929.375H111.973V906.849Z" fill="#EE1313"/>
<path d="M89.4439 906.849H66.9174V929.375H89.4439V906.849Z" fill="#EE1313"/>
<path d="M89.4439 929.362H66.9174V951.889H89.4439V929.362Z" fill="#EE1313"/>
<path d="M224.463 1041.94H201.937V1064.46H224.463V1041.94Z" fill="#EE1313"/>
<path d="M246.988 1086.92H224.462V1109.44H246.988V1086.92Z" fill="#EE1313"/>
<path d="M224.463 1109.43H201.937V1131.96H224.463V1109.43Z" fill="#EE1313"/>
<path d="M202.003 1109.43H179.477V1131.96H202.003V1109.43Z" fill="#EE1313"/>
<path d="M179.48 1109.43H156.953V1131.96H179.48V1109.43Z" fill="#EE1313"/>
<path d="M202.003 1086.92H179.477V1109.44H202.003V1086.92Z" fill="#EE1313"/>
<path d="M179.48 1086.92H156.953V1109.44H179.48V1086.92Z" fill="#EE1313"/>
<path d="M156.954 1086.92H134.427V1109.44H156.954V1086.92Z" fill="#EE1313"/>
<path d="M179.48 1064.38H156.953V1086.91H179.48V1064.38Z" fill="#EE1313"/>
<path d="M156.954 1064.38H134.427V1086.91H156.954V1064.38Z" fill="#EE1313"/>
<path d="M134.5 1064.38H111.974V1086.91H134.5V1064.38Z" fill="#EE1313"/>
<path d="M156.954 1041.94H134.427V1064.46H156.954V1041.94Z" fill="#EE1313"/>
<path d="M134.5 1041.94H111.974V1064.46H134.5V1041.94Z" fill="#EE1313"/>
<path d="M134.5 1019.4H111.974V1041.93H134.5V1019.4Z" fill="#EE1313"/>
<path d="M111.973 1019.4H89.4464V1041.93H111.973V1019.4Z" fill="#EE1313"/>
<path d="M89.4439 1019.4H66.9174V1041.93H89.4439V1019.4Z" fill="#EE1313"/>
<path d="M224.463 1064.38H201.937V1086.91H224.463V1064.38Z" fill="#EE1313"/>
<path d="M246.988 996.882H224.462V1019.41H246.988V996.882Z" fill="#EE1313"/>
<path d="M269.517 884.389H246.99V906.916H269.517V884.389Z" fill="#EE1313"/>
<path d="M292.043 906.924H269.517V929.451H292.043V906.924Z" fill="#EE1313"/>
<path d="M269.517 929.362H246.99V951.889H269.517V929.362Z" fill="#EE1313"/>
<path d="M269.517 951.892H246.99V974.419H269.517V951.892Z" fill="#EE1313"/>
<path d="M292.043 951.892H269.517V974.419H292.043V951.892Z" fill="#EE1313"/>
<path d="M292.043 974.422H269.517V996.949H292.043V974.422Z" fill="#EE1313"/>
<path d="M269.517 1019.4H246.99V1041.93H269.517V1019.4Z" fill="#EE1313"/>
<path d="M314.567 1019.4H292.04V1041.93H314.567V1019.4Z" fill="#EE1313"/>
<path d="M337.021 996.882H314.495V1019.41H337.021V996.882Z" fill="#EE1313"/>
<path d="M337.021 974.422H314.495V996.949H337.021V974.422Z" fill="#EE1313"/>
<path d="M359.549 974.422H337.022V996.949H359.549V974.422Z" fill="#EE1313"/>
<path d="M382.076 974.422H359.55V996.949H382.076V974.422Z" fill="#EE1313"/>
<path d="M359.549 951.892H337.022V974.419H359.549V951.892Z" fill="#EE1313"/>
<path d="M382.076 951.892H359.55V974.419H382.076V951.892Z" fill="#EE1313"/>
<path d="M359.549 929.362H337.022V951.889H359.549V929.362Z" fill="#EE1313"/>
<path d="M382.076 929.362H359.55V951.889H382.076V929.362Z" fill="#EE1313"/>
<path d="M404.53 951.892H382.004V974.419H404.53V951.892Z" fill="#EE1313"/>
<path d="M404.53 929.362H382.004V951.889H404.53V929.362Z" fill="#EE1313"/>
<path d="M404.53 906.924H382.004V929.451H404.53V906.924Z" fill="#EE1313"/>
<path d="M427.06 906.924H404.533V929.451H427.06V906.924Z" fill="#EE1313"/>
<path d="M449.585 906.924H427.058V929.451H449.585V906.924Z" fill="#EE1313"/>
<path d="M449.585 929.362H427.058V951.889H449.585V929.362Z" fill="#EE1313"/>
<path d="M269.517 1041.94H246.99V1064.46H269.517V1041.94Z" fill="#EE1313"/>
<path d="M314.567 1041.94H292.04V1064.46H314.567V1041.94Z" fill="#EE1313"/>
<path d="M269.517 1064.46H246.99V1086.98H269.517V1064.46Z" fill="#EE1313"/>
<path d="M292.043 1086.92H269.517V1109.44H292.043V1086.92Z" fill="#EE1313"/>
<path d="M314.567 1109.43H292.04V1131.96H314.567V1109.43Z" fill="#EE1313"/>
<path d="M337.021 1109.43H314.495V1131.96H337.021V1109.43Z" fill="#EE1313"/>
<path d="M359.549 1109.43H337.022V1131.96H359.549V1109.43Z" fill="#EE1313"/>
<path d="M337.021 1086.92H314.495V1109.44H337.021V1086.92Z" fill="#EE1313"/>
<path d="M359.549 1086.92H337.022V1109.44H359.549V1086.92Z" fill="#EE1313"/>
<path d="M382.076 1086.92H359.55V1109.44H382.076V1086.92Z" fill="#EE1313"/>
<path d="M359.549 1064.46H337.022V1086.98H359.549V1064.46Z" fill="#EE1313"/>
<path d="M382.076 1064.46H359.55V1086.98H382.076V1064.46Z" fill="#EE1313"/>
<path d="M404.53 1064.46H382.004V1086.98H404.53V1064.46Z" fill="#EE1313"/>
<path d="M382.076 1041.94H359.55V1064.46H382.076V1041.94Z" fill="#EE1313"/>
<path d="M404.53 1041.94H382.004V1064.46H404.53V1041.94Z" fill="#EE1313"/>
<path d="M404.53 1019.4H382.004V1041.93H404.53V1019.4Z" fill="#EE1313"/>
<path d="M427.06 1019.4H404.533V1041.93H427.06V1019.4Z" fill="#EE1313"/>
<path d="M449.585 1019.4H427.058V1041.93H449.585V1019.4Z" fill="#EE1313"/>
<path d="M314.567 1064.46H292.04V1086.98H314.567V1064.46Z" fill="#EE1313"/>
<path d="M292.043 996.882H269.517V1019.41H292.043V996.882Z" fill="#EE1313"/>
<path d="M397.8 0.652344H377.075V21.3778H397.8V0.652344Z" fill="#EE1313"/>
<path d="M397.8 21.3169H377.075V42.0424H397.8V21.3169Z" fill="#EE1313"/>
<path d="M418.526 21.3169H397.8V42.0424H418.526V21.3169Z" fill="#EE1313"/>
<path d="M397.8 42.0356H377.075V62.7611H397.8V42.0356Z" fill="#EE1313"/>
<path d="M418.526 42.0356H397.8V62.7611H418.526V42.0356Z" fill="#EE1313"/>
<path d="M439.255 42.0356H418.53V62.7611H439.255V42.0356Z" fill="#EE1313"/>
<path d="M397.8 62.7568H377.075V83.4823H397.8V62.7568Z" fill="#EE1313"/>
<path d="M418.526 62.7568H397.8V83.4823H418.526V62.7568Z" fill="#EE1313"/>
<path d="M439.255 62.7568H418.53V83.4823H439.255V62.7568Z" fill="#EE1313"/>
<path d="M397.8 83.4189H377.075V104.144H397.8V83.4189Z" fill="#EE1313"/>
<path d="M418.526 83.4189H397.8V104.144H418.526V83.4189Z" fill="#EE1313"/>
<path d="M439.255 83.4189H418.53V104.144H439.255V83.4189Z" fill="#EE1313"/>
<path d="M418.526 104.152H397.8V124.877H418.526V104.152Z" fill="#EE1313"/>
<path d="M439.255 104.152H418.53V124.877H439.255V104.152Z" fill="#EE1313"/>
<path d="M439.255 124.873H418.53V145.599H439.255V124.873Z" fill="#EE1313"/>
<path d="M294.307 104.152H273.582V124.877H294.307V104.152Z" fill="#EE1313"/>
<path d="M315.034 104.152H294.309V124.877H315.034V104.152Z" fill="#EE1313"/>
<path d="M315.034 124.873H294.309V145.599H315.034V124.873Z" fill="#EE1313"/>
<path d="M335.693 104.152H314.968V124.877H335.693V104.152Z" fill="#EE1313"/>
<path d="M335.693 124.873H314.968V145.599H335.693V124.873Z" fill="#EE1313"/>
<path d="M335.693 145.535H314.968V166.261H335.693V145.535Z" fill="#EE1313"/>
<path d="M356.419 104.152H335.694V124.877H356.419V104.152Z" fill="#EE1313"/>
<path d="M356.419 124.873H335.694V145.599H356.419V124.873Z" fill="#EE1313"/>
<path d="M356.419 145.535H335.694V166.261H356.419V145.535Z" fill="#EE1313"/>
<path d="M377.141 104.152H356.416V124.877H377.141V104.152Z" fill="#EE1313"/>
<path d="M377.141 124.873H356.416V145.599H377.141V124.873Z" fill="#EE1313"/>
<path d="M377.141 145.535H356.416V166.261H377.141V145.535Z" fill="#EE1313"/>
<path d="M397.8 124.873H377.075V145.599H397.8V124.873Z" fill="#EE1313"/>
<path d="M397.8 145.535H377.075V166.261H397.8V145.535Z" fill="#EE1313"/>
<path d="M418.526 145.535H397.8V166.261H418.526V145.535Z" fill="#EE1313"/>
<path d="M439.255 166.251H418.53V186.976H439.255V166.251Z" fill="#303030"/>
<path d="M459.914 145.535H439.188V166.261H459.914V145.535Z" fill="#303030"/>
<path d="M459.914 186.986H439.188V207.712H459.914V186.986Z" fill="#303030"/>
<path d="M397.8 331.937H377.075V352.662H397.8V331.937Z" fill="#EE1313"/>
<path d="M397.8 311.201H377.075V331.927H397.8V311.201Z" fill="#EE1313"/>
<path d="M418.526 311.201H397.8V331.927H418.526V311.201Z" fill="#EE1313"/>
<path d="M397.8 290.472H377.075V311.197H397.8V290.472Z" fill="#EE1313"/>
<path d="M418.526 290.472H397.8V311.197H418.526V290.472Z" fill="#EE1313"/>
<path d="M439.255 290.472H418.53V311.197H439.255V290.472Z" fill="#EE1313"/>
<path d="M397.8 269.818H377.075V290.543H397.8V269.818Z" fill="#EE1313"/>
<path d="M418.526 269.818H397.8V290.543H418.526V269.818Z" fill="#EE1313"/>
<path d="M439.255 269.818H418.53V290.543H439.255V269.818Z" fill="#EE1313"/>
<path d="M397.8 249.102H377.075V269.828H397.8V249.102Z" fill="#EE1313"/>
<path d="M418.526 249.102H397.8V269.828H418.526V249.102Z" fill="#EE1313"/>
<path d="M439.255 249.102H418.53V269.828H439.255V249.102Z" fill="#EE1313"/>
<path d="M418.526 228.37H397.8V249.095H418.526V228.37Z" fill="#EE1313"/>
<path d="M439.255 228.37H418.53V249.095H439.255V228.37Z" fill="#EE1313"/>
<path d="M439.255 207.702H418.53V228.427H439.255V207.702Z" fill="#EE1313"/>
<path d="M294.307 228.37H273.582V249.095H294.307V228.37Z" fill="#EE1313"/>
<path d="M315.034 228.37H294.309V249.095H315.034V228.37Z" fill="#EE1313"/>
<path d="M315.034 207.702H294.309V228.427H315.034V207.702Z" fill="#EE1313"/>
<path d="M335.693 228.37H314.968V249.095H335.693V228.37Z" fill="#EE1313"/>
<path d="M335.693 207.702H314.968V228.427H335.693V207.702Z" fill="#EE1313"/>
<path d="M335.693 186.986H314.968V207.712H335.693V186.986Z" fill="#EE1313"/>
<path d="M356.419 228.37H335.694V249.095H356.419V228.37Z" fill="#EE1313"/>
<path d="M356.419 207.702H335.694V228.427H356.419V207.702Z" fill="#EE1313"/>
<path d="M356.419 186.986H335.694V207.712H356.419V186.986Z" fill="#EE1313"/>
<path d="M377.141 228.37H356.416V249.095H377.141V228.37Z" fill="#EE1313"/>
<path d="M377.141 207.702H356.416V228.427H377.141V207.702Z" fill="#EE1313"/>
<path d="M377.141 186.986H356.416V207.712H377.141V186.986Z" fill="#EE1313"/>
<path d="M397.8 207.702H377.075V228.427H397.8V207.702Z" fill="#EE1313"/>
<path d="M397.8 186.986H377.075V207.712H397.8V186.986Z" fill="#EE1313"/>
<path d="M418.526 186.986H397.8V207.712H418.526V186.986Z" fill="#EE1313"/>
<path d="M522.026 0.584473H501.3V21.31H522.026V0.584473Z" fill="#EE1313"/>
<path d="M522.026 21.3169H501.3V42.0424H522.026V21.3169Z" fill="#EE1313"/>
<path d="M501.364 21.3169H480.639V42.0424H501.364V21.3169Z" fill="#EE1313"/>
<path d="M522.026 42.0356H501.3V62.7611H522.026V42.0356Z" fill="#EE1313"/>
<path d="M501.364 42.0356H480.639V62.7611H501.364V42.0356Z" fill="#EE1313"/>
<path d="M480.64 42.0356H459.915V62.7611H480.64V42.0356Z" fill="#EE1313"/>
<path d="M522.026 62.7007H501.3V83.4262H522.026V62.7007Z" fill="#EE1313"/>
<path d="M501.364 62.7007H480.639V83.4262H501.364V62.7007Z" fill="#EE1313"/>
<path d="M480.64 62.7007H459.915V83.4262H480.64V62.7007Z" fill="#EE1313"/>
<path d="M522.026 83.4189H501.3V104.144H522.026V83.4189Z" fill="#EE1313"/>
<path d="M501.364 83.4189H480.639V104.144H501.364V83.4189Z" fill="#EE1313"/>
<path d="M480.64 83.4189H459.915V104.144H480.64V83.4189Z" fill="#EE1313"/>
<path d="M501.364 104.152H480.639V124.877H501.364V104.152Z" fill="#EE1313"/>
<path d="M480.64 104.152H459.915V124.877H480.64V104.152Z" fill="#EE1313"/>
<path d="M480.64 124.802H459.915V145.528H480.64V124.802Z" fill="#EE1313"/>
<path d="M625.586 104.152H604.861V124.877H625.586V104.152Z" fill="#EE1313"/>
<path d="M604.862 104.152H584.137V124.877H604.862V104.152Z" fill="#EE1313"/>
<path d="M604.862 124.802H584.137V145.528H604.862V124.802Z" fill="#EE1313"/>
<path d="M584.133 104.152H563.407V124.877H584.133V104.152Z" fill="#EE1313"/>
<path d="M584.133 124.802H563.407V145.528H584.133V124.802Z" fill="#EE1313"/>
<path d="M584.133 145.535H563.407V166.261H584.133V145.535Z" fill="#EE1313"/>
<path d="M563.476 104.152H542.75V124.877H563.476V104.152Z" fill="#EE1313"/>
<path d="M563.476 124.802H542.75V145.528H563.476V124.802Z" fill="#EE1313"/>
<path d="M563.476 145.535H542.75V166.261H563.476V145.535Z" fill="#EE1313"/>
<path d="M542.748 104.152H522.023V124.877H542.748V104.152Z" fill="#EE1313"/>
<path d="M542.748 124.802H522.023V145.528H542.748V124.802Z" fill="#EE1313"/>
<path d="M542.748 145.535H522.023V166.261H542.748V145.535Z" fill="#EE1313"/>
<path d="M522.026 124.802H501.3V145.528H522.026V124.802Z" fill="#EE1313"/>
<path d="M522.026 145.535H501.3V166.261H522.026V145.535Z" fill="#EE1313"/>
<path d="M501.364 145.535H480.639V166.261H501.364V145.535Z" fill="#EE1313"/>
<path d="M480.64 166.251H459.915V186.976H480.64V166.251Z" fill="#303030"/>
<path d="M522.026 331.866H501.3V352.592H522.026V331.866Z" fill="#EE1313"/>
<path d="M522.026 311.201H501.3V331.927H522.026V311.201Z" fill="#EE1313"/>
<path d="M501.364 311.201H480.639V331.927H501.364V311.201Z" fill="#EE1313"/>
<path d="M522.026 290.472H501.3V311.197H522.026V290.472Z" fill="#EE1313"/>
<path d="M501.364 290.472H480.639V311.197H501.364V290.472Z" fill="#EE1313"/>
<path d="M480.64 290.472H459.915V311.197H480.64V290.472Z" fill="#EE1313"/>
<path d="M522.026 269.75H501.3V290.476H522.026V269.75Z" fill="#EE1313"/>
<path d="M501.364 269.75H480.639V290.476H501.364V269.75Z" fill="#EE1313"/>
<path d="M480.64 269.75H459.915V290.476H480.64V269.75Z" fill="#EE1313"/>
<path d="M522.026 249.102H501.3V269.828H522.026V249.102Z" fill="#EE1313"/>
<path d="M501.364 249.102H480.639V269.828H501.364V249.102Z" fill="#EE1313"/>
<path d="M480.64 249.102H459.915V269.828H480.64V249.102Z" fill="#EE1313"/>
<path d="M501.364 228.37H480.639V249.095H501.364V228.37Z" fill="#EE1313"/>
<path d="M480.64 228.37H459.915V249.095H480.64V228.37Z" fill="#EE1313"/>
<path d="M480.64 207.634H459.915V228.36H480.64V207.634Z" fill="#EE1313"/>
<path d="M625.586 228.37H604.861V249.095H625.586V228.37Z" fill="#EE1313"/>
<path d="M604.862 228.37H584.137V249.095H604.862V228.37Z" fill="#EE1313"/>
<path d="M604.862 207.634H584.137V228.36H604.862V207.634Z" fill="#EE1313"/>
<path d="M584.133 228.37H563.407V249.095H584.133V228.37Z" fill="#EE1313"/>
<path d="M584.133 207.634H563.407V228.36H584.133V207.634Z" fill="#EE1313"/>
<path d="M584.133 186.918H563.407V207.644H584.133V186.918Z" fill="#EE1313"/>
<path d="M563.476 228.37H542.75V249.095H563.476V228.37Z" fill="#EE1313"/>
<path d="M563.476 207.634H542.75V228.36H563.476V207.634Z" fill="#EE1313"/>
<path d="M563.476 186.918H542.75V207.644H563.476V186.918Z" fill="#EE1313"/>
<path d="M542.748 228.37H522.023V249.095H542.748V228.37Z" fill="#EE1313"/>
<path d="M542.748 207.634H522.023V228.36H542.748V207.634Z" fill="#EE1313"/>
<path d="M542.748 186.918H522.023V207.644H542.748V186.918Z" fill="#EE1313"/>
<path d="M522.026 207.634H501.3V228.36H522.026V207.634Z" fill="#EE1313"/>
<path d="M522.026 186.918H501.3V207.644H522.026V186.918Z" fill="#EE1313"/>
<path d="M501.364 186.918H480.639V207.644H501.364V186.918Z" fill="#EE1313"/>
<path d="M109.011 474.677H90.8925V492.795H109.011V474.677Z" fill="#EE1313"/>
<path d="M90.8947 492.742H72.7764V510.86H90.8947V492.742Z" fill="#EE1313"/>
<path d="M109.011 510.855H90.8925V528.973H109.011V510.855Z" fill="#EE1313"/>
<path d="M109.011 402.26H90.8925V420.379H109.011V402.26Z" fill="#303030"/>
<path d="M109.011 438.438H90.8925V456.557H109.011V438.438Z" fill="#303030"/>
<path d="M90.8947 438.438H72.7764V456.557H90.8947V438.438Z" fill="#303030"/>
<path d="M109.011 420.374H90.8925V438.492H109.011V420.374Z" fill="#303030"/>
<path d="M18.532 492.742H0.413696V510.86H18.532V492.742Z" fill="#303030"/>
<path d="M36.5928 474.677H18.4745V492.795H36.5928V474.677Z" fill="#303030"/>
<path d="M36.5928 492.742H18.4745V510.86H36.5928V492.742Z" fill="#303030"/>
<path d="M36.5928 510.855H18.4745V528.973H36.5928V510.855Z" fill="#303030"/>
<path d="M72.8324 474.677H54.7141V492.795H72.8324V474.677Z" fill="#303030"/>
<path d="M72.8324 456.552H54.7141V474.67H72.8324V456.552Z" fill="#303030"/>
<path d="M54.7134 474.677H36.5951V492.795H54.7134V474.677Z" fill="#303030"/>
<path d="M72.8324 510.855H54.7141V528.973H72.8324V510.855Z" fill="#303030"/>
<path d="M72.8324 528.968H54.7141V547.087H72.8324V528.968Z" fill="#303030"/>
<path d="M54.7134 510.855H36.5951V528.973H54.7134V510.855Z" fill="#303030"/>
<path d="M109.011 583.272H90.8925V601.39H109.011V583.272Z" fill="#303030"/>
<path d="M109.011 547.034H90.8925V565.152H109.011V547.034Z" fill="#303030"/>
<path d="M90.8947 547.034H72.7764V565.152H90.8947V547.034Z" fill="#303030"/>
<path d="M109.011 565.146H90.8925V583.265H109.011V565.146Z" fill="#303030"/>
<path d="M127.13 384.135H109.012V402.254H127.13V384.135Z" fill="#303030"/>
<path d="M127.13 456.552H109.012V474.67H127.13V456.552Z" fill="#EE1313"/>
<path d="M145.25 474.677H127.132V492.795H145.25V474.677Z" fill="#EE1313"/>
<path d="M163.368 492.79H145.25V510.908H163.368V492.79Z" fill="#EE1313"/>
<path d="M145.25 510.855H127.132V528.973H145.25V510.855Z" fill="#EE1313"/>
<path d="M127.13 528.968H109.012V547.087H127.13V528.968Z" fill="#EE1313"/>
<path d="M127.13 402.26H109.012V420.379H127.13V402.26Z" fill="#303030"/>
<path d="M145.25 402.26H127.132V420.379H145.25V402.26Z" fill="#303030"/>
<path d="M145.25 438.486H127.132V456.605H145.25V438.486Z" fill="#303030"/>
<path d="M163.368 438.486H145.25V456.605H163.368V438.486Z" fill="#303030"/>
<path d="M145.25 420.374H127.132V438.492H145.25V420.374Z" fill="#303030"/>
<path d="M235.728 492.79H217.609V510.908H235.728V492.79Z" fill="#303030"/>
<path d="M217.667 474.677H199.549V492.795H217.667V474.677Z" fill="#303030"/>
<path d="M217.667 492.79H199.549V510.908H217.667V492.79Z" fill="#303030"/>
<path d="M217.667 510.855H199.549V528.973H217.667V510.855Z" fill="#303030"/>
<path d="M181.43 474.677H163.312V492.795H181.43V474.677Z" fill="#303030"/>
<path d="M181.43 456.552H163.312V474.67H181.43V456.552Z" fill="#303030"/>
<path d="M199.548 474.677H181.43V492.795H199.548V474.677Z" fill="#303030"/>
<path d="M181.43 510.855H163.312V528.973H181.43V510.855Z" fill="#303030"/>
<path d="M181.43 528.968H163.312V547.087H181.43V528.968Z" fill="#303030"/>
<path d="M199.548 510.855H181.43V528.973H199.548V510.855Z" fill="#303030"/>
<path d="M127.13 601.397H109.012V619.515H127.13V601.397Z" fill="#303030"/>
<path d="M127.13 583.272H109.012V601.39H127.13V583.272Z" fill="#303030"/>
<path d="M145.25 583.272H127.132V601.39H145.25V583.272Z" fill="#303030"/>
<path d="M145.25 547.093H127.132V565.212H145.25V547.093Z" fill="#303030"/>
<path d="M163.368 547.093H145.25V565.212H163.368V547.093Z" fill="#303030"/>
<path d="M145.25 565.146H127.132V583.265H145.25V565.146Z" fill="#303030"/>
</svg>
