<svg width="1020" height="514" viewBox="0 0 1020 514" fill="none" xmlns="http://www.w3.org/2000/svg">
<path d="M0.737793 172.192H1018.74" stroke="#303030" stroke-width="2"/>
<path d="M0.737793 2.19214H1018.74" stroke="#303030" stroke-width="2"/>
<path d="M0.737793 342.317H1018.74" stroke="#303030" stroke-width="2"/>
<path d="M0.737793 512.317H1018.74" stroke="#303030" stroke-width="2"/>
<path d="M908.193 150.573C905.533 150.573 903.258 150.048 901.368 148.998C899.478 147.948 898.019 146.478 896.993 144.588C895.989 142.675 895.488 140.423 895.488 137.833C895.488 135.243 895.989 133.003 896.993 131.113C898.019 129.223 899.478 127.753 901.368 126.703C903.258 125.653 905.533 125.128 908.193 125.128C909.826 125.128 911.389 125.385 912.883 125.898C914.376 126.412 915.601 127.112 916.558 127.998L914.878 132.303C913.828 131.487 912.766 130.892 911.693 130.518C910.643 130.122 909.534 129.923 908.368 129.923C906.034 129.923 904.261 130.612 903.048 131.988C901.834 133.342 901.228 135.29 901.228 137.833C901.228 140.377 901.834 142.337 903.048 143.713C904.261 145.09 906.034 145.778 908.368 145.778C909.534 145.778 910.643 145.592 911.693 145.218C912.766 144.822 913.828 144.215 914.878 143.398L916.558 147.703C915.601 148.59 914.376 149.29 912.883 149.803C911.389 150.317 909.826 150.573 908.193 150.573ZM920.114 150.188V125.513H925.539V135.418H937.019V125.513H942.444V150.188H937.019V139.933H925.539V150.188H920.114ZM944.589 150.188L955.929 125.513H960.304L971.644 150.188H966.184L963.244 143.328L965.414 144.833H950.819L952.989 143.328L950.084 150.188H944.589ZM958.064 131.288L953.584 141.963L952.639 140.598H963.594L962.649 141.963L958.134 131.288H958.064ZM979.604 150.188L968.509 125.513H974.319L982.824 145.218H981.074L989.579 125.513H995.144L984.049 150.188H979.604ZM991.996 150.188L1003.34 125.513H1007.71L1019.05 150.188H1013.59L1010.65 143.328L1012.82 144.833H998.226L1000.4 143.328L997.491 150.188H991.996ZM1005.47 131.288L1000.99 141.963L1000.05 140.598H1011L1010.06 141.963L1005.54 131.288H1005.47Z" fill="#303030"/>
<path d="M776.56 320.188V295.513H780.585L793.85 312.418H792.905V295.513H797.945V320.188H793.955L780.69 303.248H781.6V320.188H776.56ZM813.482 320.573C809.982 320.573 807.311 319.675 805.467 317.878C803.647 316.082 802.737 313.41 802.737 309.863V295.513H808.162V309.898C808.162 311.905 808.617 313.422 809.527 314.448C810.437 315.452 811.756 315.953 813.482 315.953C815.209 315.953 816.516 315.452 817.402 314.448C818.312 313.422 818.767 311.905 818.767 309.898V295.513H824.122V309.863C824.122 313.41 823.224 316.082 821.427 317.878C819.631 319.675 816.982 320.573 813.482 320.573ZM828.923 320.188V295.513H832.948L846.213 312.418H845.268V295.513H850.308V320.188H846.318L833.053 303.248H833.963V320.188H828.923ZM855.276 320.188V295.513H860.701V320.188H855.276ZM871.512 320.188V299.993H863.357V295.513H885.092V299.993H876.937V320.188H871.512ZM897.722 320.573C895.902 320.573 894.233 320.27 892.717 319.663C891.223 319.057 889.94 318.193 888.867 317.073C887.793 315.953 886.965 314.612 886.382 313.048C885.822 311.485 885.542 309.747 885.542 307.833C885.542 305.897 885.822 304.158 886.382 302.618C886.965 301.055 887.793 299.725 888.867 298.628C889.94 297.508 891.223 296.645 892.717 296.038C894.233 295.432 895.902 295.128 897.722 295.128C899.565 295.128 901.233 295.432 902.727 296.038C904.22 296.645 905.503 297.497 906.577 298.593C907.65 299.69 908.478 301.02 909.062 302.583C909.645 304.147 909.937 305.885 909.937 307.798C909.937 309.735 909.645 311.485 909.062 313.048C908.478 314.612 907.65 315.953 906.577 317.073C905.503 318.193 904.22 319.057 902.727 319.663C901.233 320.27 899.565 320.573 897.722 320.573ZM897.722 315.953C899.122 315.953 900.3 315.638 901.257 315.008C902.213 314.355 902.948 313.422 903.462 312.208C903.998 310.972 904.267 309.513 904.267 307.833C904.267 306.13 904.01 304.672 903.497 303.458C902.983 302.245 902.237 301.323 901.257 300.693C900.277 300.063 899.098 299.748 897.722 299.748C896.368 299.748 895.202 300.063 894.222 300.693C893.242 301.323 892.495 302.245 891.982 303.458C891.468 304.672 891.212 306.13 891.212 307.833C891.212 309.513 891.468 310.972 891.982 312.208C892.495 313.422 893.242 314.355 894.222 315.008C895.202 315.638 896.368 315.953 897.722 315.953ZM932.694 320.573C931.411 320.573 930.162 320.457 928.949 320.223C927.759 320.013 926.651 319.71 925.624 319.313C924.597 318.893 923.699 318.403 922.929 317.843L924.504 313.573C925.251 314.087 926.056 314.53 926.919 314.903C927.782 315.277 928.704 315.568 929.684 315.778C930.664 315.965 931.667 316.058 932.694 316.058C934.397 316.058 935.611 315.802 936.334 315.288C937.057 314.752 937.419 314.087 937.419 313.293C937.419 312.85 937.302 312.465 937.069 312.138C936.859 311.812 936.497 311.532 935.984 311.298C935.494 311.042 934.817 310.832 933.954 310.668L929.999 309.828C927.759 309.362 926.091 308.568 924.994 307.448C923.921 306.305 923.384 304.812 923.384 302.968C923.384 301.382 923.804 300.005 924.644 298.838C925.507 297.672 926.686 296.762 928.179 296.108C929.696 295.455 931.434 295.128 933.394 295.128C934.537 295.128 935.634 295.245 936.684 295.478C937.734 295.688 938.702 296.003 939.589 296.423C940.476 296.843 941.246 297.345 941.899 297.928L940.324 301.918C939.391 301.172 938.341 300.612 937.174 300.238C936.007 299.842 934.736 299.643 933.359 299.643C932.379 299.643 931.539 299.772 930.839 300.028C930.162 300.285 929.637 300.647 929.264 301.113C928.914 301.58 928.739 302.117 928.739 302.723C928.739 303.4 928.984 303.948 929.474 304.368C929.964 304.788 930.816 305.127 932.029 305.383L935.984 306.223C938.271 306.713 939.974 307.507 941.094 308.603C942.214 309.677 942.774 311.1 942.774 312.873C942.774 314.413 942.354 315.767 941.514 316.933C940.697 318.077 939.531 318.975 938.014 319.628C936.521 320.258 934.747 320.573 932.694 320.573ZM943.222 320.188L954.562 295.513H958.937L970.277 320.188H964.817L961.877 313.328L964.047 314.833H949.452L951.622 313.328L948.717 320.188H943.222ZM956.697 301.288L952.217 311.963L951.272 310.598H962.227L961.282 311.963L956.767 301.288H956.697ZM972.409 320.188V295.513H976.434L989.699 312.418H988.754V295.513H993.794V320.188H989.804L976.539 303.248H977.449V320.188H972.409ZM1007.58 320.573C1006.3 320.573 1005.05 320.457 1003.84 320.223C1002.65 320.013 1001.54 319.71 1000.51 319.313C999.485 318.893 998.587 318.403 997.817 317.843L999.392 313.573C1000.14 314.087 1000.94 314.53 1001.81 314.903C1002.67 315.277 1003.59 315.568 1004.57 315.778C1005.55 315.965 1006.56 316.058 1007.58 316.058C1009.29 316.058 1010.5 315.802 1011.22 315.288C1011.95 314.752 1012.31 314.087 1012.31 313.293C1012.31 312.85 1012.19 312.465 1011.96 312.138C1011.75 311.812 1011.39 311.532 1010.87 311.298C1010.38 311.042 1009.71 310.832 1008.84 310.668L1004.89 309.828C1002.65 309.362 1000.98 308.568 999.882 307.448C998.809 306.305 998.272 304.812 998.272 302.968C998.272 301.382 998.692 300.005 999.532 298.838C1000.4 297.672 1001.57 296.762 1003.07 296.108C1004.58 295.455 1006.32 295.128 1008.28 295.128C1009.43 295.128 1010.52 295.245 1011.57 295.478C1012.62 295.688 1013.59 296.003 1014.48 296.423C1015.36 296.843 1016.13 297.345 1016.79 297.928L1015.21 301.918C1014.28 301.172 1013.23 300.612 1012.06 300.238C1010.9 299.842 1009.62 299.643 1008.25 299.643C1007.27 299.643 1006.43 299.772 1005.73 300.028C1005.05 300.285 1004.53 300.647 1004.15 301.113C1003.8 301.58 1003.63 302.117 1003.63 302.723C1003.63 303.4 1003.87 303.948 1004.36 304.368C1004.85 304.788 1005.7 305.127 1006.92 305.383L1010.87 306.223C1013.16 306.713 1014.86 307.507 1015.98 308.603C1017.1 309.677 1017.66 311.1 1017.66 312.873C1017.66 314.413 1017.24 315.767 1016.4 316.933C1015.59 318.077 1014.42 318.975 1012.9 319.628C1011.41 320.258 1009.64 320.573 1007.58 320.573Z" fill="#303030"/>
<path d="M776.56 490.188V465.513H780.585L793.85 482.418H792.905V465.513H797.945V490.188H793.955L780.69 473.248H781.6V490.188H776.56ZM813.482 490.573C809.982 490.573 807.311 489.675 805.467 487.878C803.647 486.082 802.737 483.41 802.737 479.863V465.513H808.162V479.898C808.162 481.905 808.617 483.422 809.527 484.448C810.437 485.452 811.756 485.953 813.482 485.953C815.209 485.953 816.516 485.452 817.402 484.448C818.312 483.422 818.767 481.905 818.767 479.898V465.513H824.122V479.863C824.122 483.41 823.224 486.082 821.427 487.878C819.631 489.675 816.982 490.573 813.482 490.573ZM828.923 490.188V465.513H832.948L846.213 482.418H845.268V465.513H850.308V490.188H846.318L833.053 473.248H833.963V490.188H828.923ZM855.276 490.188V465.513H860.701V490.188H855.276ZM871.512 490.188V469.993H863.357V465.513H885.092V469.993H876.937V490.188H871.512ZM897.722 490.573C895.902 490.573 894.233 490.27 892.717 489.663C891.223 489.057 889.94 488.193 888.867 487.073C887.793 485.953 886.965 484.612 886.382 483.048C885.822 481.485 885.542 479.747 885.542 477.833C885.542 475.897 885.822 474.158 886.382 472.618C886.965 471.055 887.793 469.725 888.867 468.628C889.94 467.508 891.223 466.645 892.717 466.038C894.233 465.432 895.902 465.128 897.722 465.128C899.565 465.128 901.233 465.432 902.727 466.038C904.22 466.645 905.503 467.497 906.577 468.593C907.65 469.69 908.478 471.02 909.062 472.583C909.645 474.147 909.937 475.885 909.937 477.798C909.937 479.735 909.645 481.485 909.062 483.048C908.478 484.612 907.65 485.953 906.577 487.073C905.503 488.193 904.22 489.057 902.727 489.663C901.233 490.27 899.565 490.573 897.722 490.573ZM897.722 485.953C899.122 485.953 900.3 485.638 901.257 485.008C902.213 484.355 902.948 483.422 903.462 482.208C903.998 480.972 904.267 479.513 904.267 477.833C904.267 476.13 904.01 474.672 903.497 473.458C902.983 472.245 902.237 471.323 901.257 470.693C900.277 470.063 899.098 469.748 897.722 469.748C896.368 469.748 895.202 470.063 894.222 470.693C893.242 471.323 892.495 472.245 891.982 473.458C891.468 474.672 891.212 476.13 891.212 477.833C891.212 479.513 891.468 480.972 891.982 482.208C892.495 483.422 893.242 484.355 894.222 485.008C895.202 485.638 896.368 485.953 897.722 485.953ZM932.694 490.573C931.411 490.573 930.162 490.457 928.949 490.223C927.759 490.013 926.651 489.71 925.624 489.313C924.597 488.893 923.699 488.403 922.929 487.843L924.504 483.573C925.251 484.087 926.056 484.53 926.919 484.903C927.782 485.277 928.704 485.568 929.684 485.778C930.664 485.965 931.667 486.058 932.694 486.058C934.397 486.058 935.611 485.802 936.334 485.288C937.057 484.752 937.419 484.087 937.419 483.293C937.419 482.85 937.302 482.465 937.069 482.138C936.859 481.812 936.497 481.532 935.984 481.298C935.494 481.042 934.817 480.832 933.954 480.668L929.999 479.828C927.759 479.362 926.091 478.568 924.994 477.448C923.921 476.305 923.384 474.812 923.384 472.968C923.384 471.382 923.804 470.005 924.644 468.838C925.507 467.672 926.686 466.762 928.179 466.108C929.696 465.455 931.434 465.128 933.394 465.128C934.537 465.128 935.634 465.245 936.684 465.478C937.734 465.688 938.702 466.003 939.589 466.423C940.476 466.843 941.246 467.345 941.899 467.928L940.324 471.918C939.391 471.172 938.341 470.612 937.174 470.238C936.007 469.842 934.736 469.643 933.359 469.643C932.379 469.643 931.539 469.772 930.839 470.028C930.162 470.285 929.637 470.647 929.264 471.113C928.914 471.58 928.739 472.117 928.739 472.723C928.739 473.4 928.984 473.948 929.474 474.368C929.964 474.788 930.816 475.127 932.029 475.383L935.984 476.223C938.271 476.713 939.974 477.507 941.094 478.603C942.214 479.677 942.774 481.1 942.774 482.873C942.774 484.413 942.354 485.767 941.514 486.933C940.697 488.077 939.531 488.975 938.014 489.628C936.521 490.258 934.747 490.573 932.694 490.573ZM943.222 490.188L954.562 465.513H958.937L970.277 490.188H964.817L961.877 483.328L964.047 484.833H949.452L951.622 483.328L948.717 490.188H943.222ZM956.697 471.288L952.217 481.963L951.272 480.598H962.227L961.282 481.963L956.767 471.288H956.697ZM972.409 490.188V465.513H976.434L989.699 482.418H988.754V465.513H993.794V490.188H989.804L976.539 473.248H977.449V490.188H972.409ZM1007.58 490.573C1006.3 490.573 1005.05 490.457 1003.84 490.223C1002.65 490.013 1001.54 489.71 1000.51 489.313C999.485 488.893 998.587 488.403 997.817 487.843L999.392 483.573C1000.14 484.087 1000.94 484.53 1001.81 484.903C1002.67 485.277 1003.59 485.568 1004.57 485.778C1005.55 485.965 1006.56 486.058 1007.58 486.058C1009.29 486.058 1010.5 485.802 1011.22 485.288C1011.95 484.752 1012.31 484.087 1012.31 483.293C1012.31 482.85 1012.19 482.465 1011.96 482.138C1011.75 481.812 1011.39 481.532 1010.87 481.298C1010.38 481.042 1009.71 480.832 1008.84 480.668L1004.89 479.828C1002.65 479.362 1000.98 478.568 999.882 477.448C998.809 476.305 998.272 474.812 998.272 472.968C998.272 471.382 998.692 470.005 999.532 468.838C1000.4 467.672 1001.57 466.762 1003.07 466.108C1004.58 465.455 1006.32 465.128 1008.28 465.128C1009.43 465.128 1010.52 465.245 1011.57 465.478C1012.62 465.688 1013.59 466.003 1014.48 466.423C1015.36 466.843 1016.13 467.345 1016.79 467.928L1015.21 471.918C1014.28 471.172 1013.23 470.612 1012.06 470.238C1010.9 469.842 1009.62 469.643 1008.25 469.643C1007.27 469.643 1006.43 469.772 1005.73 470.028C1005.05 470.285 1004.53 470.647 1004.15 471.113C1003.8 471.58 1003.63 472.117 1003.63 472.723C1003.63 473.4 1003.87 473.948 1004.36 474.368C1004.85 474.788 1005.7 475.127 1006.92 475.383L1010.87 476.223C1013.16 476.713 1014.86 477.507 1015.98 478.603C1017.1 479.677 1017.66 481.1 1017.66 482.873C1017.66 484.413 1017.24 485.767 1016.4 486.933C1015.59 488.077 1014.42 488.975 1012.9 489.628C1011.41 490.258 1009.64 490.573 1007.58 490.573Z" fill="#303030"/>
<path d="M85.1792 61.782H40.1792V46.782H85.1792V61.782ZM25.1792 61.782H40.1792V76.782H25.1792V61.782ZM100.179 76.782H85.1792V61.782H100.179V76.782ZM85.1792 91.782H55.1792V76.782H85.1792V91.782ZM85.1792 91.782H100.179V121.782H85.1792V91.782ZM40.1792 106.782V121.782H25.1792V106.782H40.1792ZM85.1792 136.782H40.1792V121.782H85.1792V136.782ZM130.145 46.782H175.145V61.782H130.145V46.782ZM115.145 61.782H130.145V106.782H175.145V61.782H190.145V136.782H175.145V121.782H130.145V136.782H115.145V61.782ZM280.111 61.782H220.111V136.782H205.111V46.782H280.111V61.782ZM310.077 46.782H355.077V61.782H310.077V46.782ZM295.077 61.782H310.077V121.782H295.077V61.782ZM355.077 61.782H370.077V121.782H355.077V61.782ZM310.077 121.782H355.077V136.782H310.077V121.782ZM430.042 46.782V61.782H415.042V46.782H430.042ZM400.042 61.782H415.042V76.782H400.042V61.782ZM445.042 61.782V76.782H430.042V61.782H445.042ZM400.042 76.782V136.782H385.042V76.782H400.042ZM460.042 76.782V136.782H445.042V76.782H460.042ZM490.008 46.782H535.008V61.782H490.008V46.782ZM475.008 61.782H490.008V121.782H475.008V61.782ZM535.008 61.782H550.008V121.782H535.008V61.782ZM490.008 121.782H535.008V136.782H490.008V121.782ZM564.974 46.782H624.974V61.782H579.974V76.782H624.974V91.782H579.974V121.782H624.974V136.782H564.974V46.782ZM624.974 61.782H639.974V76.782H624.974V61.782ZM624.974 91.782H639.974V121.782H624.974V91.782ZM699.94 91.782H669.94V136.782H654.94V46.782H669.94V76.782H699.94V91.782ZM729.94 61.782H714.94V46.782H729.94V61.782ZM714.94 76.782H699.94V61.782H714.94V76.782ZM699.94 106.782V91.782H714.94V106.782H699.94ZM714.94 106.782H729.94V136.782H714.94V106.782ZM774.906 106.782V121.782H759.906V136.782H744.906V46.782H759.906V106.782H774.906ZM819.906 46.782V136.782H804.906V91.782H789.906V76.782H804.906V46.782H819.906ZM774.906 91.782H789.906V106.782H774.906V91.782Z" fill="#303030"/>
<path d="M58.3276 299.616C53.4943 299.616 48.9943 299.199 44.8276 298.366C40.7443 297.616 36.9526 296.449 33.4526 294.866C30.036 293.283 26.8693 291.449 23.9526 289.366L29.7026 274.991C33.1193 277.658 37.0776 279.741 41.5776 281.241C46.161 282.658 51.2026 283.366 56.7026 283.366C62.9526 283.366 67.5776 282.408 70.5776 280.491C73.5776 278.491 75.0776 275.491 75.0776 271.491C75.0776 267.991 73.911 265.408 71.5776 263.741C69.2443 261.991 65.5776 261.116 60.5776 261.116H39.3276V245.991H58.4526C63.286 245.991 66.8693 245.158 69.2026 243.491C71.536 241.824 72.7026 239.241 72.7026 235.741C72.7026 232.491 71.4526 229.866 68.9526 227.866C66.4526 225.866 62.411 224.866 56.8276 224.866C52.2443 224.866 47.7026 225.574 43.2026 226.991C38.786 228.408 34.8693 230.449 31.4526 233.116L25.8276 218.741C28.4943 216.658 31.536 214.866 34.9526 213.366C38.4526 211.866 42.2443 210.741 46.3276 209.991C50.411 209.158 54.7026 208.741 59.2026 208.741C66.536 208.741 72.5776 209.783 77.3276 211.866C82.161 213.949 85.786 216.824 88.2026 220.491C90.6193 224.074 91.8276 228.241 91.8276 232.991C91.8276 238.241 90.286 242.699 87.2026 246.366C84.2026 250.033 80.1193 252.491 74.9526 253.741V251.741C80.9526 252.824 85.6193 255.241 88.9526 258.991C92.3693 262.658 94.0776 267.449 94.0776 273.366C94.0776 278.533 92.786 283.116 90.2026 287.116C87.6193 291.033 83.661 294.116 78.3276 296.366C73.0776 298.533 66.411 299.616 58.3276 299.616ZM128.81 299.616C124.31 299.616 120.268 298.741 116.685 296.991C113.102 295.241 110.31 292.866 108.31 289.866C106.31 286.866 105.31 283.491 105.31 279.741C105.31 275.241 106.477 271.699 108.81 269.116C111.143 266.449 114.935 264.574 120.185 263.491C125.435 262.324 132.393 261.741 141.06 261.741H147.685V271.491H141.185C137.935 271.491 135.185 271.616 132.935 271.866C130.768 272.116 128.977 272.574 127.56 273.241C126.143 273.824 125.102 274.574 124.435 275.491C123.852 276.408 123.56 277.574 123.56 278.991C123.56 281.324 124.352 283.241 125.935 284.741C127.602 286.241 129.977 286.991 133.06 286.991C135.477 286.991 137.602 286.449 139.435 285.366C141.352 284.199 142.852 282.658 143.935 280.741C145.018 278.741 145.56 276.491 145.56 273.991V259.616C145.56 255.949 144.727 253.366 143.06 251.866C141.393 250.283 138.56 249.491 134.56 249.491C131.227 249.491 127.685 250.033 123.935 251.116C120.268 252.116 116.602 253.658 112.935 255.741L107.81 243.116C109.977 241.616 112.602 240.324 115.685 239.241C118.852 238.074 122.143 237.199 125.56 236.616C128.977 235.949 132.227 235.616 135.31 235.616C141.727 235.616 146.977 236.574 151.06 238.491C155.227 240.324 158.352 243.199 160.435 247.116C162.518 250.949 163.56 255.908 163.56 261.991V298.241H145.935V285.866H146.81C146.31 288.699 145.227 291.158 143.56 293.241C141.977 295.241 139.935 296.824 137.435 297.991C134.935 299.074 132.06 299.616 128.81 299.616ZM179.715 298.241V236.866H228.09V251.616H198.59V298.241H179.715ZM267.931 299.616C261.348 299.616 255.598 298.324 250.681 295.741C245.848 293.158 242.098 289.449 239.431 284.616C236.764 279.783 235.431 274.074 235.431 267.491C235.431 260.908 236.764 255.241 239.431 250.491C242.098 245.741 245.848 242.074 250.681 239.491C255.598 236.908 261.348 235.616 267.931 235.616C274.514 235.616 280.223 236.908 285.056 239.491C289.973 242.074 293.764 245.783 296.431 250.616C299.181 255.366 300.556 260.991 300.556 267.491C300.556 274.074 299.181 279.783 296.431 284.616C293.764 289.449 289.973 293.158 285.056 295.741C280.223 298.324 274.514 299.616 267.931 299.616ZM267.931 285.491C272.014 285.491 275.306 284.033 277.806 281.116C280.306 278.116 281.556 273.574 281.556 267.491C281.556 261.408 280.306 256.949 277.806 254.116C275.306 251.199 272.014 249.741 267.931 249.741C263.931 249.741 260.681 251.199 258.181 254.116C255.681 256.949 254.431 261.408 254.431 267.491C254.431 273.574 255.681 278.116 258.181 281.116C260.681 284.033 263.931 285.491 267.931 285.491ZM312.025 300.116L306.4 285.241C308.983 284.491 311.15 283.449 312.9 282.116C314.65 280.783 316.067 279.033 317.15 276.866C318.233 274.699 319.025 272.074 319.525 268.991C320.025 265.824 320.275 262.074 320.275 257.741V236.866H372.4V298.241H353.525V251.491H337.525V258.366C337.525 264.616 336.983 270.199 335.9 275.116C334.9 279.949 333.358 284.074 331.275 287.491C329.275 290.908 326.65 293.699 323.4 295.866C320.233 297.949 316.442 299.366 312.025 300.116ZM418.444 299.616C411.861 299.616 406.111 298.324 401.194 295.741C396.361 293.158 392.611 289.449 389.944 284.616C387.277 279.783 385.944 274.074 385.944 267.491C385.944 260.908 387.277 255.241 389.944 250.491C392.611 245.741 396.361 242.074 401.194 239.491C406.111 236.908 411.861 235.616 418.444 235.616C425.027 235.616 430.736 236.908 435.569 239.491C440.486 242.074 444.277 245.783 446.944 250.616C449.694 255.366 451.069 260.991 451.069 267.491C451.069 274.074 449.694 279.783 446.944 284.616C444.277 289.449 440.486 293.158 435.569 295.741C430.736 298.324 425.027 299.616 418.444 299.616ZM418.444 285.491C422.527 285.491 425.819 284.033 428.319 281.116C430.819 278.116 432.069 273.574 432.069 267.491C432.069 261.408 430.819 256.949 428.319 254.116C425.819 251.199 422.527 249.741 418.444 249.741C414.444 249.741 411.194 251.199 408.694 254.116C406.194 256.949 404.944 261.408 404.944 267.491C404.944 273.574 406.194 278.116 408.694 281.116C411.194 284.033 414.444 285.491 418.444 285.491ZM464.383 298.241V236.866H499.258C504.842 236.866 509.3 237.533 512.633 238.866C516.05 240.116 518.508 241.949 520.008 244.366C521.508 246.699 522.258 249.574 522.258 252.991C522.258 256.741 520.967 259.949 518.383 262.616C515.8 265.199 512.383 266.824 508.133 267.491V265.616C511.883 265.866 514.967 266.658 517.383 267.991C519.8 269.324 521.592 271.116 522.758 273.366C523.925 275.533 524.508 278.074 524.508 280.991C524.508 286.241 522.425 290.449 518.258 293.616C514.175 296.699 508.175 298.241 500.258 298.241H464.383ZM481.758 286.991H498.383C501.383 286.991 503.633 286.408 505.133 285.241C506.717 283.991 507.508 282.158 507.508 279.741C507.508 277.324 506.717 275.533 505.133 274.366C503.633 273.116 501.383 272.491 498.383 272.491H481.758V286.991ZM481.758 261.366H497.258C499.758 261.366 501.717 260.783 503.133 259.616C504.55 258.366 505.258 256.699 505.258 254.616C505.258 252.449 504.55 250.824 503.133 249.741C501.717 248.658 499.758 248.116 497.258 248.116H481.758V261.366ZM537.015 298.241V236.866H555.89V259.741H563.265L579.64 236.866H599.765L577.64 268.241L573.89 262.116C576.14 262.366 578.182 263.033 580.015 264.116C581.848 265.199 583.515 266.616 585.015 268.366C586.515 270.116 587.932 272.158 589.265 274.491L602.265 298.241H582.14L572.265 280.491C571.432 278.824 570.557 277.574 569.64 276.741C568.723 275.824 567.682 275.199 566.515 274.866C565.432 274.449 564.14 274.241 562.64 274.241H555.89V298.241H537.015ZM609.403 298.241V236.866H626.403V278.491H623.028L654.403 236.866H669.903V298.241H652.903V256.616H656.403L624.903 298.241H609.403Z" fill="#303030"/>
<path d="M24.9751 452.413V396.013H31.5351V420.973H65.3751V396.013H71.9351V452.413H65.3751V426.653H31.5351V452.413H24.9751ZM97.5945 453.133C94.9278 453.133 92.5278 452.626 90.3945 451.613C88.3145 450.546 86.6612 449.106 85.4345 447.293C84.2078 445.48 83.5945 443.453 83.5945 441.213C83.5945 438.333 84.3145 436.066 85.7545 434.413C87.2478 432.76 89.6745 431.586 93.0345 430.893C96.4478 430.2 101.088 429.853 106.955 429.853H110.555V434.093H107.035C103.781 434.093 101.061 434.2 98.8745 434.413C96.6878 434.626 94.9545 435 93.6745 435.533C92.3945 436.066 91.4878 436.76 90.9545 437.613C90.4212 438.466 90.1545 439.533 90.1545 440.813C90.1545 443 90.9012 444.786 92.3945 446.173C93.9412 447.56 96.0212 448.253 98.6345 448.253C100.768 448.253 102.635 447.746 104.235 446.733C105.888 445.72 107.168 444.333 108.075 442.573C109.035 440.813 109.515 438.786 109.515 436.493V427.373C109.515 424.066 108.848 421.693 107.515 420.253C106.181 418.76 103.995 418.013 100.955 418.013C98.6078 418.013 96.3412 418.36 94.1545 419.053C91.9678 419.693 89.7278 420.76 87.4345 422.253L85.1945 417.533C86.5812 416.573 88.1545 415.746 89.9145 415.053C91.6745 414.306 93.5145 413.746 95.4345 413.373C97.3545 413 99.1945 412.813 100.955 412.813C104.315 412.813 107.088 413.373 109.275 414.493C111.461 415.56 113.088 417.213 114.155 419.453C115.221 421.64 115.755 424.466 115.755 427.933V452.413H109.675V443.373H110.395C109.968 445.4 109.141 447.133 107.915 448.573C106.741 450.013 105.275 451.133 103.515 451.933C101.755 452.733 99.7812 453.133 97.5945 453.133ZM144.8 453.133C140.96 453.133 137.626 452.306 134.8 450.653C132.026 448.946 129.866 446.44 128.32 443.133C126.826 439.826 126.08 435.773 126.08 430.973V424.973C126.08 421.88 126.32 419.106 126.8 416.653C127.28 414.146 128.026 411.933 129.04 410.013C130.053 408.093 131.306 406.413 132.8 404.973C134.293 403.533 136.026 402.306 138 401.293C140.026 400.28 142.293 399.426 144.8 398.733L158.64 394.813L160.8 400.173L145.28 404.333C140.96 405.506 137.706 407.613 135.52 410.653C133.386 413.64 132.32 417.32 132.32 421.693V424.813H131.2C131.84 422.466 132.853 420.44 134.24 418.733C135.626 417.026 137.333 415.72 139.36 414.813C141.44 413.853 143.733 413.373 146.24 413.373C148.8 413.373 151.093 413.826 153.12 414.733C155.2 415.64 156.986 416.973 158.48 418.733C159.973 420.44 161.12 422.493 161.92 424.893C162.773 427.293 163.2 430.013 163.2 433.053C163.2 437.106 162.426 440.653 160.88 443.693C159.386 446.68 157.253 449 154.48 450.653C151.76 452.306 148.533 453.133 144.8 453.133ZM144.56 447.933C148.346 447.933 151.306 446.68 153.44 444.173C155.573 441.613 156.64 437.96 156.64 433.213C156.64 428.573 155.573 424.973 153.44 422.413C151.306 419.853 148.373 418.573 144.64 418.573C140.906 418.573 137.973 419.853 135.84 422.413C133.706 424.92 132.64 428.333 132.64 432.653C132.64 437.666 133.68 441.48 135.76 444.093C137.893 446.653 140.826 447.933 144.56 447.933ZM189.952 453.133C186.165 453.133 182.885 452.306 180.112 450.653C177.339 449 175.179 446.68 173.632 443.693C172.139 440.653 171.392 437.08 171.392 432.973C171.392 428.866 172.139 425.32 173.632 422.333C175.179 419.293 177.339 416.946 180.112 415.293C182.885 413.64 186.165 412.813 189.952 412.813C193.739 412.813 197.019 413.64 199.792 415.293C202.565 416.946 204.699 419.293 206.192 422.333C207.739 425.32 208.512 428.866 208.512 432.973C208.512 437.08 207.739 440.653 206.192 443.693C204.699 446.68 202.565 449 199.792 450.653C197.019 452.306 193.739 453.133 189.952 453.133ZM189.952 447.933C193.632 447.933 196.539 446.653 198.672 444.093C200.859 441.48 201.952 437.746 201.952 432.893C201.952 428.093 200.859 424.413 198.672 421.853C196.539 419.293 193.632 418.013 189.952 418.013C186.325 418.013 183.419 419.293 181.232 421.853C179.045 424.413 177.952 428.093 177.952 432.893C177.952 437.746 179.045 441.48 181.232 444.093C183.419 446.653 186.325 447.933 189.952 447.933ZM219.105 466.813V413.533H225.425V422.733H224.625C225.478 419.693 227.158 417.293 229.665 415.533C232.225 413.72 235.265 412.813 238.785 412.813C242.251 412.813 245.265 413.64 247.825 415.293C250.438 416.893 252.438 419.213 253.825 422.253C255.265 425.24 255.985 428.813 255.985 432.973C255.985 437.08 255.265 440.653 253.825 443.693C252.438 446.68 250.465 449 247.905 450.653C245.345 452.306 242.305 453.133 238.785 453.133C235.265 453.133 232.251 452.253 229.745 450.493C227.238 448.68 225.531 446.28 224.625 443.293H225.585V466.813H219.105ZM237.425 447.933C241.105 447.933 244.011 446.653 246.145 444.093C248.331 441.48 249.425 437.773 249.425 432.973C249.425 428.12 248.331 424.413 246.145 421.853C244.011 419.293 241.105 418.013 237.425 418.013C233.798 418.013 230.891 419.293 228.705 421.853C226.518 424.413 225.425 428.12 225.425 432.973C225.425 437.773 226.518 441.48 228.705 444.093C230.891 446.653 233.798 447.933 237.425 447.933ZM266.446 452.413V413.533H272.926V429.693H294.126V413.533H300.606V452.413H294.126V434.973H272.926V452.413H266.446ZM313.4 452.413V413.533H319.88V427.373H331.64C336.6 427.373 340.36 428.466 342.92 430.653C345.48 432.786 346.76 435.826 346.76 439.773C346.76 442.386 346.146 444.653 344.92 446.573C343.746 448.44 342.04 449.88 339.8 450.893C337.613 451.906 334.893 452.413 331.64 452.413H313.4ZM319.88 447.773H331C334.04 447.773 336.386 447.133 338.04 445.853C339.693 444.573 340.52 442.573 340.52 439.853C340.52 437.133 339.693 435.16 338.04 433.933C336.386 432.653 334.04 432.013 331 432.013H319.88V447.773ZM352.52 452.413V413.533H359V452.413H352.52ZM371.837 452.413V413.533H377.757V446.253H375.757L400.237 413.533H405.757V452.413H399.837V419.613H401.837L377.357 452.413H371.837ZM388.797 408.493C386.664 408.493 384.69 408.12 382.877 407.373C381.064 406.573 379.49 405.4 378.157 403.853C376.824 402.306 375.81 400.36 375.117 398.013L378.877 396.573C379.837 399.24 381.117 401.213 382.717 402.493C384.37 403.773 386.397 404.413 388.797 404.413C391.25 404.413 393.25 403.826 394.797 402.653C396.397 401.48 397.837 399.48 399.117 396.653L402.797 398.013C401.837 400.573 400.637 402.626 399.197 404.173C397.81 405.666 396.237 406.76 394.477 407.453C392.717 408.146 390.824 408.493 388.797 408.493ZM447.183 452.413V418.733H433.103V413.533H467.823V418.733H453.663V452.413H447.183ZM492.093 453.133C487.987 453.133 484.44 452.333 481.453 450.733C478.52 449.08 476.227 446.76 474.573 443.773C472.973 440.786 472.173 437.213 472.173 433.053C472.173 429 472.973 425.48 474.573 422.493C476.173 419.453 478.36 417.08 481.133 415.373C483.96 413.666 487.213 412.813 490.893 412.813C494.413 412.813 497.427 413.586 499.933 415.133C502.44 416.68 504.36 418.866 505.693 421.693C507.08 424.52 507.773 427.906 507.773 431.853V434.333H477.133V430.093H503.453L502.173 431.133C502.173 426.866 501.213 423.56 499.293 421.213C497.427 418.813 494.68 417.613 491.053 417.613C488.333 417.613 486.013 418.253 484.093 419.533C482.227 420.76 480.813 422.493 479.853 424.733C478.893 426.92 478.413 429.48 478.413 432.413V432.893C478.413 436.146 478.92 438.893 479.933 441.133C481 443.373 482.573 445.08 484.653 446.253C486.733 447.373 489.213 447.933 492.093 447.933C494.387 447.933 496.6 447.586 498.733 446.893C500.92 446.146 502.973 444.946 504.893 443.293L507.133 447.853C505.373 449.453 503.133 450.733 500.413 451.693C497.693 452.653 494.92 453.133 492.093 453.133ZM517.853 452.413V413.533H524.333V429.773H531.613L544.333 413.533H551.453L536.893 432.413L535.053 430.333C536.546 430.493 537.853 430.866 538.973 431.453C540.093 432.04 541.159 432.946 542.173 434.173C543.186 435.346 544.279 436.946 545.453 438.973L553.453 452.413H546.493L539.453 440.653C538.546 439.16 537.693 438.013 536.893 437.213C536.093 436.36 535.186 435.773 534.173 435.453C533.159 435.133 531.906 434.973 530.413 434.973H524.333V452.413H517.853ZM576.522 453.133C572.629 453.133 569.269 452.28 566.442 450.573C563.615 448.866 561.429 446.493 559.882 443.453C558.389 440.36 557.642 436.786 557.642 432.733C557.642 428.626 558.389 425.08 559.882 422.093C561.429 419.106 563.615 416.813 566.442 415.213C569.269 413.613 572.629 412.813 576.522 412.813C578.922 412.813 581.295 413.24 583.642 414.093C585.989 414.946 587.935 416.146 589.482 417.693L587.242 422.413C585.695 420.92 583.989 419.826 582.122 419.133C580.309 418.44 578.575 418.093 576.922 418.093C572.869 418.093 569.749 419.373 567.562 421.933C565.375 424.44 564.282 428.066 564.282 432.813C564.282 437.453 565.375 441.133 567.562 443.853C569.749 446.52 572.869 447.853 576.922 447.853C578.575 447.853 580.309 447.506 582.122 446.813C583.989 446.12 585.695 445 587.242 443.453L589.482 448.173C587.935 449.72 585.962 450.946 583.562 451.853C581.215 452.706 578.869 453.133 576.522 453.133ZM605.855 452.413V418.733H591.775V413.533H626.495V418.733H612.335V452.413H605.855Z" fill="#303030"/>
</svg>
