<svg width="425" height="424" viewBox="0 0 425 424" fill="none" xmlns="http://www.w3.org/2000/svg">
<path d="M150.359 75.001H125.447V99.9132H150.359V75.001Z" fill="white"/>
<path d="M175.272 99.9189H150.36V124.831H175.272V99.9189Z" fill="white"/>
<path d="M200.184 124.829H175.272V149.741H200.184V124.829Z" fill="white"/>
<path d="M150.36 50.0947H125.447V75.007H150.36V50.0947Z" fill="white"/>
<path d="M175.273 75.001H150.36V99.9132H175.273V75.001Z" fill="white"/>
<path d="M200.184 99.9189H175.272V124.831H200.184V99.9189Z" fill="white"/>
<path d="M150.359 25.1807H125.447V50.0929H150.359V25.1807Z" fill="white"/>
<path d="M175.272 50.0947H150.36V75.007H175.272V50.0947Z" fill="white"/>
<path d="M200.184 75.001H175.272V99.9132H200.184V75.001Z" fill="white"/>
<path d="M150.359 0.270508H125.447V25.1828H150.359V0.270508Z" fill="white"/>
<path d="M175.272 25.1807H150.36V50.0929H175.272V25.1807Z" fill="white"/>
<path d="M200.184 50.0947H175.272V75.007H200.184V50.0947Z" fill="white"/>
<path d="M150.36 99.9189H125.447V124.831H150.36V99.9189Z" fill="white"/>
<path d="M175.273 124.829H150.36V149.741H175.273V124.829Z" fill="white"/>
<path d="M200.184 149.743H175.272V174.655H200.184V149.743Z" fill="white"/>
<path d="M299.852 75.001H274.94V99.9132H299.852V75.001Z" fill="white"/>
<path d="M274.92 99.9189H250.008V124.831H274.92V99.9189Z" fill="white"/>
<path d="M250.009 124.829H225.097V149.741H250.009V124.829Z" fill="white"/>
<path d="M299.852 50.0947H274.94V75.007H299.852V50.0947Z" fill="white"/>
<path d="M274.92 75.001H250.008V99.9132H274.92V75.001Z" fill="white"/>
<path d="M250.009 99.9189H225.096V124.831H250.009V99.9189Z" fill="white"/>
<path d="M299.852 25.1807H274.94V50.0929H299.852V25.1807Z" fill="white"/>
<path d="M274.92 50.0947H250.008V75.007H274.92V50.0947Z" fill="white"/>
<path d="M250.009 75.001H225.097V99.9132H250.009V75.001Z" fill="white"/>
<path d="M299.852 0.270508H274.94V25.1828H299.852V0.270508Z" fill="white"/>
<path d="M274.92 25.1807H250.008V50.0929H274.92V25.1807Z" fill="white"/>
<path d="M250.009 50.0947H225.096V75.007H250.009V50.0947Z" fill="white"/>
<path d="M299.852 99.9189H274.94V124.831H299.852V99.9189Z" fill="white"/>
<path d="M274.92 124.829H250.008V149.741H274.92V124.829Z" fill="white"/>
<path d="M250.009 149.743H225.097V174.655H250.009V149.743Z" fill="white"/>
<path d="M100.535 274.325H75.6227V299.237H100.535V274.325Z" fill="white"/>
<path d="M125.447 249.407H100.535V274.32H125.447V249.407Z" fill="white"/>
<path d="M150.359 224.501H125.447V249.413H150.359V224.501Z" fill="white"/>
<path d="M75.6036 274.325H50.6913V299.237H75.6036V274.325Z" fill="white"/>
<path d="M100.535 249.407H75.6224V274.32H100.535V249.407Z" fill="white"/>
<path d="M125.447 224.501H100.535V249.413H125.447V224.501Z" fill="white"/>
<path d="M50.6924 274.325H25.7802V299.237H50.6924V274.325Z" fill="white"/>
<path d="M75.6036 249.407H50.6913V274.32H75.6036V249.407Z" fill="white"/>
<path d="M100.535 224.501H75.6226V249.413H100.535V224.501Z" fill="white"/>
<path d="M25.7796 274.325H0.86731V299.237H25.7796V274.325Z" fill="white"/>
<path d="M50.6924 249.407H25.7802V274.32H50.6924V249.407Z" fill="white"/>
<path d="M75.6037 224.501H50.6914V249.413H75.6037V224.501Z" fill="white"/>
<path d="M125.447 274.325H100.535V299.237H125.447V274.325Z" fill="white"/>
<path d="M150.359 249.407H125.447V274.32H150.359V249.407Z" fill="white"/>
<path d="M175.272 224.501H150.36V249.413H175.272V224.501Z" fill="white"/>
<path d="M349.678 274.325H324.765V299.237H349.678V274.325Z" fill="white"/>
<path d="M324.765 249.407H299.853V274.32H324.765V249.407Z" fill="white"/>
<path d="M299.833 224.501H274.921V249.413H299.833V224.501Z" fill="white"/>
<path d="M374.588 274.325H349.676V299.237H374.588V274.325Z" fill="white"/>
<path d="M349.677 249.407H324.765V274.32H349.677V249.407Z" fill="white"/>
<path d="M324.765 224.501H299.853V249.413H324.765V224.501Z" fill="white"/>
<path d="M399.501 274.325H374.589V299.237H399.501V274.325Z" fill="white"/>
<path d="M374.588 249.407H349.676V274.32H374.588V249.407Z" fill="white"/>
<path d="M349.678 224.501H324.765V249.413H349.678V224.501Z" fill="white"/>
<path d="M424.414 274.325H399.502V299.237H424.414V274.325Z" fill="white"/>
<path d="M399.501 249.407H374.589V274.32H399.501V249.407Z" fill="white"/>
<path d="M374.588 224.501H349.676V249.413H374.588V224.501Z" fill="white"/>
<path d="M324.765 274.325H299.853V299.237H324.765V274.325Z" fill="white"/>
<path d="M299.834 249.407H274.921V274.32H299.834V249.407Z" fill="white"/>
<path d="M274.921 224.501H250.008V249.413H274.921V224.501Z" fill="white"/>
<path d="M100.535 174.669H75.6227V199.581H100.535V174.669Z" fill="white"/>
<path d="M75.6231 149.763H50.7108V174.675H75.6231V149.763Z" fill="white"/>
<path d="M50.6924 124.829H25.7802V149.741H50.6924V124.829Z" fill="white"/>
<path d="M125.447 174.669H100.535V199.581H125.447V174.669Z" fill="white"/>
<path d="M100.535 149.763H75.6224V174.675H100.535V149.763Z" fill="white"/>
<path d="M75.6231 124.829H50.7108V149.741H75.6231V124.829Z" fill="white"/>
<path d="M150.359 174.669H125.447V199.581H150.359V174.669Z" fill="white"/>
<path d="M125.447 149.763H100.535V174.675H125.447V149.763Z" fill="white"/>
<path d="M100.535 124.829H75.6224V149.741H100.535V124.829Z" fill="white"/>
<path d="M175.272 174.669H150.36V199.581H175.272V174.669Z" fill="white"/>
<path d="M150.359 149.763H125.447V174.675H150.359V149.763Z" fill="white"/>
<path d="M125.447 124.829H100.535V149.741H125.447V124.829Z" fill="white"/>
<path d="M75.6231 174.669H50.7108V199.581H75.6231V174.669Z" fill="white"/>
<path d="M50.6924 149.763H25.7802V174.675H50.6924V149.763Z" fill="white"/>
<path d="M25.7979 124.829H0.88562V149.741H25.7979V124.829Z" fill="white"/>
<path d="M349.678 174.669H324.765V199.581H349.678V174.669Z" fill="white"/>
<path d="M374.588 149.763H349.676V174.675H374.588V149.763Z" fill="white"/>
<path d="M399.501 124.829H374.589V149.741H399.501V124.829Z" fill="white"/>
<path d="M324.765 174.669H299.853V199.581H324.765V174.669Z" fill="white"/>
<path d="M349.677 149.763H324.765V174.675H349.677V149.763Z" fill="white"/>
<path d="M374.588 124.829H349.676V149.741H374.588V124.829Z" fill="white"/>
<path d="M299.852 174.669H274.94V199.581H299.852V174.669Z" fill="white"/>
<path d="M324.765 149.763H299.853V174.675H324.765V149.763Z" fill="white"/>
<path d="M349.677 124.829H324.765V149.741H349.677V124.829Z" fill="white"/>
<path d="M274.92 174.669H250.008V199.581H274.92V174.669Z" fill="white"/>
<path d="M299.852 149.763H274.94V174.675H299.852V149.763Z" fill="white"/>
<path d="M324.765 124.829H299.853V149.741H324.765V124.829Z" fill="white"/>
<path d="M374.588 174.669H349.676V199.581H374.588V174.669Z" fill="white"/>
<path d="M399.501 149.763H374.589V174.675H399.501V149.763Z" fill="white"/>
<path d="M424.414 124.829H399.502V149.741H424.414V124.829Z" fill="white"/>
<path d="M200.184 324.146H175.272V349.058H200.184V324.146Z" fill="white"/>
<path d="M175.273 349.079H150.36V373.991H175.273V349.079Z" fill="white"/>
<path d="M150.359 373.989H125.447V398.902H150.359V373.989Z" fill="white"/>
<path d="M200.184 299.235H175.272V324.148H200.184V299.235Z" fill="white"/>
<path d="M175.273 324.146H150.36V349.058H175.273V324.146Z" fill="white"/>
<path d="M150.359 349.079H125.447V373.991H150.359V349.079Z" fill="white"/>
<path d="M200.184 274.325H175.272V299.237H200.184V274.325Z" fill="white"/>
<path d="M175.273 299.235H150.36V324.148H175.273V299.235Z" fill="white"/>
<path d="M150.359 324.146H125.447V349.058H150.359V324.146Z" fill="white"/>
<path d="M200.184 249.407H175.272V274.32H200.184V249.407Z" fill="white"/>
<path d="M175.272 274.325H150.36V299.237H175.272V274.325Z" fill="white"/>
<path d="M150.359 299.235H125.447V324.148H150.359V299.235Z" fill="white"/>
<path d="M200.184 349.079H175.272V373.991H200.184V349.079Z" fill="white"/>
<path d="M175.273 373.989H150.36V398.902H175.273V373.989Z" fill="white"/>
<path d="M150.359 398.903H125.447V423.816H150.359V398.903Z" fill="white"/>
<path d="M250.027 324.146H225.115V349.058H250.027V324.146Z" fill="white"/>
<path d="M274.94 349.079H250.028V373.991H274.94V349.079Z" fill="white"/>
<path d="M299.852 373.989H274.94V398.902H299.852V373.989Z" fill="white"/>
<path d="M250.027 299.235H225.115V324.148H250.027V299.235Z" fill="white"/>
<path d="M274.94 324.146H250.028V349.058H274.94V324.146Z" fill="white"/>
<path d="M299.852 349.079H274.94V373.991H299.852V349.079Z" fill="white"/>
<path d="M250.027 274.325H225.115V299.237H250.027V274.325Z" fill="white"/>
<path d="M274.94 299.235H250.028V324.148H274.94V299.235Z" fill="white"/>
<path d="M299.852 324.146H274.94V349.058H299.852V324.146Z" fill="white"/>
<path d="M250.027 249.407H225.115V274.32H250.027V249.407Z" fill="white"/>
<path d="M274.94 274.325H250.028V299.237H274.94V274.325Z" fill="white"/>
<path d="M299.852 299.235H274.94V324.148H299.852V299.235Z" fill="white"/>
<path d="M250.027 349.079H225.115V373.991H250.027V349.079Z" fill="white"/>
<path d="M274.94 373.989H250.028V398.902H274.94V373.989Z" fill="white"/>
<path d="M299.852 398.903H274.94V423.816H299.852V398.903Z" fill="white"/>
</svg>
